<svg width="98" height="97" viewBox="0 0 98 97" fill="none" xmlns="http://www.w3.org/2000/svg">
<path d="M73.1934 72.4017C86.5529 59.201 86.5529 37.7985 73.1934 24.5978C59.834 11.3972 38.174 11.3972 24.8145 24.5978C11.455 37.7985 11.455 59.201 24.8145 72.4017C38.174 85.6024 59.834 85.6024 73.1934 72.4017Z" fill="#F9E484"/>
<path d="M72.5501 71.766C85.5543 58.9164 85.5543 38.0831 72.5501 25.2335C59.5459 12.3839 38.462 12.3839 25.4578 25.2335C12.4536 38.0831 12.4536 58.9164 25.4578 71.766C38.462 84.6156 59.5459 84.6156 72.5501 71.766Z" fill="#F6D551"/>
<path d="M72.6208 25.3086L25.4919 71.8773C28.6459 74.9939 32.4066 77.4511 36.6524 79.1293L79.9601 36.3364C78.2617 32.201 75.7749 28.4252 72.6208 25.3086Z" fill="white"/>
<path d="M81.4764 55.875L56.4259 80.6277C68.8602 77.8108 78.6257 68.1615 81.4764 55.875Z" fill="white"/>
<path d="M32.6492 19.855L19.9723 32.3812C18.5772 34.8384 17.4854 37.4755 16.7575 40.2325L40.595 16.6785C37.8048 17.3977 35.136 18.4765 32.6492 19.855Z" fill="white"/>
<path d="M68.2536 21.6526L21.8526 67.5021C22.3985 68.2812 22.9444 69.0004 23.5509 69.7196L70.4979 23.3307C69.77 22.7314 68.9815 22.192 68.2536 21.6526Z" fill="white"/>
<path d="M49.6932 73.016C63.0257 73.016 73.8339 62.3363 73.8339 49.1623C73.8339 35.9883 63.0257 25.3086 49.6932 25.3086C36.3607 25.3086 25.5525 35.9883 25.5525 49.1623C25.5525 62.3363 36.3607 73.016 49.6932 73.016Z" fill="white"/>
<path d="M66.0738 65.3667C75.5013 56.0514 75.5013 40.9482 66.0738 31.6328C56.6464 22.3174 41.3615 22.3174 31.9341 31.6328C22.5066 40.9482 22.5066 56.0514 31.9341 65.3667C41.3615 74.6821 56.6464 74.6821 66.0738 65.3667Z" fill="#F2B949"/>
<path d="M26.1591 49.8217C26.1591 36.6362 36.9557 25.968 50.2998 25.968C56.6079 25.968 62.3701 28.3653 66.6766 32.321C62.2488 27.6461 55.9407 24.6494 48.9654 24.6494C35.6213 24.6494 24.8247 35.3177 24.8247 48.5031C24.8247 55.3955 27.7968 61.6287 32.5885 66.0038C28.6459 61.7485 26.1591 56.0548 26.1591 49.8217Z" fill="#EDA03D"/>
<path d="M49.026 16.019C67.7078 16.019 82.8715 30.8227 83.1748 49.1625C83.1748 48.9227 83.1748 48.7429 83.1748 48.5032C83.1748 29.8637 67.8897 14.7004 48.9654 14.7004C30.041 14.7004 14.8166 29.8637 14.8166 48.5032C14.8166 48.7429 14.8166 48.9227 14.8166 49.1625C15.1805 30.8227 30.3443 16.019 49.026 16.019Z" fill="white"/>
<path d="M39.6245 58.6924V38.3748H49.3293C51.5735 38.3748 53.5751 38.7943 55.3341 39.6334C57.0325 40.4724 58.4275 41.6112 59.3374 43.1695C60.3078 44.6678 60.7931 46.4658 60.7931 48.5635C60.7931 50.6612 60.3078 52.3993 59.3374 53.9576C58.3669 55.4559 57.0325 56.6546 55.3341 57.4937C53.6358 58.3328 51.6342 58.7523 49.3293 58.7523H39.6245V58.6924ZM45.4474 54.0775H49.0867C50.2391 54.0775 51.2702 53.8377 52.1801 53.4182C53.0292 52.9986 53.7571 52.3394 54.2423 51.5003C54.7276 50.6612 54.9702 49.6424 54.9702 48.5036C54.9702 47.3049 54.7276 46.346 54.2423 45.5069C53.7571 44.6678 53.0899 44.0685 52.1801 43.589C51.3309 43.1695 50.2998 42.9297 49.0867 42.9297H45.4474V54.0775Z" fill="#CE8900"/>
</svg>
