<svg width="210" height="160" viewBox="0 0 210 160" fill="none" xmlns="http://www.w3.org/2000/svg">
<g clip-path="url(#clip0_3_510)">
<path d="M6.51972 98.9159V144.873L19.6365 160L47.4886 158.564C54.6196 157.932 61.2645 154.698 66.1454 149.481C67.2912 148.214 68.5045 147.009 69.7799 145.872C72.2456 148.221 78.8334 149.715 87.0707 151.038C104.064 153.766 116.303 139.978 117.157 138.983C120.542 142.416 124.687 145.011 129.26 146.56C143.57 151.317 156.331 143.361 158.309 142.083C173.027 141.153 190.508 137.468 205.226 136.534L204.994 115.218L199.807 111.894L199.769 101.654L204.994 100.407V74.9197L189.087 72.1643C192.918 68.6167 194.232 64.0944 192.617 59.5583L209.403 56.7615L197.732 39.0993C199.872 37.6943 201.649 35.8062 202.919 33.5885C208.539 23.5829 202.397 7.24674 191.507 1.90124C189.307 0.837504 186.926 0.192693 184.487 0L18.7063 18.2546C14.7794 18.6873 11.1502 20.5456 8.51182 23.4745C5.87344 26.4034 4.41082 30.1977 4.40332 34.1327L4.42061 70.7935L17.8798 72.86C13.2528 78.0264 13.481 83.4305 16.5484 88.9999L6.51972 98.9159Z" fill="#FF7B00"/>
<path d="M195.605 114.997H195.526V114.908H195.45V114.818H195.37V114.732H195.291V114.694H195.211V114.605H195.135V114.515H195.055V114.425H194.976V114.339H194.896V114.253H194.817V114.164H194.741V114.074H194.661V113.988H194.582V113.902H194.502V113.812H194.426V113.723H194.346V113.637H194.267V113.661H194.187V113.571H194.108V113.482H194.032V113.392H193.952V113.306H193.873V113.22H193.793V113.13H193.717V113.041H193.638V112.955H193.558V112.972H193.478V112.882H193.402V112.793H193.323V112.703H193.243V112.617H193.164V112.531H193.084V112.442H193.008V112.352H192.929V112.266H192.849V112.18H192.77V112.09H192.735V102.274L194.976 101.999V86.7611H194.896V86.6715H194.817V86.5854H194.737V86.4993H194.658V86.4511H194.582V86.3616H194.502V86.2755H194.423V86.1893H194.343V86.0998H194.267V86.0102H194.187V85.9241H194.108V85.838H194.028V85.7485H193.952V85.6589H193.873V85.5694H193.793V85.4833H193.714V85.3972H193.634V85.4178H193.558V85.3283H193.478V85.2422H193.399V85.1561H193.319V85.0665H193.243V84.977H193.164V84.8874H193.084V84.8013H193.005V84.7152H192.925V84.729H192.849V84.6394H192.77V84.5533H192.69V84.4672H192.61V84.3777H192.534V84.2881H192.455V84.202H192.375V84.1159H192.296V84.0263H192.22V83.9368H192.14V83.8472H192.061V83.7611H191.981V83.675H191.902V83.6957H191.825V83.6061H191.746V83.52H191.666V83.4339H191.587V83.3444H191.511V83.2548H191.431V83.1653H191.352V83.0792H191.272V82.9896H191.193V83.0068H191.117V82.9173H191.037V82.8312H190.957V82.7451H190.878V82.6555H190.802V82.566H190.722V82.4799H190.643V82.3938H190.563V82.3042H190.487V82.2147H190.408V82.1251H190.328V82.039H190.249V81.9529H190.169V81.9736H190.093V81.884H190.013V81.7979H189.934V81.7118H189.854V81.6222H189.778V81.5327H189.699V81.4431H189.619V81.357H189.54V81.2675H189.46V81.2847H189.384V81.1952H189.304V81.109H189.225V81.0229H189.145V80.9334H189.069V80.8438H188.99V80.7577H188.91V80.6716H188.831V80.5821H188.755V80.4925H188.675V80.403H188.596V80.3169H188.516V80.2308H188.436V80.2514H188.36V80.1619H188.281V80.0758H188.201V79.9897H188.122V79.9001H188.046V79.8106H187.966V79.7245H187.887V79.6383H187.807V79.5488H187.728V79.5626H187.651V79.473H187.572V79.3869H187.492V79.3008H187.413V79.2181H187.337V79.1286H187.257V79.0425H187.178V78.9564H187.098V78.8668H187.022V78.7773L169.385 80.9368V55.0428L176.817 54.1335V48.8432H176.834L176.897 48.9258H176.914L176.973 49.0085H176.993L177.052 49.0877H177.073L177.132 49.1669H177.149L177.211 49.2496L177.27 49.3322H177.312L177.37 49.4115H177.391L177.45 49.4907H177.467L177.529 49.5699H177.547L177.605 49.6526H177.626L177.685 49.7352H177.706L177.765 49.8144H177.785L177.844 49.8937L177.906 49.9763H177.924L177.982 50.059H178.003L178.062 50.1382H178.083L178.141 50.2174H178.159L178.221 50.2966H178.238L178.297 50.3793H178.349L178.408 50.462H178.429L178.487 50.5412H178.508L178.567 50.6204H178.584L178.646 50.7031H178.664L178.722 50.7857H178.743L178.802 50.8649H178.823L178.882 50.9442H178.899L178.961 51.0268L179.02 51.1095H179.041L179.099 51.1887H179.12L179.179 51.2679L179.241 51.3471H179.258L179.317 51.4298H179.338L179.397 51.5125H179.418L179.476 51.5917H179.497L179.556 51.6709H179.573L179.635 51.7536H179.653L179.711 51.8362H179.732L179.791 51.9154H179.812L179.871 51.9947H179.888L179.95 52.0739H179.967L180.026 52.1565H180.078L180.137 52.2392H180.158L180.216 52.3184H180.237L180.296 52.3976L180.358 52.4803H180.375L180.434 52.563H180.455L180.514 52.6422H180.535L180.593 52.7214H180.611L180.673 52.8041H180.69L180.749 52.8867H180.77L180.828 52.9659H180.849L180.908 53.0452H180.925L180.988 53.1244H181.005L181.064 53.207H181.084L181.143 53.2897H181.164L181.223 53.3689H181.243L181.302 53.4481H181.32L181.382 53.5308L181.441 53.6135H181.461L181.52 53.6927L199.949 51.3196L191.701 40.2979C192.85 39.2743 193.844 38.0911 194.654 36.7848C196.184 34.277 196.974 31.3907 196.933 28.4565C196.933 25.3085 196.131 22.6013 194.55 20.3832C194.146 19.8167 193.692 19.2866 193.195 18.7988L193.115 18.7196L193.036 18.6404L192.96 18.5612L192.88 18.4854C192.853 18.4578 192.828 18.4303 192.801 18.4062C192.773 18.3821 192.749 18.3545 192.721 18.327L192.645 18.2477C192.617 18.2231 192.59 18.1966 192.565 18.1685L192.486 18.0927C192.461 18.0646 192.435 18.0382 192.406 18.0135L192.33 17.9343C192.303 17.9068 192.275 17.8826 192.251 17.8551L192.171 17.7793C192.144 17.7518 192.119 17.7242 192.092 17.7001L192.012 17.6209L191.936 17.5417L191.857 17.4624L191.777 17.3867L191.697 17.3075L191.621 17.2282C191.593 17.2036 191.567 17.1771 191.542 17.149L191.462 17.0732L191.383 16.994L191.307 16.9148C191.279 16.8872 191.251 16.8631 191.227 16.8356L191.144 16.7391C191.117 16.7116 191.092 16.684 191.065 16.6599C191.037 16.6358 191.013 16.6083 190.985 16.5807L190.909 16.5015C190.881 16.4774 190.857 16.4498 190.829 16.4223L190.75 16.3465C190.725 16.3184 190.699 16.2919 190.67 16.2673L190.594 16.1881C190.566 16.1634 190.54 16.1369 190.515 16.1088L190.435 16.0331L190.356 15.9539L190.276 15.8746L190.2 15.7954L190.121 15.7162L190.041 15.6404L189.962 15.5612L189.885 15.482C189.857 15.4573 189.831 15.4309 189.806 15.4028L189.726 15.327C189.699 15.2994 189.674 15.2719 189.647 15.2478L189.571 15.1686C189.543 15.141 189.515 15.1169 189.491 15.0893L189.412 15.0136C189.384 14.986 189.36 14.9585 189.332 14.9344C189.304 14.9102 189.28 14.8827 189.253 14.8551L189.176 14.7759C189.149 14.7518 189.125 14.7242 189.097 14.6967L189.017 14.6209C188.993 14.5928 188.966 14.5664 188.938 14.5417L188.862 14.4625L188.782 14.3833L188.703 14.3075L188.623 14.2283L188.544 14.1491L188.468 14.0698L188.388 13.9941C188.36 13.9665 188.336 13.939 188.308 13.9148C188.281 13.8907 188.257 13.8632 188.229 13.8356L188.153 13.7564C188.125 13.7318 188.098 13.7053 188.073 13.6772L187.994 13.6014C187.969 13.5733 187.942 13.5469 187.914 13.5222L187.838 13.443C187.811 13.4154 187.783 13.3913 187.759 13.3638L187.679 13.288C187.651 13.2604 187.627 13.2329 187.6 13.2088C187.572 13.1847 187.548 13.1571 187.52 13.1296L187.444 13.0503L187.364 12.9711L187.285 12.8953C187.26 12.8672 187.234 12.8408 187.205 12.8161L187.133 12.7438L187.053 12.6646L186.974 12.5888L186.894 12.5096L186.815 12.4304L186.738 12.3512L186.659 12.2754C186.631 12.2478 186.607 12.2203 186.579 12.1962C186.552 12.172 186.528 12.1445 186.5 12.1169L186.424 12.0377C186.396 12.0131 186.369 11.9866 186.344 11.9585L186.265 11.8827C186.24 11.8546 186.213 11.8282 186.185 11.8035L186.109 11.7243C186.081 11.6967 186.054 11.6726 186.03 11.6451L185.95 11.5693C185.922 11.5417 185.898 11.5142 185.87 11.4901L185.791 11.4109L185.715 11.3316L185.635 11.2524L185.556 11.1767C185.531 11.1486 185.504 11.1221 185.476 11.0974L185.4 11.0182C185.372 10.9936 185.345 10.9671 185.321 10.939C183.801 9.44592 181.944 8.33796 179.905 7.70828C177.991 7.11301 175.994 6.82128 173.988 6.84377C172.854 6.84704 171.721 6.91951 170.596 7.06076L152.575 9.26509L119.788 13.2673V20.9756L119.709 20.8998L119.629 20.8206C119.605 20.793 119.577 20.7689 119.55 20.7414L119.474 20.6622L119.394 20.5864C119.367 20.5588 119.342 20.5313 119.315 20.5072L119.235 20.428L119.159 20.3487L119.079 20.2695L119 20.1937C118.972 20.1662 118.948 20.1386 118.92 20.1145L118.841 20.0353L118.765 19.9561L118.685 19.8803L118.606 19.8011C118.582 19.7735 118.554 19.7494 118.526 19.7219L118.45 19.6427L118.371 19.5669L118.291 19.4877C118.267 19.4601 118.239 19.436 118.211 19.4085L118.135 19.3292C118.107 19.3046 118.081 19.2781 118.056 19.25L117.976 19.1742C116.458 17.6789 114.6 16.5696 112.561 15.9401C110.646 15.3462 108.649 15.0545 106.644 15.0756C105.51 15.0788 104.377 15.1513 103.251 15.2926L85.0408 17.521L68.3793 19.5531V24.8366H68.3067V24.7505H68.2306V24.661H68.1511V24.5714H68.0716V24.4819H67.992V24.4543H67.9159V24.3682H67.8364V24.2786H67.7569V24.1891H67.6773V24.103H67.6013V24.0169H67.5217V23.9721H67.4422V23.8826H67.3626V23.793H67.2831V23.7069H67.207V23.6173H67.1275V23.5278H67.0479V23.4382H66.9684V23.421H66.8923V23.3349H66.8128V23.2454H66.7333V23.1558H66.6537V23.111H66.5742V23.0249H66.4981V22.9354H66.4186V22.8458H66.339V22.7563H66.2595V22.7322H66.1834V22.6461H66.1039V22.56H66.0243V22.4704H65.9448V22.3843H65.8687V22.2982H65.7892V22.2086H65.7096V22.1191H65.6301V22.0295H65.5506V21.9434H65.4745V21.8539H65.3949V21.7643H65.3154V21.6748H65.2359V21.6989H65.1598V21.6128H65.0803V21.5232H65.0007V21.4337H64.9212V21.3476H64.8416V21.2615H64.7656V21.1719H64.686V21.1478H64.6065V21.0583H64.5269V21.01H64.4509V20.9239H64.3713V20.8344H64.2918V20.7448H64.2122V20.6656H64.1362V20.5795H64.0566V20.49H63.9771V20.4004H63.8976V20.3143H63.818V20.2867H63.7419V20.1972H63.6624V20.1076L46.8246 22.1742V25.0743L46.216 24.7987C44.0564 23.8761 41.7621 23.3051 39.4207 23.1076C38.3832 23.0112 37.3458 22.9629 36.3083 22.9629C34.9061 22.9638 33.5052 23.0501 32.1136 23.2213C28.3096 23.6862 25.0658 24.6678 22.4307 26.142C19.723 27.6609 17.6342 29.5622 16.2268 31.7906C14.8234 33.9818 14.0805 36.5279 14.0862 39.1269C14.0862 41.407 14.5565 43.3461 15.4694 44.8857C15.9116 45.6218 16.4474 46.2979 17.0636 46.8971C17.0884 46.9252 17.115 46.9517 17.1432 46.9764L17.2193 47.0556L17.2988 47.1348L17.3783 47.2106C17.4031 47.2387 17.4297 47.2651 17.4579 47.2898L17.5339 47.369C17.5616 47.3931 17.5858 47.4207 17.6135 47.4482L17.693 47.524L17.7726 47.6032L17.8486 47.6824L17.9282 47.7617L18.0077 47.8374C18.0354 47.865 18.0596 47.8925 18.0872 47.9166L18.1287 47.9614L12.7444 60.7707L12.8378 60.8154V60.8464L12.9311 60.8912L12.9138 60.9256L13.0072 60.9704V61.0049L13.1006 61.0496V61.0841L13.1939 61.1289V61.1599L13.2873 61.2046V61.2391L13.3772 61.2838V61.3183L13.4706 61.3631V61.3975L13.564 61.4423V61.4767L13.6573 61.5181V61.5525L13.7507 61.5973L13.7334 61.6317L13.8268 61.6765V61.7109L13.9202 61.7557V61.7902L14.0135 61.8349V61.8659L14.1069 61.9107V61.9451L14.2003 61.9899V62.0244L14.2936 62.0691V62.1036L14.387 62.1484V62.1794L14.4804 62.2241V62.2586L14.5703 62.3034V62.3378L14.6637 62.3826V62.417L14.757 62.4618V62.4962L14.8504 62.5376V62.572L14.9438 62.6168L14.9265 62.6512L15.0199 62.696V62.7304L15.1132 62.7752V62.8097L15.2066 62.8544V62.8854L15.3 62.9302V62.9646L15.3899 63.0094V63.0439L15.4833 63.0886V63.1231L15.5766 63.1679V63.1989L15.67 63.2436V63.2781L15.7599 63.3229V63.3573L15.8533 63.4021V63.4365L15.9466 63.4813V63.5157L16.04 63.5605V63.5915L16.1334 63.6363L16.1161 63.6707L16.2095 63.7155V63.7499L16.3028 63.7947V63.8292L16.3962 63.8739V63.9049L16.4896 63.9497V63.9842L16.5795 64.0289V64.0634L16.6729 64.1081V64.1426L16.7662 64.1874V64.2218L16.8596 64.2631V64.2976L16.953 64.3424V64.3768L17.0463 64.4216V64.456L17.1397 64.5008V64.5352L17.2331 64.58V64.611L17.3265 64.6558V64.6902L17.4164 64.735V64.7694L17.5097 64.8142V64.8487L17.6031 64.8934V64.9244L17.6965 64.9692V65.0037L17.7864 65.0484V65.0829L17.8798 65.1276V65.1621L17.9731 65.2069V65.2413L18.0665 65.2861V65.3171L18.1599 65.3619L18.1426 65.3963L18.2359 65.4411V65.4755L18.3293 65.5203V65.5547L18.4227 65.5995V65.6305L18.5161 65.6753V65.7097L18.606 65.7545V65.7889L18.6993 65.8337V65.8682L18.7927 65.9129V65.9474L18.8861 65.9887V66.0232L18.9795 66.0679V66.1024L19.0728 66.1472V66.1816L19.1662 66.2264V66.2608L19.2596 66.3056V66.3366L19.3529 66.3814V66.4158L19.4429 66.4606V66.495L19.5362 66.5398V66.5742L19.6296 66.619V66.65L19.723 66.6948V66.7292L19.8129 66.774V66.8085L19.9062 66.8532V66.8877L19.9996 66.9324V66.9669L20.093 67.0117V67.0427L20.1864 67.0874V67.1219L20.2797 67.1667V67.2011L20.3731 67.2459V67.2803L20.4665 67.3251V67.3561L20.5598 67.4009V67.4353L20.6497 67.4801V67.5145L20.7431 67.5593V67.5937L20.8365 67.6385V67.673L20.9299 67.7143V67.7487L21.0232 67.7935V67.828L21.1166 67.8727V67.9072L21.21 67.9519V67.9864L21.3033 68.0312V68.0622L21.3967 68.1069V68.1414L21.4901 68.1862V68.2206L21.5835 68.2654V68.2998L21.6768 68.3446V68.3756L21.7702 68.4204V68.4548L21.8601 68.4996V68.534L21.9535 68.5788V68.6133L22.0468 68.658V68.6925L23.0774 69.8256C25.0382 70.7659 27.5038 71.4169 30.4121 71.7682C31.7893 71.9322 33.175 72.015 34.5619 72.0162C36.1168 72.0126 37.67 71.916 39.2132 71.7269C40.178 71.6063 41.1117 71.4548 42.0039 71.2688V96.7839C40.7437 96.8023 39.4854 96.8885 38.2345 97.0422L16.9599 99.6461V143.282H17.0394V143.368H17.119V143.454H17.195V143.543H17.2746V143.633H17.3541V143.719H17.4337V143.805H17.5132V143.895H17.5893V143.984H17.6688V143.97H17.7483V144.056H17.8279V144.146H17.904V144.236H17.9835V144.325H18.063V144.411H18.1426V144.497H18.2221V144.587H18.2982V144.676H18.3777V144.763H18.4573V144.849H18.5368V144.938H18.6129V145.028H18.6924V145.004H18.772V145.09H18.8515V145.176H18.9276V145.265H19.0071V145.355H19.0867V145.441H19.1662V145.527H19.2457V145.617H19.3218V145.706H19.4014V145.693H19.4809V145.779H19.5604V145.868H19.6365V145.958H19.716V146.037H19.7956V146.123H19.8751V146.209H19.9547V146.299H20.0307V146.388H20.1103V146.474H20.1898V146.56H20.2694V146.65H20.3454V146.74H20.425V146.726H20.5045V146.812H20.584V146.898H20.6601V146.988H20.7397V147.077H20.8192V147.163H20.8987V147.249H20.9783V147.339H21.0544V147.428H21.1339V147.415H21.2134V147.501H21.293V147.59H21.369V147.68H21.4486V147.759H21.5281V147.845H21.6077V147.931H21.6872V148.021H21.7633V148.11H21.8428V148.196H21.9224V148.283H22.0019V148.372H22.078V148.462H22.1575V148.448H22.237V148.534H22.3166V148.62H22.3927V148.71H22.4722V148.799H22.5517V148.885H22.6313V148.971H22.7108V149.061H22.7869V149.151H22.8664V149.237H22.946V149.323H23.0255V149.412H23.1016V149.502H23.1811V149.481H23.2607V149.567H23.3402V149.653H23.4197V149.743H23.4958V149.833H23.5754V149.919H23.6549V150.005H23.7344V150.094H23.8105V150.184H23.89V150.17H23.9696V150.256H24.0491V150.346H24.1252V150.435H24.2047V150.525H24.2843V150.611H24.3638V150.697H24.4434V150.787H24.5194V150.876H24.599V150.962H24.6785V151.048H24.758V151.138H24.8341V151.227H24.9137V151.203L46.8626 148.517C51.2166 148.043 55.4212 146.659 59.2014 144.456C62.7216 142.392 65.6628 139.478 67.7534 135.983C68.3017 135.057 68.7791 134.091 69.1816 133.093L69.2197 133.128L69.2992 133.207L69.3753 133.286L69.4548 133.365L69.5344 133.441L69.6139 133.52C69.6381 133.548 69.6658 133.572 69.6934 133.6L69.7695 133.679L69.8491 133.758L69.9286 133.834L70.0081 133.913L70.0842 133.992L70.1638 134.072L70.2433 134.147C70.268 134.175 70.2946 134.202 70.3228 134.227L70.3989 134.306L70.4784 134.385L70.558 134.464L70.6375 134.54L70.7171 134.619L70.7931 134.698C70.8213 134.723 70.8479 134.75 70.8727 134.778L70.9522 134.853L71.0317 134.933L71.1078 135.012L71.1874 135.091L71.2669 135.167L71.3464 135.246C71.3707 135.274 71.3983 135.298 71.426 135.325L71.5021 135.404L71.5816 135.484L71.6611 135.559L71.7407 135.639L71.8168 135.718L71.8963 135.797L71.9758 135.873L72.0554 135.952L72.1315 136.031C72.1591 136.059 72.1868 136.083 72.211 136.111L72.2905 136.186L72.3701 136.266L72.4496 136.345L72.5257 136.424L72.6052 136.503L72.6848 136.579L72.7643 136.658L72.8404 136.737L72.9199 136.817L72.9994 136.892L73.079 136.972L73.1585 137.051L73.2346 137.13C73.2628 137.155 73.2894 137.181 73.3141 137.209L73.3937 137.285L73.4732 137.364L73.5493 137.443L73.6288 137.523L73.7084 137.598L73.7879 137.678L73.864 137.757C73.8917 137.784 73.9193 137.809 73.9435 137.836L74.0231 137.912C74.5344 138.435 75.076 138.929 75.6449 139.389C77.9721 141.239 80.6793 142.556 83.5745 143.247C85.5275 143.717 87.5307 143.948 89.5398 143.936C90.7757 143.933 92.0103 143.855 93.2366 143.702C96.5309 143.317 99.7353 142.376 102.712 140.919C105.557 139.52 108.132 137.634 110.32 135.346C112.46 133.1 114.171 130.484 115.369 127.627L115.417 127.496L115.476 127.552L115.552 127.631L115.632 127.71C115.66 127.735 115.686 127.761 115.711 127.789L115.791 127.865L115.87 127.944L115.946 128.023L116.026 128.103L116.105 128.178L116.185 128.258L116.261 128.337C116.289 128.364 116.316 128.389 116.341 128.416L116.42 128.492C116.445 128.52 116.471 128.546 116.5 128.571L116.579 128.65L116.655 128.729C116.684 128.754 116.71 128.781 116.735 128.809L116.814 128.884L116.894 128.964L116.97 129.043C116.998 129.07 117.025 129.095 117.05 129.122L117.129 129.198L117.209 129.277L117.285 129.356L117.364 129.436L117.444 129.511C117.471 129.539 117.496 129.566 117.523 129.591C117.551 129.615 117.575 129.642 117.603 129.67L117.679 129.749L117.758 129.828L117.838 129.904L117.918 129.983L117.994 130.062L118.073 130.142L118.153 130.217C118.177 130.246 118.204 130.272 118.232 130.297L118.308 130.376L118.388 130.455L118.467 130.534L118.547 130.61L118.626 130.689L118.703 130.769C118.73 130.796 118.758 130.82 118.782 130.848L118.862 130.923C118.886 130.952 118.913 130.978 118.941 131.003L119.017 131.082L119.097 131.161L119.176 131.237C119.204 131.264 119.228 131.292 119.256 131.316C119.284 131.34 119.308 131.368 119.335 131.395L119.411 131.475C119.44 131.499 119.466 131.526 119.491 131.554L119.571 131.63L119.65 131.709L119.726 131.788L119.806 131.867L119.885 131.943C119.91 131.971 119.937 131.998 119.965 132.022C119.989 132.05 120.017 132.074 120.044 132.101L120.12 132.181L120.2 132.26L120.279 132.336C120.785 132.857 121.322 133.347 121.888 133.803C124.19 135.635 126.871 136.937 129.738 137.616C131.662 138.081 133.636 138.312 135.616 138.305C136.845 138.303 138.073 138.226 139.292 138.074C142.515 137.653 145.669 136.816 148.674 135.584C151.075 134.626 153.364 133.413 155.501 131.964H155.525V132.053H155.605V132.139H155.684V132.225H155.76V132.315H155.84V132.405H155.919V132.494H155.999V132.58H156.075V132.604H156.154V132.694H156.234V132.783H156.314V132.869H156.39V132.956H156.469V133.045H156.549V133.135H156.628V133.221H156.708V133.307H156.784V133.293H156.863V133.383H156.943V133.472H157.022V133.558H157.099V133.638H157.178V133.727H157.258V133.817H157.337V133.903H157.413V133.989H157.493V134.078H157.572V134.168H157.652V134.258H157.731V134.344H157.807V134.326H157.887V134.416H157.967V134.506H158.046V134.592H158.122V134.678H158.202V134.767H158.281V134.857H158.361V134.943L195.685 130.379V115.076H195.605V114.997ZM61.7742 106.459L61.6947 106.383L61.6152 106.304L61.5391 106.225L61.4596 106.145L61.38 106.07L61.3005 105.99L61.2244 105.911C61.1967 105.884 61.1691 105.86 61.1449 105.832L61.0653 105.753L60.9858 105.677L60.9062 105.598L60.8302 105.519L60.7506 105.439L60.6711 105.364C60.6469 105.336 60.6192 105.312 60.5916 105.284L60.5155 105.205L60.4359 105.126L60.3564 105.05L60.2769 104.971L60.2008 104.892L60.1212 104.812L60.0417 104.733L59.9622 104.658C59.938 104.63 59.9103 104.606 59.8826 104.578L59.8066 104.499L59.727 104.42L59.6613 104.358L63.7039 103.862C63.2064 104.731 62.7618 105.629 62.3725 106.552C62.3206 106.669 62.2757 106.793 62.2273 106.914L62.1685 106.852L62.0889 106.776L62.0094 106.697L61.9333 106.617L61.8538 106.538C61.833 106.511 61.8088 106.486 61.7812 106.459H61.7742ZM107.567 100.152L107.488 100.073L107.412 99.994L107.332 99.9182L107.253 99.839L107.173 99.7598L107.093 99.6805L107.017 99.6013L106.938 99.5255L106.858 99.4463C106.834 99.4188 106.806 99.3947 106.779 99.3671L106.703 99.2879L106.623 99.2121L106.544 99.1329L106.464 99.0537L106.385 98.9745L106.308 98.8952L106.229 98.8195L106.149 98.7402L106.07 98.661L105.994 98.5818L105.914 98.506C105.887 98.4785 105.862 98.4509 105.835 98.4268L105.755 98.3476L105.679 98.2684L105.6 98.1926L105.52 98.1134C105.496 98.0858 105.468 98.0617 105.44 98.0342L105.361 97.955L105.285 97.8757L105.205 97.8L105.126 97.7208C105.102 97.6932 105.074 97.6691 105.046 97.6415L104.97 97.5623L104.891 97.4865L104.811 97.4073L104.732 97.3281L104.655 97.2489L104.576 97.1697L104.496 97.0939L104.417 97.0147C104.393 96.9871 104.365 96.963 104.337 96.9355L104.261 96.8562L104.182 96.7805L104.102 96.7013L104.023 96.622L103.947 96.5428L103.867 96.467L103.787 96.3878L103.708 96.3086C103.197 95.7854 102.656 95.2931 102.086 94.8344C101.323 94.2209 100.514 93.667 99.6654 93.1778V90.0263L99.7207 90.0779L99.8002 90.1571L99.8798 90.2329L99.9558 90.3121L100.035 90.3913L100.115 90.4706L100.194 90.5463L100.271 90.6256C100.298 90.6531 100.326 90.6772 100.35 90.7048L100.43 90.784L100.509 90.8632L100.589 90.939L100.665 91.0182L100.744 91.0974L100.824 91.1766L100.903 91.2524L100.979 91.3316L101.059 91.4109L101.139 91.4901L101.218 91.5658L101.294 91.6451L101.374 91.7243C101.401 91.7518 101.429 91.7759 101.453 91.8035C101.477 91.8311 101.505 91.8552 101.533 91.8827L101.612 91.9585L101.688 92.0377L101.768 92.1169L101.847 92.1961L101.927 92.2719L102.003 92.3511L102.083 92.4304L102.162 92.5096L102.242 92.5888L102.321 92.6646L102.397 92.7438L102.477 92.823L102.556 92.9022L102.636 92.978C103.07 93.4235 103.532 93.8411 104.019 94.2283C105.901 95.7265 108.084 96.8058 110.42 97.3935C109.748 98.4941 109.164 99.6458 108.674 100.838C108.632 100.934 108.598 101.034 108.56 101.134L108.529 101.103L108.453 101.024L108.373 100.948C108.345 100.92 108.321 100.893 108.293 100.869L108.214 100.79L108.134 100.71L108.058 100.631L107.979 100.555L107.899 100.476L107.82 100.397L107.744 100.318L107.664 100.242L107.567 100.152ZM119.858 52.2048V52.2909H119.937V52.377H120.017V52.4665H120.096V52.5561H120.176V52.6456H120.252V52.6973C119.992 52.5974 119.733 52.4975 119.463 52.4114C119.194 52.3253 118.948 52.2495 118.682 52.1738C119.055 52.0188 119.422 51.8569 119.782 51.6812V52.2633L119.858 52.2048ZM150.369 90.4775L150.289 90.3982L150.213 90.319L150.134 90.2432L150.054 90.164L149.975 90.0848C149.629 89.761 149.283 89.4476 148.937 89.1514V88.5969H148.955V88.6864H149.034V88.7725H149.114V88.8586H149.193V88.9482H149.269V89.0378H149.349V89.1273H149.428V89.2134H149.508V89.303H149.584V89.3925H149.663V89.4821H149.743V89.5682H149.823V89.5509H149.902V89.6405H149.978V89.73H150.058V89.8162H150.137V89.9023H150.217V89.9918H150.293V90.0814H150.372V90.1709H150.393V90.5842L150.369 90.4775ZM66.1177 98.8505L66.1523 98.8952H66.1696L66.2284 98.9745H66.2491L66.3079 99.0537H66.3287L66.3874 99.1329L66.4497 99.2156H66.467L66.5258 99.2982H66.5465L66.6053 99.3774H66.6503L66.709 99.4567L66.7713 99.5393H66.7886V99.5565C66.55 99.8218 66.3183 100.094 66.0969 100.369L66.1177 98.8505ZM43.3388 120.866L43.8782 120.801C43.7793 121.056 43.6638 121.304 43.5324 121.545C43.4667 121.672 43.3941 121.8 43.3215 121.92L43.3388 120.866ZM88.8586 116.609C89.2303 116.176 89.6543 115.791 90.1208 115.462C89.8344 116.24 89.4156 116.962 88.8828 117.598C88.5108 118.032 88.0856 118.419 87.6171 118.748C87.9064 117.971 88.3262 117.249 88.8586 116.613V116.609Z" fill="#42210B"/>
<path d="M26.4353 63.9222C25.0483 63.921 23.6626 63.8382 22.2855 63.6742C19.3772 63.3297 16.9115 62.6719 14.9507 61.7316L12.5853 60.5984L18.0285 47.6583C16.9287 46.8744 16.0043 45.8717 15.3138 44.7135C14.3836 43.1739 13.9133 41.2348 13.9133 38.9547C13.9176 36.3537 14.6713 33.8087 16.085 31.6218C17.4925 29.3934 19.5812 27.4887 22.2889 25.9732C24.9102 24.4991 28.1678 23.5175 31.9718 23.0525C33.3635 22.8813 34.7643 22.795 36.1666 22.7942C37.204 22.7942 38.2415 22.8424 39.2789 22.9388C41.6203 23.1363 43.9147 23.7073 46.0742 24.63L48.4949 25.6977L43.5048 38.2314L44.02 38.4966C45.5451 39.3226 46.8213 40.5389 47.7168 42.0201C48.654 43.5493 49.1312 45.4643 49.1312 47.7203C49.1215 50.307 48.3666 52.8365 46.956 55.0084C45.552 57.2299 43.4979 59.1415 40.7936 60.6708C38.1827 62.1621 34.9147 63.1575 31.0865 63.6259C29.5435 63.8174 27.9902 63.9163 26.4353 63.9222Z" fill="#FFA200"/>
<path d="M62.7218 59.5652C58.3611 59.5652 54.7369 58.3803 51.9566 56.0417C48.4431 53.0865 46.6621 48.6399 46.6621 42.8226V22.0158L63.4999 19.9492V41.097C63.4999 43.7698 64.0843 44.4001 64.1086 44.4242C64.2368 44.5519 64.3924 44.6492 64.5636 44.7088C64.7348 44.7685 64.9173 44.7889 65.0976 44.7686C65.2398 44.7691 65.382 44.7599 65.5229 44.741C65.8939 44.7189 66.2559 44.618 66.5845 44.4451C66.9131 44.2723 67.2008 44.0314 67.4284 43.7388C67.7223 43.3564 68.2169 42.3404 68.2169 39.8364V19.3809L84.8645 17.3453V38.8272C84.8645 44.5068 83.1665 49.2289 79.8225 52.8557C76.4784 56.4825 71.8894 58.6421 66.1005 59.3482C64.9798 59.4894 63.8514 59.5619 62.7218 59.5652Z" fill="#FFA200"/>
<path d="M84.5048 17.3867L103.075 15.1169C104.2 14.9756 105.333 14.9032 106.468 14.8999C108.473 14.8788 110.47 15.1705 112.385 15.7644C115.075 16.5742 117.425 18.2387 119.076 20.5037C120.656 22.7115 121.459 25.429 121.459 28.5771C121.498 31.516 120.71 34.407 119.183 36.9225C117.634 39.4063 115.476 41.4577 112.914 42.8846C110.085 44.4517 106.968 45.4357 103.75 45.7778L101.329 46.0705V54.2782L84.4944 56.3448L84.5048 17.3867ZM101.339 31.8526L102.356 31.7286C103.22 31.6218 103.874 31.3842 104.154 31.0983C104.293 30.9465 104.398 30.7669 104.462 30.5715C104.526 30.3761 104.547 30.1694 104.524 29.9651C104.546 29.7641 104.51 29.5609 104.42 29.3796C104.195 29.3181 103.962 29.2925 103.729 29.3038C103.489 29.3043 103.25 29.3204 103.013 29.352L101.322 29.5587L101.339 31.8526Z" fill="#FFA200"/>
<path d="M119.616 13.0951L152.402 9.08597V23.1282L150.438 23.3693V34.2291L153.025 33.9122V47.9545L119.616 52.0429V13.0951Z" fill="#FFA200"/>
<path d="M151.853 9.15141L170.423 6.88852C171.548 6.74727 172.681 6.67481 173.815 6.67153C175.821 6.64682 177.817 6.93622 179.732 7.52916C182.422 8.33897 184.773 10.0035 186.424 12.2685C188.004 14.4762 188.806 17.1938 188.806 20.3418C188.847 23.276 188.057 26.1622 186.528 28.6701C185.718 29.9764 184.723 31.1596 183.574 32.1832L191.822 43.2049L173.418 45.4643L168.687 39.058V46.0395L151.853 48.1061V9.15141ZM168.687 23.6001L169.704 23.4761C170.568 23.3693 171.222 23.1317 171.502 22.8458C171.637 22.6966 171.74 22.521 171.804 22.3301C171.868 22.1391 171.891 21.9371 171.872 21.7368C171.894 21.5357 171.858 21.3326 171.768 21.1512C171.544 21.087 171.31 21.0602 171.076 21.072C170.837 21.0742 170.598 21.0903 170.361 21.1202L168.67 21.3269L168.687 23.6001Z" fill="#FFA200"/>
<path d="M41.8311 60.502L59.4366 58.3493C60.501 58.2149 61.5728 58.1459 62.6457 58.1427C64.5493 58.1218 66.4443 58.3984 68.2618 58.9624C70.8251 59.7362 73.0644 61.323 74.6387 63.4813C76.143 65.5857 76.9072 68.1724 76.9072 71.1689C76.9467 73.96 76.1951 76.7057 74.739 79.0907C73.9964 80.2894 73.0897 81.379 72.045 82.3283L79.8778 92.8058L62.1962 94.9688L58.0049 89.2651V95.4648L41.8449 97.4418L41.8311 60.502ZM58.0049 74.0517L58.7761 73.9553C59.9069 73.8175 60.2804 73.5075 60.3668 73.4146C60.4794 73.289 60.5646 73.1415 60.617 72.9814C60.6694 72.8213 60.6878 72.6521 60.6711 72.4846C60.6754 72.3477 60.6603 72.2109 60.6262 72.0782C60.4538 72.0391 60.2772 72.0217 60.1005 72.0265C59.8831 72.0275 59.6659 72.0425 59.4504 72.0713L58.0049 72.2469V74.0517Z" fill="#FFA200"/>
<path d="M75.3821 56.3964L91.5421 54.4229V91.373L75.3821 93.3465V56.3964Z" fill="#FFA200"/>
<path d="M107.509 89.9539C105.837 89.9618 104.17 89.7664 102.546 89.3719C100.111 88.7975 97.8353 87.6916 95.8822 86.1342C93.9723 84.5882 92.4508 82.62 91.4384 80.3858C90.3754 77.9848 89.8447 75.3839 89.8822 72.7602C89.8672 70.0713 90.3818 67.4057 91.3969 64.9141C92.3889 62.5082 93.8193 60.3058 95.6159 58.4182C97.4456 56.5053 99.6026 54.932 101.986 53.7719C104.468 52.5662 107.135 51.7849 109.877 51.4608C110.954 51.3286 112.037 51.2607 113.121 51.2576C115.218 51.2385 117.304 51.5536 119.301 52.191C122.096 53.0809 124.582 54.7364 126.477 56.9682L128.102 58.8901L117.537 69.5673L115.576 67.3492C114.986 66.6551 114.254 66.094 113.429 65.7028C112.919 65.4798 112.367 65.3694 111.81 65.3791C111.572 65.3803 111.334 65.3964 111.098 65.4273C110.375 65.5051 109.672 65.7128 109.023 66.0404C108.456 66.3323 107.953 66.7339 107.543 67.2218C107.09 67.7621 106.739 68.3793 106.506 69.0438C106.243 69.8202 106.114 70.6355 106.125 71.4548C106.105 72.1999 106.223 72.9422 106.471 73.6453C106.646 74.135 106.93 74.5789 107.301 74.9438C107.627 75.2473 108.024 75.4641 108.456 75.5741C108.828 75.673 109.212 75.7205 109.597 75.7153C109.865 75.7144 110.133 75.6972 110.4 75.6637C111.33 75.5663 112.221 75.237 112.99 74.7062C113.928 74.0312 114.746 73.2047 115.41 72.2607L117.081 69.9634L128.147 78.4535L126.608 80.6131C124.817 83.1283 122.502 85.228 119.82 86.768C116.966 88.3849 113.811 89.4046 110.548 89.7645C109.539 89.8894 108.522 89.9526 107.505 89.9539H107.509Z" fill="#FFA200"/>
<path d="M124.651 50.3724L140.811 48.3954V59.5204L145.095 58.9969V47.8719L161.255 45.8949V82.845L145.095 84.822V73.2492L140.811 73.7728V85.3455L124.651 87.3225V50.3724Z" fill="#FFA200"/>
<path d="M16.787 99.467L38.0616 96.8631C39.4497 96.6905 40.8471 96.6019 42.246 96.5979C45.0792 96.5692 47.8966 97.0223 50.5767 97.9377C54.1917 99.1498 57.3236 101.48 59.5161 104.589C61.6567 107.654 62.7425 111.477 62.7425 115.955C62.7425 120.432 61.7051 124.403 59.6302 127.889C57.5416 131.38 54.6041 134.292 51.0885 136.355C47.3083 138.558 43.1038 139.942 38.7498 140.416L16.8008 143.102L16.787 99.467ZM35.2121 125.299L37.5152 125.017C38.8046 124.885 40.0485 124.47 41.1567 123.801C42.1033 123.213 42.871 122.38 43.3768 121.39C43.9631 120.196 44.2491 118.878 44.2102 117.549C44.2102 116.151 43.9578 115.035 43.4667 114.229C43.0528 113.528 42.4075 112.991 41.6408 112.71C40.9303 112.456 40.1791 112.332 39.4241 112.345C39.0114 112.347 38.5991 112.373 38.1896 112.424L35.2121 112.789V125.299Z" fill="#FFA200"/>
<path d="M81.4132 135.849C79.404 135.861 77.4008 135.63 75.4478 135.16C72.5526 134.469 69.8454 133.152 67.5183 131.302C65.2629 129.479 63.4596 127.164 62.248 124.534C60.9757 121.738 60.337 118.697 60.3772 115.627C60.3598 112.458 60.9819 109.318 62.2065 106.393C63.4079 103.548 65.1174 100.943 67.252 98.7058C69.4461 96.4119 72.0313 94.5239 74.8876 93.1295C77.8715 91.6714 81.0827 90.7292 84.3837 90.3431C85.6066 90.19 86.8377 90.1118 88.0701 90.1089C90.078 90.1014 92.0791 90.3397 94.0286 90.8184C96.9101 91.511 99.6048 92.8229 101.924 94.6622C104.17 96.4782 105.973 98.7797 107.194 101.392C108.473 104.203 109.113 107.261 109.068 110.347C109.079 113.505 108.459 116.634 107.242 119.551C106.044 122.407 104.333 125.023 102.193 127.269C100.005 129.557 97.43 131.443 94.5853 132.842C91.6086 134.299 88.4043 135.24 85.1099 135.625C83.8836 135.778 82.6491 135.856 81.4132 135.859V135.849ZM85.8569 106.139C85.5887 106.139 85.3207 106.156 85.0546 106.19C84.2233 106.287 83.4181 106.54 82.6823 106.938C81.9401 107.341 81.2789 107.877 80.7319 108.519C80.15 109.213 79.7011 110.008 79.4074 110.864C79.064 111.881 78.8956 112.949 78.9095 114.022C78.8858 115.019 79.0452 116.011 79.3798 116.95C79.6176 117.603 80.0034 118.192 80.5071 118.672C80.9736 119.106 81.5365 119.423 82.1498 119.599C82.6146 119.735 83.097 119.802 83.5814 119.798C83.8485 119.798 84.1153 119.781 84.3803 119.747C85.2133 119.653 86.0201 119.399 86.756 118.999C87.5003 118.597 88.1629 118.059 88.7099 117.415C89.2926 116.723 89.7406 115.929 90.0309 115.073C90.3763 114.055 90.5447 112.986 90.5289 111.911C90.5532 110.916 90.395 109.925 90.062 108.987C89.8241 108.328 89.4372 107.733 88.9312 107.248C88.4642 106.816 87.9014 106.499 87.2886 106.325C86.8232 106.193 86.3407 106.13 85.8569 106.139Z" fill="#FFA200"/>
<path d="M127.483 130.214C125.503 130.221 123.529 129.99 121.604 129.525C118.739 128.847 116.059 127.546 113.757 125.716C111.512 123.897 109.723 121.582 108.532 118.955C107.277 116.119 106.652 113.047 106.699 109.948C106.678 106.761 107.287 103.601 108.491 100.648C109.67 97.786 111.379 95.17 113.529 92.9367C115.727 90.6626 118.314 88.7966 121.168 87.4258C124.19 85.985 127.43 85.0538 130.758 84.6704C132.098 84.5044 133.447 84.4193 134.797 84.4155C137.247 84.3912 139.688 84.7289 142.038 85.4178C145.334 86.3816 148.304 88.2241 150.625 90.7461L152.392 92.6852L143.055 102.03L150.262 101.148V121.696L149.224 122.523C146.591 124.584 143.674 126.257 140.562 127.49C137.556 128.722 134.402 129.559 131.18 129.98C129.953 130.134 128.719 130.212 127.483 130.214ZM133.158 100.369C131.769 100.381 130.4 100.695 129.146 101.289C128.354 101.674 127.648 102.215 127.071 102.88C126.479 103.576 126.021 104.375 125.719 105.236C125.375 106.241 125.208 107.298 125.225 108.36C125.206 109.319 125.366 110.273 125.695 111.174C125.935 111.844 126.329 112.448 126.847 112.938C127.347 113.391 127.947 113.719 128.6 113.895C129.116 114.035 129.649 114.104 130.184 114.098C130.538 114.097 130.891 114.074 131.242 114.029C132.016 113.934 132.777 113.754 133.51 113.492V103.197L138.207 102.639C137.424 101.834 136.482 101.201 135.44 100.779C134.712 100.502 133.938 100.363 133.158 100.369Z" fill="#FFA200"/>
<path d="M150.234 83.1446L186.849 78.6671V93.9045L184.608 94.18V107.341L187.558 106.982V122.216L150.234 126.783V83.1446Z" fill="#FFA200"/>
<path d="M34.7694 50.9752C34.9066 50.84 35.0155 50.6791 35.0897 50.5017C35.1639 50.3244 35.202 50.134 35.2017 49.9419C35.2017 49.3403 34.8663 48.904 34.1954 48.6331C33.3406 48.3243 32.4466 48.1365 31.5395 48.0751C30.4375 47.9718 29.2318 47.865 27.9223 47.7548C26.594 47.6487 25.2738 47.4589 23.9696 47.1865C22.6979 46.9233 21.4713 46.4778 20.3281 45.8639C19.2262 45.2665 18.3081 44.3819 17.6723 43.3048C17.0014 42.1923 16.6659 40.7491 16.6659 38.965C16.6665 36.8885 17.2667 34.8559 18.395 33.1097C19.5616 31.2728 21.3022 29.6999 23.6169 28.3911C25.9315 27.0823 28.8133 26.2212 32.2623 25.8079C34.487 25.5313 36.7354 25.4966 38.9676 25.7046C41.0145 25.8716 43.0207 26.3671 44.9088 27.1718L41.5094 35.7446C39.9621 35.1406 38.354 34.7041 36.7129 34.4427C35.2137 34.2201 33.6913 34.1981 32.1862 34.3772C31.3005 34.4607 30.4304 34.6635 29.5995 34.98C29.066 35.1668 28.5897 35.487 28.2162 35.9099C27.9587 36.2193 27.8148 36.6069 27.8081 37.0087C27.8081 37.5804 28.1436 37.9926 28.8145 38.2451C29.6733 38.5354 30.5681 38.7069 31.4738 38.7549C32.5735 38.8444 33.7862 38.934 35.1118 39.0236C36.4475 39.1238 37.7742 39.3195 39.0818 39.6091C40.3441 39.8777 41.562 40.323 42.699 40.9317C43.7981 41.5248 44.7167 42.4016 45.3583 43.4701C46.0292 44.5654 46.3647 45.9867 46.3647 47.7341C46.355 49.8015 45.7475 51.8224 44.6148 53.5549C43.4483 55.3919 41.7192 56.9716 39.4276 58.2942C37.136 59.6168 34.2461 60.4871 30.758 60.905C28.0549 61.2455 25.3204 61.2594 22.614 60.9463C19.9973 60.6294 17.8417 60.0657 16.1472 59.2552L19.7783 50.5963C21.4791 51.3557 23.2752 51.8829 25.1177 52.1634C27.0105 52.4787 28.9388 52.5239 30.8444 52.2978C31.7146 52.2109 32.5734 52.0343 33.4069 51.7708C33.9175 51.6157 34.3842 51.3431 34.7694 50.9752ZM53.7409 53.9269C56.6158 56.3448 60.6227 57.238 65.7615 56.6065C70.9003 55.9751 74.9083 54.1014 77.7855 50.9855C80.6604 47.8673 82.0979 43.8122 82.0979 38.8203V20.459L70.9833 21.816V39.8502C70.9833 42.3943 70.528 44.2554 69.6174 45.4333C69.1685 46.0182 68.6026 46.5038 67.9556 46.8595C67.3085 47.2152 66.5944 47.4333 65.8583 47.4999C64.2929 47.6928 63.048 47.3128 62.1235 46.3598C61.199 45.4069 60.7379 43.6584 60.7403 41.1142V23.0766L49.4286 24.4543V42.8226C49.4286 47.8145 50.866 51.5182 53.7409 53.9338V53.9269ZM98.5726 51.8328L87.2713 53.2105V19.8011L103.411 17.8275C106.539 17.4464 109.246 17.6243 111.53 18.3614C113.656 18.9892 115.516 20.2948 116.825 22.0778C118.07 23.8206 118.692 25.979 118.692 28.553C118.732 30.9848 118.085 33.3787 116.825 35.4622C115.515 37.5522 113.693 39.2766 111.53 40.4736C109.026 41.8705 106.264 42.748 103.411 43.0533L98.5691 43.6423L98.5726 51.8328ZM102.695 26.6242L98.5726 27.1271V34.949L102.695 34.4427C104.258 34.2521 105.411 33.7607 106.153 32.9685C106.917 32.1572 107.326 31.0769 107.291 29.9651C107.291 28.7562 106.917 27.8503 106.167 27.2407C105.416 26.6311 104.258 26.4313 102.695 26.6242ZM150.258 37.0259L133.493 39.0924V34.6872L147.672 32.9651V24.8435L133.493 26.5656V22.6667L149.646 20.6897V12.1996L122.382 15.5336V48.943L150.258 45.5332V37.0259ZM165.92 43.6044L154.619 44.9821V11.5727L170.758 9.59918C173.887 9.21571 176.593 9.39367 178.878 10.133C181.005 10.7596 182.865 12.0656 184.173 13.8494C185.417 15.5922 186.04 17.7506 186.04 20.3246C186.082 22.7502 185.435 25.1383 184.173 27.2132C183.053 29.0093 181.534 30.5249 179.732 31.6425L186.77 41.0557L174.697 42.5298L169.012 34.8284L165.931 35.2073L165.92 43.6044ZM170.049 18.3855L165.927 18.8918V26.7137L170.049 26.2109C171.612 26.018 172.765 25.5266 173.508 24.7367C174.266 23.9241 174.67 22.8454 174.631 21.7368C174.631 20.529 174.257 19.6208 173.508 19.0124C172.758 18.4039 171.606 18.1949 170.049 18.3855ZM68.2064 81.7945L74.8219 90.6428L63.4757 92.0205L58.1293 84.7875L55.2314 85.132V93.0262L44.6045 94.3247V62.9371L59.7823 61.0841C62.7241 60.7236 65.2681 60.8901 67.4145 61.5835C69.4135 62.179 71.1599 63.4137 72.3839 65.0967C73.5551 66.7338 74.1406 68.7636 74.1406 71.1861C74.1799 73.4653 73.5709 75.7089 72.3839 77.6579C71.3239 79.3364 69.8926 80.7512 68.1995 81.7945H68.2064ZM59.1045 69.3297L55.2383 69.8015V77.1516L59.1115 76.6797C60.5846 76.4972 61.6705 76.0357 62.3794 75.302C63.0913 74.5372 63.4715 73.5235 63.4376 72.4812C63.4376 71.3446 63.0918 70.4904 62.3794 69.9186C61.667 69.3469 60.5708 69.1506 59.0976 69.3297H59.1045ZM78.1487 90.2398L88.7825 88.9344V57.5365L78.1556 58.835L78.1487 90.2398ZM118.433 84.3846C120.773 83.0431 122.792 81.2123 124.353 79.0184L117.644 73.8727C116.8 75.0723 115.757 76.1204 114.56 76.9725C113.429 77.7542 112.123 78.2464 110.756 78.4053C109.749 78.5472 108.724 78.4886 107.74 78.2331C106.871 78.0038 106.074 77.5622 105.42 76.9484C104.75 76.3024 104.235 75.515 103.912 74.6442C103.537 73.6244 103.354 72.5442 103.373 71.4582C103.361 70.329 103.544 69.2061 103.912 68.1379C104.249 67.1639 104.76 66.2584 105.42 65.4652C106.063 64.7015 106.852 64.0718 107.74 63.6122C108.682 63.1305 109.704 62.8235 110.756 62.7063C112.045 62.5169 113.362 62.6886 114.56 63.2023C115.744 63.7528 116.796 64.5503 117.644 65.541L124.353 58.7523C122.791 56.9105 120.739 55.5449 118.433 54.8121C116.047 54.0291 113.307 53.8259 110.213 54.2024C107.779 54.4867 105.412 55.1784 103.21 56.2483C101.119 57.2628 99.228 58.6416 97.625 60.3195C96.0655 61.959 94.8259 63.8733 93.9698 65.9646C93.0888 68.1219 92.6446 70.4313 92.6626 72.7602C92.6221 74.9885 93.0681 77.199 93.9698 79.2388C94.803 81.088 96.0596 82.717 97.6389 83.9953C99.277 85.2965 101.184 86.2199 103.224 86.6991C105.517 87.2399 107.891 87.3566 110.227 87.0435C113.115 86.7221 115.907 85.8173 118.433 84.3846ZM158.489 80.4064V49.0119L147.862 50.3104V61.4354L138.044 62.634V51.5125L127.417 52.811V84.2089L138.044 82.9104V71.3377L147.862 70.1356V81.7084L158.489 80.4064ZM57.244 106.163C59.0653 108.767 59.976 112.028 59.976 115.948C59.976 119.902 59.0653 123.413 57.244 126.48C55.3883 129.586 52.7704 132.171 49.6361 133.992C46.3923 135.933 42.6414 137.162 38.3832 137.681L19.5362 139.985V101.902L38.3832 99.5979C42.6437 99.0789 46.3946 99.3912 49.6361 100.535C52.7122 101.55 55.3793 103.523 57.244 106.163ZM46.9768 117.529C46.9768 115.607 46.5941 114.021 45.8286 112.772C45.0965 111.552 43.9698 110.616 42.6333 110.117C41.1014 109.579 39.4599 109.425 37.8541 109.669L32.4455 110.33V128.392L37.8541 127.731C39.5484 127.553 41.1813 126.999 42.6333 126.112C43.9921 125.264 45.096 124.067 45.8286 122.647C46.6235 121.062 47.0176 119.307 46.9768 117.536V117.529ZM104.69 102.563C105.797 105.004 106.348 107.659 106.302 110.337C106.316 113.132 105.768 115.902 104.69 118.483C103.625 121.032 102.102 123.367 100.194 125.371C98.231 127.424 95.9188 129.115 93.3646 130.366C90.6715 131.687 87.7707 132.539 84.7883 132.883C81.9058 133.279 78.9746 133.14 76.1429 132.473C73.6305 131.891 71.2797 130.76 69.2612 129.16C67.3344 127.603 65.7958 125.622 64.7656 123.374C63.662 120.941 63.1117 118.296 63.154 115.627C63.1305 112.826 63.6751 110.048 64.7552 107.461C65.8238 104.921 67.3471 102.595 69.2508 100.597C71.2198 98.5391 73.5406 96.8469 76.1049 95.5991C78.8085 94.2788 81.718 93.4262 84.7088 93.0779C87.5914 92.6808 90.523 92.821 93.3542 93.4912C95.851 94.0817 98.1865 95.213 100.194 96.8046C102.114 98.3579 103.652 100.328 104.69 102.563ZM93.2954 111.939C93.3215 110.603 93.0999 109.274 92.6418 108.019C92.2516 106.973 91.6258 106.031 90.8125 105.264C90.0327 104.548 89.0979 104.02 88.0805 103.721C86.989 103.409 85.8443 103.327 84.7192 103.48C83.5418 103.617 82.4018 103.978 81.3613 104.544C80.3221 105.106 79.396 105.855 78.6293 106.752C77.8255 107.702 77.2053 108.793 76.8 109.969C76.3499 111.282 76.1277 112.662 76.1429 114.05C76.1179 115.385 76.3406 116.712 76.8 117.966C77.1889 119.013 77.8149 119.955 78.6293 120.722C79.4084 121.439 80.3434 121.967 81.3613 122.265C82.4513 122.578 83.5953 122.66 84.7192 122.506C85.8978 122.369 87.039 122.008 88.0805 121.441C89.1189 120.878 90.0448 120.13 90.8125 119.234C91.6157 118.283 92.2359 117.192 92.6418 116.017C93.0905 114.704 93.3115 113.325 93.2954 111.939ZM124.979 101.1C125.79 100.157 126.784 99.3874 127.901 98.8367C129.109 98.2428 130.412 97.8628 131.75 97.7139C133.324 97.49 134.929 97.6581 136.422 98.2029C137.903 98.7921 139.235 99.6974 140.326 100.855L148.574 92.6095C146.589 90.4543 144.049 88.8829 141.229 88.0665C138.257 87.1618 134.88 86.9402 131.097 87.4017C128.072 87.7501 125.127 88.5975 122.382 89.9092C119.82 91.1386 117.499 92.8135 115.528 94.8551C113.617 96.8412 112.098 99.1675 111.05 101.713C109.981 104.33 109.443 107.133 109.466 109.958C109.42 112.653 109.96 115.326 111.05 117.794C112.059 120.036 113.584 122.011 115.5 123.56C117.486 125.14 119.8 126.26 122.275 126.839C125.076 127.492 127.974 127.626 130.823 127.235C133.807 126.846 136.726 126.069 139.507 124.924C142.373 123.793 145.059 122.254 147.481 120.356V104.265L136.284 105.643V115.287C136.139 115.362 135.993 115.438 135.848 115.507C134.506 116.154 133.067 116.577 131.588 116.761C130.338 116.939 129.066 116.864 127.846 116.54C126.778 116.247 125.795 115.705 124.979 114.959C124.151 114.184 123.515 113.228 123.122 112.166C122.667 110.948 122.444 109.656 122.465 108.357C122.447 106.978 122.669 105.606 123.122 104.303C123.538 103.127 124.167 102.038 124.979 101.089V101.1ZM165.671 107.437L181.842 105.46V96.2018L165.671 98.1788V93.7185L184.083 91.466V81.7841L153.001 85.5728V123.666L184.792 119.778V110.096L165.671 112.435V107.437Z" fill="url(#paint0_linear_3_510)"/>
<path d="M35.7758 88.064C39.0654 84.4871 39.1577 79.2387 35.9819 76.3413C32.806 73.444 27.5647 73.9948 24.2751 77.5716C20.9855 81.1485 20.8932 86.3969 24.069 89.2943C27.2448 92.1916 32.4861 91.6408 35.7758 88.064Z" fill="#603813" stroke="#42210B" stroke-width="8" stroke-miterlimit="10"/>
<path d="M34.0161 86.3448C37.3058 82.768 37.398 77.5196 34.2222 74.6222C31.0464 71.7248 25.8051 72.2756 22.5155 75.8525C19.2258 79.4293 19.1335 84.6777 22.3093 87.5751C25.4852 90.4725 30.7265 89.9217 34.0161 86.3448Z" fill="url(#paint1_radial_3_510)" stroke="url(#paint2_radial_3_510)" stroke-width="8" stroke-miterlimit="10"/>
<path d="M27.8774 83.2514L28.8941 83.1136C29.2112 83.0766 29.516 82.9695 29.7863 82.8002C30.0401 82.6364 30.2455 82.4081 30.3811 82.1389C30.5261 81.8386 30.5949 81.5074 30.5817 81.1745C30.5904 80.8622 30.5126 80.5536 30.3569 80.2824C30.2156 80.0554 30.0009 79.8829 29.7482 79.7933C29.4594 79.6941 29.1502 79.6692 28.8491 79.721L27.8324 79.8588L27.8774 83.2514ZM25.4982 85.4626L25.4048 78.3054L28.9252 77.8404C29.6338 77.726 30.3594 77.7767 31.0451 77.9885C31.6231 78.1711 32.1272 78.5332 32.4836 79.0218C32.8498 79.5621 33.0383 80.2025 33.0231 80.8542C33.0457 81.5485 32.8771 82.2358 32.5355 82.8415C32.1944 83.4282 31.7104 83.9198 31.128 84.2709C30.4853 84.6576 29.7675 84.9042 29.022 84.9942L25.4982 85.4626Z" fill="#FFC300"/>
<path d="M27.8116 83.1894L28.8283 83.0516C29.1461 83.0151 29.4512 82.9067 29.7205 82.7347C29.975 82.5733 30.1806 82.3459 30.3153 82.0769C30.4603 81.7766 30.5292 81.4455 30.5159 81.1125C30.5246 80.8002 30.4468 80.4916 30.2911 80.2204C30.15 79.9925 29.9354 79.8188 29.6825 79.7279C29.393 79.6322 29.0845 79.6074 28.7834 79.6556L27.7667 79.7933L27.8116 83.1894ZM25.4186 85.4178L25.3252 78.2572L28.8594 77.7784C29.568 77.6624 30.2939 77.7132 30.9793 77.9265C31.557 78.1098 32.0609 78.4717 32.4179 78.9598C32.7841 79.5014 32.9726 80.1428 32.9574 80.7956C32.9795 81.4899 32.8109 82.1771 32.4698 82.783C32.1277 83.3689 31.6439 83.8603 31.0623 84.2123C30.4182 84.5931 29.7005 84.8338 28.9563 84.9184L25.4186 85.4178Z" fill="#FFC300"/>
<path d="M27.7459 83.124L28.7626 82.9862C29.0782 82.9451 29.3806 82.8345 29.6479 82.6624C29.9018 82.4987 30.1071 82.2704 30.2427 82.0011C30.3877 81.7008 30.4566 81.3697 30.4433 81.0367C30.452 80.7245 30.3742 80.4158 30.2185 80.1447C30.0772 79.9176 29.8626 79.7452 29.6099 79.6556C29.3211 79.5564 29.0118 79.5315 28.7107 79.5833L27.694 79.721L27.7459 83.124ZM25.3529 85.3352L25.256 78.1849L28.7937 77.7027C29.5024 77.5885 30.2279 77.6392 30.9136 77.8508C31.4912 78.0342 31.9951 78.3962 32.3522 78.8841C32.7184 79.4244 32.9069 80.0647 32.8917 80.7164C32.9175 81.4098 32.7524 82.097 32.4144 82.7038C32.0734 83.2905 31.5893 83.7821 31.007 84.1331C30.3642 84.5199 29.6464 84.7664 28.9009 84.8564L25.3529 85.3352Z" fill="#FFC300"/>
<path d="M27.6802 83.062L28.6969 82.9242C29.0143 82.8861 29.3192 82.7779 29.5892 82.6073C29.8437 82.4458 30.0493 82.2184 30.184 81.9495C30.3289 81.6491 30.3978 81.318 30.3845 80.9851C30.3938 80.6727 30.316 80.364 30.1598 80.093C30.0186 79.865 29.8041 79.6914 29.5511 79.6005C29.2616 79.5048 28.9532 79.48 28.652 79.5281L27.6353 79.6659L27.6802 83.062ZM25.2872 85.2732L25.1904 78.1125L28.7281 77.6338C29.4366 77.5178 30.1626 77.5685 30.8479 77.7819C31.4256 77.9651 31.9296 78.3271 32.2865 78.8152C32.6528 79.3568 32.8412 79.9982 32.826 80.651C32.8481 81.3453 32.6795 82.0324 32.3384 82.6383C31.9964 83.2243 31.5125 83.7157 30.9309 84.0677C30.2879 84.4533 29.5701 84.6987 28.8249 84.7875L25.2872 85.2732Z" fill="#FFC300"/>
<path d="M27.6145 83.0068L28.6312 82.8691C28.9483 82.8321 29.2532 82.725 29.5234 82.5556C29.7773 82.3919 29.9826 82.1636 30.1182 81.8943C30.2632 81.594 30.3321 81.2629 30.3188 80.9299C30.3275 80.6177 30.2497 80.309 30.094 80.0379C29.9527 79.8108 29.7381 79.6384 29.4854 79.5488C29.1966 79.4496 28.8873 79.4247 28.5863 79.4765L27.5696 79.6142L27.6145 83.0068ZM25.2215 85.218L25.1246 78.0609L28.6623 77.5787C29.371 77.4644 30.0965 77.5151 30.7822 77.7268C31.3603 77.9091 31.8645 78.2713 32.2208 78.76C32.5876 79.3013 32.7762 79.943 32.7603 80.5958C32.7829 81.2902 32.6143 81.9775 32.2727 82.5832C31.9316 83.1699 31.4475 83.6615 30.8652 84.0126C30.2224 84.3993 29.5046 84.6458 28.7592 84.7359L25.2215 85.218Z" fill="#FFC300"/>
<path d="M27.5488 82.9345L28.5655 82.7967C28.8829 82.7587 29.1878 82.6504 29.4577 82.4799C29.7122 82.3184 29.9178 82.091 30.0525 81.822C30.1975 81.5217 30.2664 81.1906 30.2531 80.8576C30.2624 80.5453 30.1846 80.2365 30.0283 79.9655C29.8872 79.7376 29.6726 79.564 29.4197 79.473C29.1302 79.3773 28.8218 79.3525 28.5206 79.4007L27.5039 79.5385L27.5488 82.9345ZM25.1523 85.1423L25.0555 77.9851L28.6105 77.496C29.319 77.38 30.045 77.4307 30.7303 77.6441C31.3087 77.826 31.813 78.1883 32.1689 78.6774C32.5352 79.219 32.7236 79.8604 32.7084 80.5132C32.7313 81.2065 32.5626 81.8927 32.2208 82.4971C31.8798 83.0848 31.3958 83.5775 30.8133 83.9299C30.1704 84.3155 29.4525 84.5609 28.7073 84.6498L25.1523 85.1423Z" fill="#FFC300"/>
<path d="M27.4831 82.8691L28.4998 82.7313C28.8169 82.6943 29.1217 82.5872 29.392 82.4179C29.6484 82.2551 29.8562 82.0267 29.9937 81.7566C30.1387 81.4563 30.2076 81.1251 30.1943 80.7922C30.203 80.4799 30.1253 80.1713 29.9695 79.9001C29.8282 79.6731 29.6136 79.5006 29.3609 79.411C29.0721 79.3118 28.7628 79.2869 28.4618 79.3387L27.4451 79.4765L27.4831 82.8691ZM25.0901 85.0734L24.9932 77.9128L28.5309 77.434C29.2396 77.3198 29.9651 77.3705 30.6508 77.5821C31.2289 77.7645 31.7331 78.1266 32.0894 78.6154C32.4555 79.1557 32.6441 79.796 32.6289 80.4477C32.6515 81.1421 32.4829 81.8294 32.1412 82.4351C31.8002 83.0218 31.3161 83.5134 30.7338 83.8645C30.0904 84.2498 29.3729 84.4962 28.6278 84.5878L25.0901 85.0734Z" fill="#FFC300"/>
<path d="M27.4174 82.8071L28.4341 82.6693C28.7515 82.6312 29.0564 82.523 29.3263 82.3524C29.5801 82.19 29.7855 81.9629 29.9211 81.6946C30.0651 81.3939 30.1339 81.063 30.1217 80.7302C30.131 80.4179 30.0532 80.1091 29.8969 79.8381C29.7593 79.6125 29.55 79.4392 29.3021 79.3456C29.0126 79.2499 28.7042 79.2251 28.403 79.2733L27.3863 79.411L27.4174 82.8071ZM25.0244 85.0148L24.9276 77.8577L28.4653 77.3789C29.1738 77.2629 29.8998 77.3136 30.5851 77.527C31.1635 77.7089 31.6678 78.0712 32.0237 78.5603C32.3895 79.1008 32.5779 79.741 32.5632 80.3926C32.5852 81.0889 32.4141 81.7777 32.0687 82.3834C31.7345 82.9682 31.259 83.4607 30.6854 83.8162C30.0424 84.2019 29.3246 84.4472 28.5794 84.5361L25.0244 85.0148Z" fill="#FFC300"/>
<path d="M27.3517 82.7416L28.3684 82.6039C28.6855 82.5669 28.9903 82.4598 29.2606 82.2904C29.5145 82.1267 29.7198 81.8984 29.8554 81.6291C30.0004 81.3288 30.0692 80.9977 30.056 80.6647C30.0647 80.3525 29.9869 80.0438 29.8312 79.7727C29.6899 79.5456 29.4753 79.3732 29.2226 79.2836C28.9338 79.1844 28.6245 79.1595 28.3234 79.2113L27.3067 79.349L27.3517 82.7416ZM24.9586 84.9529L24.8618 77.7922L28.3995 77.3135C29.1081 77.1992 29.8337 77.2499 30.5194 77.4616C31.0975 77.6439 31.6017 78.0061 31.958 78.4948C32.3241 79.0352 32.5127 79.6755 32.4974 80.3272C32.5207 81.0227 32.3521 81.7113 32.0098 82.318C31.6688 82.9047 31.1847 83.3963 30.6024 83.7474C29.959 84.1327 29.2415 84.3791 28.4963 84.4707L24.9586 84.9529Z" fill="#FFC300"/>
<path d="M27.286 82.6796L28.3027 82.5419C28.6201 82.5038 28.925 82.3955 29.1949 82.225C29.4487 82.0626 29.6541 81.8354 29.7897 81.5671C29.9359 81.2647 30.006 80.9313 29.9938 80.5959C30.0036 80.283 29.9245 79.9738 29.7655 79.7038C29.6236 79.478 29.4091 79.3068 29.1569 79.2181C28.8674 79.1224 28.559 79.0976 28.2578 79.1458L27.2411 79.2836L27.286 82.6796ZM24.893 84.8874L24.8065 77.7302L28.3442 77.2515C29.0528 77.1355 29.7787 77.1862 30.4641 77.3996C31.0424 77.5815 31.5468 77.9437 31.9027 78.4329C32.2684 78.9734 32.4569 79.6135 32.4421 80.2652C32.4657 80.9596 32.297 81.6472 31.9545 82.2525C31.6121 82.8453 31.1242 83.3418 30.5367 83.6957C29.8937 84.0813 29.1759 84.3267 28.4307 84.4155L24.893 84.8874Z" fill="#FFC300"/>
<path d="M24.893 84.8874L24.8065 77.7302L28.3442 77.2515C29.0528 77.1355 29.7787 77.1862 30.4641 77.3996C31.0424 77.5815 31.5468 77.9437 31.9027 78.4329C32.2684 78.9734 32.4569 79.6135 32.4421 80.2652C32.4657 80.9596 32.297 81.6472 31.9545 82.2525C31.6121 82.8453 31.1242 83.3418 30.5367 83.6957C29.8937 84.0813 29.1759 84.3267 28.4307 84.4155L24.893 84.8874ZM27.286 82.6796L28.3027 82.5419C28.6201 82.5038 28.925 82.3955 29.1949 82.225C29.4487 82.0626 29.6541 81.8354 29.7897 81.5671C29.9359 81.2647 30.006 80.9313 29.9938 80.5959C30.0036 80.283 29.9245 79.9738 29.7655 79.7038C29.6236 79.478 29.4091 79.3068 29.1569 79.2181C28.8674 79.1224 28.559 79.0976 28.2578 79.1458L27.2411 79.2836L27.286 82.6796Z" fill="#FFA200"/>
<path d="M183.356 69.881C186.692 66.3473 186.854 61.1006 183.716 58.162C180.579 55.2235 175.331 55.7059 171.994 59.2396C168.658 62.7732 168.497 68.02 171.634 70.9585C174.771 73.8971 180.02 73.4146 183.356 69.881Z" fill="#603813" stroke="#42210B" stroke-width="8" stroke-miterlimit="10"/>
<path d="M181.615 68.1447C184.951 64.611 185.113 59.3643 181.975 56.4257C178.838 53.4872 173.59 53.9696 170.253 57.5033C166.917 61.0369 166.756 66.2837 169.893 69.2222C173.031 72.1608 178.279 71.6783 181.615 68.1447Z" fill="url(#paint3_radial_3_510)" stroke="url(#paint4_radial_3_510)" stroke-width="8" stroke-miterlimit="10"/>
<path d="M175.52 64.9864L176.537 64.8625C176.856 64.8288 177.163 64.724 177.436 64.5559C177.692 64.3973 177.9 64.1723 178.038 63.9049C178.186 63.6065 178.259 63.2768 178.252 62.944C178.264 62.6316 178.189 62.3221 178.038 62.0485C177.899 61.8198 177.687 61.6441 177.436 61.5491C177.147 61.4494 176.839 61.421 176.537 61.4664L175.52 61.5904V64.9864ZM173.099 67.1632V60.006L176.641 59.5858C177.349 59.4779 178.073 59.5381 178.754 59.7615C179.331 59.9528 179.831 60.3234 180.182 60.8189C180.541 61.3639 180.721 62.0066 180.697 62.6581C180.71 63.3527 180.531 64.0375 180.182 64.6386C179.835 65.2234 179.343 65.7096 178.754 66.0507C178.106 66.4256 177.386 66.6603 176.641 66.7396L173.099 67.1632Z" fill="#FFC300"/>
<path d="M175.455 64.921L176.471 64.797C176.79 64.7629 177.097 64.6594 177.37 64.4939C177.624 64.3328 177.832 64.1084 177.972 63.8429C178.12 63.5432 178.194 63.2125 178.186 62.8785C178.198 62.5672 178.124 62.2587 177.972 61.9865C177.834 61.7569 177.622 61.5809 177.37 61.4871C177.082 61.3845 176.773 61.3549 176.471 61.4009L175.455 61.5249V64.921ZM173.034 67.1012V59.9302L176.578 59.4963C177.288 59.3916 178.012 59.4517 178.695 59.6719C179.271 59.8644 179.77 60.2348 180.12 60.7293C180.478 61.2747 180.658 61.9172 180.635 62.5686C180.647 63.2631 180.469 63.9479 180.12 64.549C179.773 65.1329 179.283 65.619 178.695 65.9612C178.046 66.3365 177.325 66.5713 176.578 66.65L173.034 67.1012Z" fill="#FFC300"/>
<path d="M175.392 64.8555L176.406 64.7315C176.724 64.6996 177.032 64.596 177.305 64.4285C177.561 64.2699 177.769 64.0449 177.906 63.7775C178.056 63.4785 178.13 63.1472 178.121 62.8131C178.134 62.5017 178.06 62.1928 177.906 61.921C177.77 61.6902 177.557 61.5137 177.305 61.4216C177.017 61.3188 176.708 61.2892 176.406 61.3355L175.392 61.4629V64.8555ZM172.972 67.0358V59.8751L176.513 59.4412C177.222 59.3365 177.947 59.3966 178.629 59.6168C179.207 59.8091 179.708 60.1809 180.057 60.6776C180.416 61.2229 180.594 61.8657 180.569 62.5169C180.582 63.2111 180.405 63.8958 180.057 64.4973C179.708 65.0799 179.217 65.5655 178.629 65.9095C177.981 66.2864 177.259 66.5212 176.513 66.5983L172.972 67.0358Z" fill="#FFC300"/>
<path d="M175.327 64.7935L176.343 64.6696C176.662 64.6337 176.969 64.5291 177.242 64.363C177.497 64.2034 177.703 63.9785 177.841 63.712C177.992 63.4146 178.067 63.0844 178.059 62.7511C178.071 62.4382 177.996 62.128 177.841 61.8556C177.704 61.6265 177.493 61.4504 177.242 61.3562C176.954 61.2549 176.645 61.2265 176.343 61.2735L175.327 61.3975V64.7935ZM172.906 66.9703V59.8097L176.447 59.3792C177.157 59.271 177.882 59.3312 178.563 59.5548C179.141 59.7459 179.641 60.1166 179.992 60.6122C180.35 61.1575 180.529 61.8003 180.503 62.4514C180.517 63.1457 180.34 63.8304 179.992 64.4319C179.643 65.0152 179.152 65.501 178.563 65.844C177.915 66.221 177.194 66.4558 176.447 66.5329L172.906 66.9703Z" fill="#FFC300"/>
<path d="M175.261 64.7281L176.278 64.6041C176.597 64.5705 176.904 64.4657 177.177 64.2976C177.433 64.139 177.641 63.9139 177.778 63.6466C177.93 63.3491 178.007 63.0194 178.003 62.6857C178.015 62.3733 177.941 62.0638 177.789 61.7902C177.65 61.5615 177.438 61.3857 177.187 61.2908C176.899 61.191 176.59 61.1627 176.288 61.2081L175.271 61.3321L175.261 64.7281ZM172.84 66.9049V59.7477L176.385 59.3137C177.093 59.2058 177.817 59.266 178.498 59.4894C179.076 59.6797 179.576 60.0505 179.926 60.5468C180.285 61.0918 180.465 61.7346 180.441 62.386C180.454 63.0806 180.276 63.7654 179.926 64.3665C179.578 64.9505 179.087 65.4366 178.498 65.7786C177.85 66.1551 177.13 66.3899 176.385 66.4675L172.84 66.9049Z" fill="#FFC300"/>
<path d="M175.195 64.6627L176.212 64.5387C176.53 64.5046 176.837 64.4011 177.111 64.2356C177.365 64.0745 177.572 63.8501 177.713 63.5846C177.861 63.2849 177.934 62.9542 177.927 62.6202C177.939 62.3089 177.865 62.0004 177.713 61.7282C177.576 61.4979 177.363 61.3216 177.111 61.2287C176.823 61.1262 176.514 61.0966 176.212 61.1426L175.195 61.2666V64.6627ZM172.774 66.8429V59.6823L176.316 59.2414C177.025 59.1369 177.75 59.197 178.432 59.4171C179.008 59.6095 179.507 59.9799 179.857 60.4744C180.215 61.0198 180.395 61.6623 180.372 62.3137C180.385 63.0083 180.206 63.6931 179.857 64.2941C179.51 64.878 179.02 65.3641 178.432 65.7063C177.783 66.0811 177.062 66.3158 176.316 66.3951L172.774 66.8429Z" fill="#FFC300"/>
<path d="M175.129 64.5972L176.146 64.4732C176.465 64.4407 176.772 64.3371 177.045 64.1702C177.301 64.0107 177.509 63.7859 177.647 63.5192C177.797 63.22 177.87 62.8889 177.861 62.5548C177.88 62.2409 177.809 61.9282 177.657 61.6524C177.52 61.4221 177.308 61.2458 177.056 61.153C176.768 61.0504 176.459 61.0209 176.157 61.0669L175.14 61.1909L175.129 64.5972ZM172.709 66.7775V59.6168L176.25 59.1829C176.96 59.0782 177.684 59.1383 178.366 59.3585C178.944 59.5508 179.445 59.9226 179.795 60.4193C180.153 60.9646 180.332 61.6074 180.306 62.2586C180.319 62.9527 180.142 63.6373 179.795 64.239C179.445 64.8216 178.954 65.3072 178.366 65.6512C177.717 66.0267 176.996 66.2614 176.25 66.34L172.709 66.7775Z" fill="#FFC300"/>
<path d="M175.067 64.5352L176.084 64.4078C176.403 64.3747 176.71 64.2712 176.983 64.1047C177.237 63.9451 177.444 63.7202 177.581 63.4537C177.732 63.1563 177.807 62.8261 177.799 62.4928C177.812 62.1799 177.736 61.8697 177.581 61.5973C177.444 61.3682 177.233 61.1921 176.983 61.0979C176.695 60.9966 176.386 60.9682 176.084 61.0152L175.067 61.1392V64.5352ZM172.646 66.712V59.5514L176.188 59.1209C176.897 59.0127 177.622 59.0729 178.304 59.2965C178.882 59.4863 179.383 59.8572 179.732 60.3539C180.09 60.8992 180.269 61.542 180.244 62.1931C180.257 62.8874 180.08 63.572 179.732 64.1736C179.383 64.7561 178.891 65.2418 178.304 65.5857C177.656 65.9627 176.934 66.1975 176.188 66.2746L172.646 66.712Z" fill="#FFC300"/>
<path d="M175.002 64.4698L176.018 64.3458C176.337 64.3121 176.645 64.2074 176.917 64.0393C177.175 63.8769 177.384 63.6469 177.519 63.3745C177.667 63.0761 177.741 62.7464 177.733 62.4136C177.745 62.1012 177.671 61.7917 177.519 61.5181C177.38 61.2894 177.168 61.1136 176.917 61.0186C176.629 60.9189 176.32 60.8906 176.018 60.936L175.002 61.06V64.4698ZM172.581 66.6466V59.4894L176.125 59.0554C176.834 58.9475 177.558 59.0076 178.238 59.2311C178.813 59.4183 179.312 59.7841 179.663 60.2747C180.022 60.8197 180.202 61.4624 180.178 62.1139C180.191 62.8085 180.013 63.4933 179.663 64.0944C179.315 64.6784 178.824 65.1644 178.235 65.5065C177.588 65.883 176.867 66.1178 176.122 66.1954L172.581 66.6466Z" fill="#FFC300"/>
<path d="M174.936 64.4078L175.952 64.2838C176.271 64.2497 176.578 64.1462 176.852 63.9807C177.107 63.8198 177.315 63.5939 177.453 63.3263C177.601 63.0279 177.675 62.6982 177.668 62.3653C177.68 62.054 177.605 61.7455 177.453 61.4733C177.316 61.243 177.104 61.0667 176.852 60.9739C176.564 60.8713 176.255 60.8417 175.952 60.8877L174.936 61.0117V64.4078ZM172.515 66.5846V59.4239L176.06 58.99C176.769 58.8854 177.494 58.9455 178.176 59.1656C178.752 59.358 179.251 59.7285 179.601 60.223C179.96 60.7682 180.14 61.4108 180.116 62.0622C180.129 62.7568 179.951 63.4416 179.601 64.0427C179.254 64.6266 178.764 65.1127 178.176 65.4548C177.527 65.8297 176.806 66.0644 176.06 66.1437L172.515 66.5846Z" fill="#FFC300"/>
<path d="M172.512 66.5811V59.4239L176.056 58.99C176.766 58.8854 177.49 58.9455 178.173 59.1656C178.748 59.358 179.248 59.7285 179.597 60.223C179.956 60.7682 180.136 61.4108 180.113 62.0622C180.125 62.7568 179.947 63.4416 179.597 64.0427C179.251 64.6266 178.761 65.1127 178.173 65.4548C177.523 65.8297 176.802 66.0644 176.056 66.1437L172.512 66.5811ZM174.932 64.4043L175.949 64.2804C176.267 64.2463 176.574 64.1428 176.848 63.9773C177.104 63.8164 177.311 63.5904 177.45 63.3228C177.598 63.0244 177.672 62.6947 177.664 62.3619C177.676 62.0506 177.602 61.742 177.45 61.4698C177.313 61.2396 177.1 61.0633 176.848 60.9704C176.56 60.8679 176.251 60.8383 175.949 60.8843L174.932 61.0083V64.4043Z" fill="#FFA200"/>
</g>
<defs>
<linearGradient id="paint0_linear_3_510" x1="66.8093" y1="15.6576" x2="141.493" y2="147.15" gradientUnits="userSpaceOnUse">
<stop offset="0.03" stop-color="#FFEA8F"/>
<stop offset="0.04" stop-color="#FFEA8B"/>
<stop offset="0.08" stop-color="#FFEA66"/>
<stop offset="0.12" stop-color="#FFEA46"/>
<stop offset="0.16" stop-color="#FFEA2D"/>
<stop offset="0.21" stop-color="#FFEA19"/>
<stop offset="0.27" stop-color="#FFEA0B"/>
<stop offset="0.34" stop-color="#FFEA02"/>
<stop offset="0.46" stop-color="#FFEA00"/>
<stop offset="0.59" stop-color="#FFEA03"/>
<stop offset="0.69" stop-color="#FFEA0D"/>
<stop offset="0.78" stop-color="#FFEA1E"/>
<stop offset="0.87" stop-color="#FFEA35"/>
<stop offset="0.95" stop-color="#FFEA53"/>
<stop offset="0.98" stop-color="#FFEA5F"/>
</linearGradient>
<radialGradient id="paint1_radial_3_510" cx="0" cy="0" r="1" gradientUnits="userSpaceOnUse" gradientTransform="translate(27.9604 80.748) rotate(-7.74682) scale(8.30243 8.23728)">
<stop stop-color="#FFEA00"/>
<stop offset="0.23" stop-color="#FFE600"/>
<stop offset="0.47" stop-color="#FFDA00"/>
<stop offset="0.71" stop-color="#FFC500"/>
<stop offset="0.95" stop-color="#FFA900"/>
<stop offset="1" stop-color="#FFA200"/>
</radialGradient>
<radialGradient id="paint2_radial_3_510" cx="0" cy="0" r="1" gradientUnits="userSpaceOnUse" gradientTransform="translate(27.9604 80.748) rotate(-7.74682) scale(9.68732 9.6113)">
<stop offset="0.08" stop-color="#FFEA00"/>
<stop offset="0.36" stop-color="#FFE700"/>
<stop offset="0.55" stop-color="#FFDE00"/>
<stop offset="0.73" stop-color="#FFCE00"/>
<stop offset="0.88" stop-color="#FFB800"/>
<stop offset="1" stop-color="#FFA200"/>
</radialGradient>
<radialGradient id="paint3_radial_3_510" cx="0" cy="0" r="1" gradientUnits="userSpaceOnUse" gradientTransform="translate(174.69 62.5794) rotate(-6.99976) scale(8.30254 8.23717)">
<stop stop-color="#FFEA00"/>
<stop offset="0.23" stop-color="#FFE600"/>
<stop offset="0.47" stop-color="#FFDA00"/>
<stop offset="0.71" stop-color="#FFC500"/>
<stop offset="0.95" stop-color="#FFA900"/>
<stop offset="1" stop-color="#FFA200"/>
</radialGradient>
<radialGradient id="paint4_radial_3_510" cx="0" cy="0" r="1" gradientUnits="userSpaceOnUse" gradientTransform="translate(174.69 62.5794) rotate(-6.99976) scale(9.68745 9.61118)">
<stop offset="0.08" stop-color="#FFEA00"/>
<stop offset="0.36" stop-color="#FFE700"/>
<stop offset="0.55" stop-color="#FFDE00"/>
<stop offset="0.73" stop-color="#FFCE00"/>
<stop offset="0.88" stop-color="#FFB800"/>
<stop offset="1" stop-color="#FFA200"/>
</radialGradient>
<clipPath id="clip0_3_510">
<rect width="205" height="160" fill="white" transform="translate(4.40332)"/>
</clipPath>
</defs>
</svg>
