<svg width="1440" height="146" viewBox="0 0 1440 146" fill="none" xmlns="http://www.w3.org/2000/svg">
<path d="M1338.03 139.836C1339.66 140.048 1343.61 140.645 1351.34 136.677C1356.39 134.096 1360.99 128.867 1360.99 128.867L1322.2 121.335L1312.67 131.573L1338.03 139.836Z" fill="#B3B58B"/>
<path d="M1335.53 139.143C1332.8 139.143 1330.95 138.844 1330.86 138.825L1331.2 137.149C1331.22 137.149 1333.26 137.486 1336.12 137.438C1338.75 137.39 1342.61 137.014 1346.19 135.464C1349.3 134.116 1352.55 131.785 1354.34 130.417C1347.25 129.059 1324.85 124.764 1324.44 124.668L1324.9 123.011H1324.89C1325.41 123.127 1345.83 127.047 1356.55 129.098L1358.32 129.435L1357 130.552C1356.79 130.726 1351.84 134.905 1346.99 136.995C1343.1 138.681 1338.92 139.085 1336.1 139.133C1335.91 139.133 1335.73 139.143 1335.53 139.143Z" fill="#839957"/>
<path d="M1281 92C1281 92 1286.6 97.923 1287.98 104.934C1288.7 108.604 1289.52 116.25 1291.56 124.533C1293.43 132.122 1299.06 135.223 1299.06 135.223L1338.07 139.846C1338.07 139.846 1330 136.851 1326.14 125.9C1323.97 119.766 1322.3 106.225 1321.14 102.247C1318.99 94.87 1313.79 92.8571 1313.79 92.8571L1281 92Z" fill="#DEE9AC"/>
<path d="M1326.59 131.525C1322.67 124.831 1321.39 117.136 1320.16 109.692C1319.72 106.976 1319.29 104.414 1318.75 101.929C1317.44 96.0254 1312.83 94.4845 1312.63 94.4171L1312.48 94.3689L1284.05 93.4829L1285.06 94.9661C1285.1 95.0238 1289.04 100.831 1289.58 104.414C1290.62 111.396 1291.58 117.579 1292.83 122.414C1294.17 127.595 1295.81 131.062 1298.01 133.306C1298.77 134.077 1299.52 134.761 1300.23 135.348L1303.36 135.704C1302.4 135.069 1301.3 133.875 1299.54 132.074C1295.38 127.798 1293.76 118.677 1291.61 104.154C1291.18 101.342 1289.03 97.5279 1287.75 95.4572L1312.06 96.2181C1312.36 96.3336 1313.11 96.69 1313.94 97.4027C1315.35 98.6161 1316.29 100.263 1316.74 102.295C1317.27 104.732 1317.7 107.274 1318.13 109.971C1318.75 113.688 1319.39 117.531 1320.38 121.326C1321.51 125.65 1322.95 129.271 1324.79 132.401C1326.41 135.165 1328.43 137.322 1330.22 138.892L1333.89 139.326C1331.96 137.958 1328.84 135.348 1326.59 131.525Z" fill="#90AC5F"/>
<path d="M1326.71 134.366C1324.56 130.957 1319.45 124.042 1305.81 124.86C1295.38 125.496 1296.74 130.533 1298.65 132.709C1299.44 133.605 1300.72 134.684 1302.38 135.599L1323.6 138.131C1325.1 138.151 1328 136.398 1326.71 134.366Z" fill="#90AC5F"/>
<path d="M1308.42 109.576C1308.42 110.886 1306.69 111.955 1304.56 111.955C1302.42 111.955 1300.69 110.895 1300.69 109.576C1300.69 108.266 1302.42 107.197 1304.56 107.197C1306.69 107.207 1308.42 108.266 1308.42 109.576Z" fill="#90AC5F"/>
<path d="M1336.54 132.527C1336.21 133.451 1334.3 133.711 1332.27 133.114C1330.24 132.517 1328.86 131.284 1329.19 130.36C1329.52 129.435 1331.43 129.175 1333.46 129.772C1335.49 130.369 1336.87 131.602 1336.54 132.527Z" fill="#839957"/>
<path d="M1315.38 137.149L1320.43 137.746C1320.7 137.255 1320.89 136.648 1320.95 135.916L1322.54 136.061L1322.47 133.865L1320.92 133.826C1320.65 130.745 1319.29 128.741 1315.84 128.578C1311.21 128.366 1310.75 131.64 1309.92 133.297C1309.08 134.953 1308.82 136.109 1307.5 136.003C1306.18 135.897 1305.39 135.29 1305.3 133.653C1305.14 130.812 1307.24 131.139 1307.24 131.139L1307.17 128.395C1307.17 128.395 1302.33 128.038 1302.04 132.623L1300.6 132.574L1300.65 134.404L1302.18 134.616C1302.24 134.972 1302.35 135.3 1302.47 135.608L1311.76 136.706C1312.13 136.07 1312.36 135.396 1312.54 134.867C1313.21 132.921 1313.9 131.64 1315.26 131.679C1317.06 131.727 1317.87 132.786 1317.7 134.722C1317.53 136.494 1316.28 137.005 1315.38 137.149Z" fill="#DEE9AC"/>
<path d="M1287.34 97.3257C1288.36 97.8457 1289.49 98.7029 1290.58 98.0865C1291.65 97.4797 1291.71 95.9581 1290.81 95.1876C1289.19 93.82 1284.72 94.4171 1287.34 97.0367V97.3257Z" fill="#90AC5F"/>
<path d="M1308.91 95.5922C1309.43 96.6131 1310.31 97.5955 1311.37 98.077C1312.03 98.3852 1314.44 99.1364 1315 98.2985C1315.87 96.9502 1310.76 94.2921 1309.93 95.8715L1308.91 95.5922Z" fill="#90AC5F"/>
<path d="M1352.61 129.252C1350.06 128.944 1348 132.353 1351.44 132.719C1352.46 132.825 1354.37 132.363 1354.92 131.381C1355.61 130.138 1354.39 129.878 1353.48 129.541L1352.61 129.252Z" fill="#839957"/>
<g clip-path="url(#clip0_0_1)">
<path d="M430.892 134.625C432.404 135.275 436.043 136.932 444.566 135.234C450.121 134.132 455.981 130.363 455.981 130.363L420.741 112.498L408.763 119.732L430.892 134.625Z" fill="#B3B58B"/>
<path d="M428.681 133.274C426.056 132.527 424.354 131.732 424.275 131.689L425.061 130.171C425.079 130.176 426.949 131.059 429.718 131.797C432.254 132.469 436.075 133.167 439.937 132.654C443.296 132.209 447.064 130.858 449.157 130.032C442.709 126.785 422.343 116.519 421.977 116.315L422.869 114.847L422.86 114.844C423.333 115.099 441.897 124.46 451.649 129.37L453.257 130.178L451.68 130.891C451.436 131.002 445.527 133.665 440.293 134.348C436.085 134.902 431.958 134.147 429.235 133.422C429.048 133.369 428.868 133.328 428.681 133.274Z" fill="#839957"/>
<path d="M389.145 73C389.145 73 392.913 80.2314 392.32 87.3523C392.006 91.0782 390.697 98.6562 390.391 107.181C390.115 114.993 394.675 119.516 394.675 119.516L430.927 134.645C430.927 134.645 423.993 129.556 423.274 117.966C422.871 111.472 424.972 97.9916 424.94 93.8469C424.896 86.1639 420.449 82.8048 420.449 82.8048L389.145 73Z" fill="#DEE9AC"/>
<path d="M422.173 123.5C420.232 115.988 421.106 108.236 421.968 100.741C422.282 98.0065 422.572 95.4256 422.729 92.8869C423.094 86.8524 419.079 84.1069 418.901 83.9862L418.774 83.9L391.672 75.2617L392.238 76.9648C392.259 77.031 394.462 83.6964 393.995 87.2884C393.082 94.2884 392.314 100.498 392.195 105.491C392.065 110.842 392.694 114.626 394.191 117.385C394.709 118.334 395.25 119.199 395.771 119.958L398.682 121.157C397.931 120.283 397.202 118.834 396.005 116.62C393.168 111.366 394.115 102.153 396.018 87.5943C396.377 84.7725 395.357 80.5167 394.691 78.1741L417.866 85.564C418.115 85.755 418.746 86.3052 419.345 87.2167C420.367 88.7695 420.822 90.6115 420.695 92.6882C420.542 95.178 420.257 97.7404 419.939 100.454C419.509 104.197 419.073 108.068 418.987 111.989C418.886 116.456 419.287 120.335 420.195 123.848C420.998 126.951 422.351 129.579 423.64 131.578L427.052 133.001C425.568 131.156 423.284 127.792 422.173 123.5Z" fill="#90AC5F"/>
<path d="M421.507 126.265C420.367 122.395 417.346 114.345 404.006 111.398C393.798 109.152 393.727 114.369 394.971 116.987C395.483 118.063 396.42 119.452 397.767 120.787L417.486 129.035C418.92 129.463 422.193 128.573 421.507 126.265Z" fill="#90AC5F"/>
<path d="M410.705 97.4136C410.346 98.6733 408.39 99.228 406.335 98.6428C404.28 98.0575 402.907 96.5652 403.268 95.2962C403.627 94.0365 405.583 93.4818 407.638 94.067C409.69 94.6615 411.063 96.1539 410.705 97.4136Z" fill="#90AC5F"/>
<path d="M431.465 127.188C430.894 127.986 428.982 127.713 427.193 126.582C425.404 125.452 424.416 123.889 424.986 123.09C425.557 122.291 427.469 122.565 429.258 123.695C431.047 124.826 432.036 126.389 431.465 127.188Z" fill="#839957"/>
<path d="M409.842 125.837L414.537 127.795C414.933 127.397 415.286 126.866 415.542 126.178L417.035 126.754L417.562 124.62L416.087 124.16C416.669 121.122 415.91 118.823 412.638 117.721C408.24 116.248 406.904 119.273 405.647 120.637C404.39 122.002 403.821 123.041 402.58 122.578C401.338 122.114 400.748 121.315 401.112 119.716C401.731 116.939 403.66 117.828 403.66 117.828L404.346 115.17C404.346 115.17 399.791 113.502 398.255 117.831L396.886 117.391L396.431 119.165L397.84 119.786C397.808 120.147 397.821 120.492 397.849 120.82L406.488 124.422C407.018 123.911 407.417 123.324 407.74 122.865C408.917 121.178 409.931 120.135 411.228 120.544C412.944 121.083 413.438 122.325 412.74 124.139C412.096 125.798 410.751 125.946 409.842 125.837Z" fill="#DEE9AC"/>
<path d="M393.787 79.8592C394.626 80.6387 395.474 81.7716 396.69 81.4767C397.883 81.1858 398.365 79.7409 397.708 78.7525C396.522 76.993 392.061 76.3436 393.866 79.5813L393.787 79.8592Z" fill="#90AC5F"/>
<path d="M415.001 84.0975C415.226 85.223 415.798 86.4072 416.694 87.1629C417.245 87.6402 419.356 89.0224 420.118 88.3682C421.328 87.3108 417.142 83.3551 415.906 84.6454L415.001 84.0975Z" fill="#90AC5F"/>
<path d="M447.813 128.438C445.45 127.445 442.536 130.16 445.743 131.454C446.695 131.835 448.652 131.912 449.454 131.118C450.458 130.112 449.361 129.53 448.575 128.956L447.813 128.438Z" fill="#839957"/>
</g>
<g clip-path="url(#clip1_0_1)">
<path d="M1134.98 42.2195L1166.66 39.8022C1166.66 39.8022 1167.99 43.6629 1169.44 45.1055C1172.47 48.1458 1187.04 57.6283 1192.27 63.0233C1202.48 73.5456 1210.95 87.1711 1210.95 87.1711L1191.88 91.0766L1167.54 83.8863C1167.54 83.8863 1162.46 70.7271 1157.02 64.3765C1149.62 55.7225 1139.11 51.4561 1137.65 49.6137C1134.51 45.6537 1134.98 42.2195 1134.98 42.2195Z" fill="#DEE9AC"/>
<path d="M1189.32 63.0081C1184.65 58.295 1172.06 49.6763 1169.06 47.3386C1167.09 45.8111 1165.81 41.6829 1165.81 41.6829L1138.22 44.0863C1138.22 44.0863 1137.36 46.4173 1141.92 50.3162C1143.51 51.6685 1152.58 55.6873 1159.21 63.2488C1164.07 68.7967 1170.9 84.0032 1170.9 84.0032L1188.97 89.2862L1207.62 85.6047C1207.62 85.6047 1198.44 72.2117 1189.32 63.0081ZM1187.08 87.4454L1173.57 84.1606C1173.57 84.1606 1167.28 70.477 1162.42 64.9207C1155.8 57.3592 1148.69 52.5889 1146.84 51.6241C1140.28 48.1993 1140.37 45.3301 1140.37 45.3301L1164.88 43.4435C1164.88 43.4435 1166.66 47.8126 1171.72 51.2887C1175.89 54.1348 1184.45 59.8278 1189.23 64.9935C1198.8 75.3461 1204.34 84.2822 1204.34 84.2822L1187.08 87.4454Z" fill="#90AC5F"/>
<path d="M1167.54 83.8861C1167.54 83.8861 1172.98 83.8921 1175.42 83.214C1177.87 82.5358 1184.36 80.7138 1184.36 80.7138C1184.36 80.7138 1186.08 85.2213 1187.31 86.6233C1189.22 88.8029 1191.89 91.0787 1191.89 91.0787L1167.54 83.8861Z" fill="#B3B58B"/>
<path d="M1171.28 84.9329C1171.28 84.9329 1173.81 85.2417 1177.06 84.6247C1180.39 83.9946 1183.26 82.7798 1183.26 82.7798C1183.26 82.7798 1183.66 85.2491 1184.97 86.7712C1186.81 88.9049 1189.68 90.4047 1189.68 90.4047L1185.35 89.1006C1185.35 89.1006 1184.02 88.1955 1183.38 87.3469C1182.78 86.5541 1182.14 85.0144 1182.14 85.0144C1182.14 85.0144 1179.83 85.6658 1178.82 85.8899C1176.76 86.3394 1175.62 86.2668 1175.62 86.2668L1171.28 84.9329Z" fill="#839957"/>
<path d="M1184.33 59.6688L1182.02 57.7155C1179.07 55.5926 1173.85 53.9674 1167.44 55.4782C1162.44 56.661 1157.54 58.6113 1160.24 63.3359C1163.39 68.867 1168.67 70.616 1175.89 69.1962C1184.74 67.4575 1187.8 61.9339 1184.33 59.6688Z" fill="#90AC5F"/>
<path d="M1181.35 60.4033L1182.65 60.1197L1181.11 58.58L1179.65 58.9638C1178.75 58.3637 1177.69 57.7009 1176.94 57.4632C1174.78 56.7775 1169.74 56.968 1170.28 59.2477C1170.74 61.2193 1174.52 63.6282 1170.79 63.9624C1169 64.1237 1166.5 62.0122 1166.85 60.7638C1167.11 59.8326 1168.06 59.5016 1168.06 59.5016L1167.05 57.8694C1167.05 57.8694 1162.44 59.1385 1164.66 62.8891L1164.67 62.8998L1163.14 63.3012L1164.56 64.7813L1166.02 64.4609C1167.88 66.0243 1170.46 67.184 1173.28 66.7229C1176.1 66.2595 1176.36 63.9966 1174.87 62.4432C1173.74 61.2758 1172.7 59.5901 1174.13 59.2078C1175.57 58.8256 1177.76 59.288 1178.72 60.5173C1180.16 62.372 1178.33 62.8751 1178.33 62.8751L1179.81 64.8765C1179.81 64.8765 1182.44 63.6417 1182.17 61.9109C1182.11 61.4171 1181.8 60.901 1181.35 60.4033Z" fill="#DEE9AC"/>
<path d="M1190.06 77.3912C1190.35 78.6067 1189.32 79.8812 1187.76 80.2375C1186.2 80.5937 1184.69 79.8836 1184.4 78.6703C1184.1 77.4548 1185.13 76.1803 1186.7 75.824C1188.26 75.4677 1189.76 76.1672 1190.06 77.3912Z" fill="#90AC5F"/>
<path d="M1162.01 49.7051C1162.15 50.5705 1161.18 51.4298 1159.86 51.6156C1158.53 51.8014 1157.35 51.2503 1157.21 50.3848C1157.08 49.5194 1158.04 48.6601 1159.37 48.4743C1160.7 48.2801 1161.88 48.8313 1162.01 49.7051Z" fill="#90AC5F"/>
<path d="M1139.99 46.6795C1141.42 46.9271 1144.3 45.6259 1141.92 44.6267C1141.32 44.3775 1140.13 44.5258 1139.6 44.9165C1138.74 45.5518 1139 45.7751 1139.48 46.5419L1139.99 46.6795Z" fill="#90AC5F"/>
<path d="M1205.26 84.4495C1204.3 83.091 1201.8 80.2226 1200.42 83.0162C1198.85 86.1736 1203.53 86.0664 1205.19 85.2407L1205.26 84.4495Z" fill="#90AC5F"/>
<path d="M1179.24 85.0465C1178.2 87.2575 1182.54 88.8261 1183.31 86.8147C1183.56 86.1603 1182.96 84.9448 1182.41 84.5442C1181.48 83.8821 1180.26 84.4548 1179.4 84.9548L1179.24 85.0465Z" fill="#839957"/>
</g>
<g clip-path="url(#clip2_0_1)">
<path d="M265.922 71.5045L295.895 82.2254L299.172 82.5826C304.909 83.014 309.654 82.6164 317.797 77.0055C325.728 71.5504 332.168 54.6608 332.168 54.6608C332.168 54.6608 323.667 56.9649 311.912 54.1767C300.157 51.3885 296.305 48.4108 296.305 48.4108C296.305 48.4108 293.711 60.1969 287.404 64.9921C279.552 70.989 265.922 71.5045 265.922 71.5045Z" fill="#B3B58B"/>
<path d="M328.177 57.525L327.626 58.8658C327.587 58.9722 326.517 61.5348 324.602 64.8701C322.025 69.3675 319.268 72.9452 316.413 75.4973C310.636 80.6577 302.057 82.537 290.925 81.117L290.987 79.8152C301.512 81.1576 309.739 78.7268 315.043 73.9818C320.091 69.4766 323.757 62.3472 325.139 59.4113C322.375 59.2447 316.439 58.8448 312.785 58.1848C307.499 57.2255 301.284 54.6884 298.89 53.6537C298.13 55.6187 296.27 59.9789 293.659 63.4892C290.686 67.4767 287.013 69.4694 284.457 70.4323C281.675 71.4835 279.584 71.5825 279.497 71.591L279.404 69.5566C279.423 69.562 281.315 69.4522 283.803 68.503C287.123 67.2343 289.885 65.1464 292.016 62.2731C295.239 57.9485 297.32 52.0103 297.346 51.9535L297.715 50.8935L298.739 51.3594C298.816 51.3906 306.84 55.0395 313.153 56.1782C317.8 57.0196 326.645 57.4441 326.737 57.4581L328.177 57.525Z" fill="#839957"/>
<path d="M294.065 80.8742C297.288 81.1956 303.145 76.6095 296.219 73.2333C288.706 69.5831 283.548 69.9338 280.705 70.4584C277.864 70.973 286.805 78.3867 286.805 78.3867L294.065 80.8742Z" fill="#839957"/>
<path d="M299.172 82.5824C299.172 82.5824 291.735 82.0673 282.337 69.7683C276.332 61.9189 267.895 39.9584 267.895 39.9584C267.895 39.9584 263.34 44.3723 256.253 46.7577C244.733 50.6347 238.529 50.9177 238.529 50.9177C238.529 50.9177 242.923 62.0355 251.881 67.9971C273.479 82.3745 299.172 82.5824 299.172 82.5824Z" fill="#DEE9AC"/>
<path d="M242.283 52.2746L240.64 52.2915L241.484 53.7083C241.697 54.0632 246.784 62.5596 253.828 68.5933C254.858 69.4753 255.955 70.3434 257.103 71.1825C261.196 73.4592 265.353 75.2961 269.377 76.7571C265.449 74.9391 260.172 73.387 254.287 67.1962C249.591 62.2487 245.677 56.7241 243.948 54.0815C246.342 53.8831 251.051 53.2633 256.204 51.3057C260.326 49.7417 264.544 47.5017 266.391 46.4869C268.065 50.7203 274.494 66.5934 278.446 71.6602C281.969 76.1443 286.272 79.583 289.266 81.6716C289.32 81.7074 289.313 81.6949 289.357 81.728C290.973 81.9697 292.268 82.0615 293.552 82.193C290.405 80.3184 284.538 76.3649 279.959 70.5027C275.651 64.9789 267.854 44.9972 267.77 44.794L267.366 43.7608L266.409 44.3125C266.359 44.3415 260.764 47.552 255.538 49.5432C248.609 52.173 242.345 52.2806 242.283 52.2746Z" fill="#90AC5F"/>
<path d="M289.357 81.7278C287.934 80.5278 279.178 75.1625 272.495 74.3712C265.81 73.5899 264.029 74.282 266.483 75.5245C268.958 76.7722 271.487 77.8964 277.422 79.4547C283.366 81.0156 289.357 81.7278 289.357 81.7278Z" fill="#90AC5F"/>
<path d="M258.824 60.311C260.302 59.8778 261.736 60.3257 262.033 61.3197C262.321 62.3111 261.362 63.4681 259.884 63.9013C258.406 64.3345 256.972 63.8866 256.675 62.8926C256.387 61.9012 257.346 60.7443 258.824 60.311Z" fill="#90AC5F"/>
<path d="M305.247 63.841C306.687 64.3861 307.561 65.6092 307.196 66.5745C306.831 67.5398 305.367 67.8811 303.928 67.336C302.489 66.7909 301.614 65.5678 301.979 64.6025C302.344 63.6372 303.808 63.2959 305.247 63.841Z" fill="#839957"/>
<path d="M325.774 60.5379C324.012 63.7763 320.862 60.7209 323.271 58.4003C325.838 55.9305 328.998 59.5839 325.534 61.4306L325.774 60.5379Z" fill="#839957"/>
<path d="M300.688 53.4973C303.131 54.3858 299.89 58.3015 297.357 56.4C294.237 54.0651 299.631 50.9707 300.956 53.0908L300.688 53.4973Z" fill="#839957"/>
<path d="M268.5 48.5404C268.466 49.9772 268.681 51.5976 266.817 51.7253C265.355 51.8225 263.537 50.4638 263.594 48.9801C263.632 47.7676 265.292 46.2986 266.319 45.8403C268.117 45.0464 268.437 46.5141 269.007 47.8789L268.5 48.5404Z" fill="#90AC5F"/>
<path d="M246.511 53.1735C248.458 53.4508 247.314 58.8744 244.57 56.8423C244.134 56.5235 242.733 54.7658 242.754 54.2082C242.804 52.8713 244.957 53.0549 245.687 53.2716L246.511 53.1735Z" fill="#90AC5F"/>
</g>
<g clip-path="url(#clip3_0_1)">
<path d="M1077.74 133.973C1077.74 133.973 1081.42 125.276 1079.81 116.949C1078.2 108.618 1069.03 92.4788 1069.15 85.6893C1069.27 78.8999 1070.1 72.2303 1070.1 72.2303L1034.83 70.2915C1034.83 70.2915 1034.67 86.0244 1036.62 92.3418C1039.34 101.147 1047.69 110.602 1048.09 116.97C1048.56 124.519 1046.32 139.3 1046.32 139.3L1077.74 133.973Z" fill="#DEE9AC"/>
<path d="M1076.06 132.375C1076.06 132.375 1078.25 124.106 1076.73 116.409C1075.21 108.72 1067.35 93.6576 1067.28 87.4233C1067.2 81.1924 1067.71 75.0815 1067.71 75.0815L1037.96 73.1916C1037.96 73.1916 1037.38 82.7305 1039.13 91.5546C1040.53 98.6913 1049.74 110.38 1050.39 116.226C1051.05 122.071 1049.72 136.153 1049.72 136.153L1076.06 132.375Z" fill="#90AC5F"/>
<path d="M1052.68 115.82C1053.78 122.504 1052.18 133.738 1052.18 133.738L1073.95 130.885C1073.95 130.885 1076.05 125.029 1074.75 116.531C1073.62 109.153 1065.66 94.0073 1065.43 88.1021C1065.19 82.197 1065.45 76.4367 1065.45 76.4367L1040.68 76.0035C1040.68 76.0035 1040.08 83.3807 1041.32 91.1748C1042.75 100.125 1051.78 110.302 1052.68 115.82Z" fill="#DEE9AC"/>
<path d="M1070.58 102.674C1072.51 107.102 1070.92 110.539 1063.69 111.987C1055.4 113.655 1048.96 110.768 1047.73 107.632C1046.5 104.496 1044.24 97.6615 1054.2 95.6142C1060.83 94.2579 1068.51 96.7331 1069.41 98.9024C1070.32 101.076 1070.58 102.674 1070.58 102.674Z" fill="#90AC5F"/>
<path d="M1050.18 104.224L1050.72 106.177L1051.98 105.91C1052.87 108.615 1054.41 110.139 1057.23 109.602C1061.04 108.879 1060.7 105.864 1061.02 104.221C1061.34 102.578 1061.3 101.487 1062.4 101.329C1063.49 101.163 1064.26 101.555 1064.69 102.992C1065.44 105.504 1063.66 105.62 1063.66 105.62L1064.31 108.06C1064.31 108.06 1068.32 107.426 1067.56 103.27L1068.73 103.03L1068.29 101.403L1067 101.508C1066 99.2761 1064.18 98.441 1062.54 98.5862C1058.76 98.931 1058.65 101.748 1058.54 103.313C1058.42 105.185 1058.14 106.463 1057.03 106.696C1055.56 107.001 1054.66 106.216 1054.39 104.461C1054 101.926 1056.51 101.639 1056.51 101.639L1055.93 99.3438C1055.93 99.3438 1050.76 99.5546 1051.49 104.053L1050.18 104.224Z" fill="#DEE9AC"/>
<path d="M1061.06 123.82C1061.09 122.734 1062.03 121.882 1063.17 121.918C1064.31 121.955 1065.21 122.856 1065.17 123.934C1065.15 125.021 1064.2 125.873 1063.06 125.836C1061.93 125.799 1061.03 124.898 1061.06 123.82Z" fill="#90AC5F"/>
<path d="M1051.83 82.7346C1051.86 81.6482 1052.8 80.796 1053.94 80.8328C1055.08 80.8696 1055.98 81.7705 1055.95 82.8487C1055.91 83.9268 1054.97 84.7873 1053.83 84.7505C1052.7 84.7137 1051.8 83.8127 1051.83 82.7346Z" fill="#90AC5F"/>
<path d="M1054.37 134.407C1055.47 132.64 1053.53 129.552 1051.6 131.531C1051.02 132.132 1050.93 133.518 1051.26 134.257C1051.85 135.513 1052.63 134.953 1053.85 134.916L1054.37 134.407Z" fill="#90AC5F"/>
<path d="M1075.66 128.824C1074.5 128.517 1070.54 129.162 1071.73 131.199C1073.01 133.382 1075.47 130.095 1075.8 129.493L1075.66 128.824Z" fill="#90AC5F"/>
<path d="M1040.16 74.5728C1042.72 74.0533 1045 77.4244 1042.45 78.9883C1039.47 80.8192 1038.06 76.5391 1039.62 74.656L1040.16 74.5728Z" fill="#90AC5F"/>
<path d="M1066.91 76.1435C1066.21 77.2088 1066.99 78.5694 1065.52 79.0502C1064.46 79.3951 1063.56 78.7942 1063.14 77.8692C1062.02 75.4248 1065.71 74.6139 1066.75 75.7729L1066.91 76.1435Z" fill="#90AC5F"/>
</g>
<g clip-path="url(#clip4_0_1)">
<path d="M951.426 32.9837C951.426 32.9837 940.107 35.4028 932.914 42.8704C925.712 50.3322 916.055 70.8609 909.17 75.5077C902.286 80.1545 895.02 84.0079 895.02 84.0079L918.087 120.723C918.087 120.723 933.955 109.835 938.897 103.441C945.789 94.5359 949.334 79.525 955.429 74.6532C962.657 68.8821 979.04 60.739 979.04 60.739L951.426 32.9837Z" fill="#DEE9AC"/>
<path d="M951.02 35.7948C951.02 35.7948 941.181 39.3999 934.556 46.3345C927.936 53.2597 918.427 71.7175 912.235 76.1674C906.052 80.6232 899.57 84.4017 899.57 84.4017L918.772 115.549C918.772 115.549 928.737 109.434 936.334 101.486C942.483 95.0642 947.657 77.6225 953.048 72.863C958.438 68.1035 973.48 59.5437 973.48 59.5437L951.02 35.7948Z" fill="#90AC5F"/>
<path d="M951.021 70.8576C956.934 65.0601 969.319 58.776 969.319 58.776L951.019 38.9501C951.019 38.9501 943.668 40.9599 936.081 48.2316C929.495 54.5468 919.975 73.1654 914.227 77.5462C908.48 81.927 902.532 85.7189 902.532 85.7189L919.662 110.852C919.662 110.852 927.475 106.272 934.395 99.5483C942.349 91.8366 946.135 75.6373 951.021 70.8576Z" fill="#DEE9AC"/>
<path d="M925.166 62.1492C928.228 57.1017 932.801 56.2857 939.372 62.5072C946.927 69.6549 948.601 78.1377 946.332 81.5702C944.062 85.0028 938.825 92.074 929.708 83.5211C923.647 77.8258 920.681 68.3916 922.215 65.9663C923.746 63.5259 925.166 62.1492 925.166 62.1492Z" fill="#90AC5F"/>
<path d="M941.184 81.5099L942.758 79.5989L941.597 78.5227C943.673 75.7287 944.109 73.1167 941.565 70.6581C938.143 67.3523 935.362 69.807 933.492 70.6437C931.622 71.4804 930.553 72.2781 929.619 71.293C928.68 70.3172 928.524 69.2665 929.66 67.8275C931.64 65.3088 933.017 67.0097 933.017 67.0097L935.003 64.6485C935.003 64.6485 931.528 61.0774 927.902 64.7543L926.828 63.7456L925.512 65.3287L926.531 66.548C925.008 69.1215 925.461 71.5315 926.77 73.0736C929.795 76.62 932.697 74.7563 934.34 73.7648C936.303 72.5741 937.778 71.9538 938.799 72.9032C940.144 74.1595 939.996 75.6122 938.431 77.1168C936.173 79.2942 934.107 76.9807 934.107 76.9807L932.217 79.1698C932.217 79.1698 936.094 84.2035 940.083 80.3171L941.184 81.5099Z" fill="#DEE9AC"/>
<path d="M953.09 56.84C951.982 57.5751 950.457 57.2237 949.688 56.0586C948.919 54.8935 949.183 53.359 950.285 52.6332C951.393 51.8982 952.918 52.2495 953.687 53.4146C954.456 54.5797 954.192 56.1143 953.09 56.84Z" fill="#90AC5F"/>
<path d="M918.494 94.9454C917.386 95.6805 915.861 95.3291 915.092 94.164C914.323 92.9989 914.587 91.4644 915.689 90.7386C916.791 90.0128 918.322 90.3549 919.091 91.52C919.86 92.6851 919.596 94.2196 918.494 94.9454Z" fill="#90AC5F"/>
<path d="M968.433 56.1076C965.887 56.2496 964.172 60.3648 967.518 60.9052C968.531 61.0638 969.986 60.1864 970.486 59.3277C971.329 57.86 970.216 57.4706 969.312 56.2726L968.433 56.1076Z" fill="#90AC5F"/>
<path d="M947.745 38.6867C948.262 40.0675 951.718 43.5876 952.912 40.962C954.189 38.1433 949.154 37.9863 948.319 38.0807L947.745 38.6867Z" fill="#90AC5F"/>
<path d="M918.593 112.371C916.26 110.174 918.017 105.518 921.394 106.979C925.342 108.683 922.054 113.1 919.063 112.859L918.593 112.371Z" fill="#90AC5F"/>
<path d="M901.202 84.4593C902.761 84.4066 903.575 82.676 905.099 83.8124C906.191 84.6266 906.228 85.9502 905.604 87.0273C903.951 89.8679 900.522 86.7381 900.941 84.8753L901.202 84.4593Z" fill="#90AC5F"/>
</g>
<g clip-path="url(#clip5_0_1)">
<path d="M498.323 50.6958C499.138 50.9986 501.947 56.3665 512.777 59.9915C517.651 61.6199 527.166 59.0914 527.166 59.0914L542.992 81.5697C542.992 81.5697 538.352 83.5663 532.065 83.91C517.434 84.7037 511.671 80.1213 511.671 80.1213L507.959 76.7172L498.323 50.6958Z" fill="#C3CA98"/>
<path d="M504.553 57.5859C504.553 57.5859 510.558 61.4564 515.004 61.8083C518.652 62.0947 526.682 60.6627 526.682 60.6627L540.305 80.4079C540.305 80.4079 529.797 83.0755 524.656 82.2736C508.58 79.7614 508.024 76.3001 508.024 76.3001L507.289 74.8436C507.289 74.8436 514.335 79.8269 524.164 80.6861C531.807 81.3489 537.779 79.2787 537.779 79.2787L526.101 62.111C526.101 62.111 519.29 63.4449 515.271 63.1175C511.252 62.7902 504.578 59.2061 504.578 59.2061L504.553 57.5859Z" fill="#839957"/>
<path d="M501.398 58.1587C503.545 59.3534 507.652 61.2764 509.928 64.0012C511.486 65.8587 514.214 71.2185 513.826 73.4361C513.56 74.9417 512.188 76.7174 509.226 75.2936C506.272 73.8698 503.448 71.8977 503.448 71.8977L501.398 58.1587Z" fill="#839957"/>
<path d="M505.659 62.7082L505.401 61.8081L506.853 62.2254L507.104 63.2565C507.765 63.6001 508.379 64.0338 508.758 64.4266C509.718 65.4086 511.526 68.3626 509.952 68.829C508.597 69.2299 505.95 68.0271 506.983 70.441C507.475 71.5948 509.605 72.3967 510.251 71.7421C510.735 71.2593 510.622 70.5556 510.622 70.5556L511.962 70.6128C511.962 70.6128 512.721 73.8942 509.678 73.8287H509.67L509.936 74.9088L508.556 74.5488L508.266 73.5423C506.692 72.945 505.223 71.5048 504.691 70.0319C504.069 68.3216 505.441 67.2824 506.555 67.397C507.677 67.5115 509.032 67.7407 508.79 66.726C508.548 65.7113 507.531 64.5084 506.466 64.3612C505.393 64.2139 505.151 65.4167 505.151 65.4167L503.545 64.8521C503.545 64.8521 503.311 63.1583 504.465 62.7246C504.796 62.6018 505.207 62.61 505.659 62.7082Z" fill="#C3CA98"/>
<path d="M488.833 26L509.194 46.0234C509.194 46.0234 505.821 56.3011 506.224 61.89C507.201 75.629 511.704 80.1459 511.704 80.1459C511.704 80.1459 506.539 77.2246 500.736 69.1072C491.899 56.7348 486.952 46.1543 486.952 46.1543C486.952 46.1543 485.718 42.022 486.065 37.7997C486.404 33.5773 488.833 26 488.833 26Z" fill="#DEE9AC"/>
<path d="M509.089 78.2393C509.089 78.2393 505.199 73.1332 504.368 64.5003C503.884 59.4597 507.112 46.9727 507.112 46.9727L489.543 28.8477C489.543 28.8477 487.913 34.412 487.364 37.8488C486.525 43.0367 487.695 47.75 487.695 47.75L489.042 50.3358C489.042 50.3358 488.066 46.9236 488.695 40.14C488.938 37.5378 490.527 32.1535 490.576 32.2845C490.624 32.4154 505.304 47.6109 505.304 47.6109C505.304 47.6109 502.931 59.5661 503.044 63.5757C503.27 71.3575 507.031 76.5127 507.031 76.5127L509.089 78.2393Z" fill="#90AC5F"/>
<path d="M503.763 72.986C503.763 72.986 503.23 71.0548 500.801 65.8997C498.92 61.931 495.531 58.4205 494.587 58.2405C493.973 58.126 493.78 58.306 493.723 58.4451C495.684 61.6773 498.049 65.335 500.793 69.1728C501.802 70.6048 502.802 71.8731 503.763 72.986Z" fill="#90AC5F"/>
<path d="M525.536 73.4768C524.753 74.0332 523.486 73.5668 522.711 72.4376C521.937 71.3084 521.945 69.95 522.736 69.3936C523.518 68.8371 524.786 69.3117 525.56 70.4328C526.327 71.562 526.319 72.9204 525.536 73.4768Z" fill="#839957"/>
<path d="M497.605 50.5158C496.814 51.2113 495.458 50.9331 494.571 49.8939C493.683 48.8547 493.602 47.4554 494.385 46.7599C495.176 46.0643 496.532 46.3425 497.419 47.3818C498.307 48.421 498.396 49.8284 497.605 50.5158Z" fill="#90AC5F"/>
<path d="M537.859 80.1132C536.399 81.2915 533.243 79.8268 534.978 77.9038C536.229 76.5209 538.755 78.3375 538.343 79.745L537.859 80.1132Z" fill="#839957"/>
<path d="M525.633 61.4643C523.333 61.2679 523.22 63.33 525.391 63.7882C526.319 63.9846 527.126 64.1892 527.207 63.06C527.263 62.2908 526.472 61.4643 525.875 61.4643H525.633Z" fill="#839957"/>
<path d="M504.82 46.1215C503.867 44.9432 503.125 46.5143 503.125 47.4717C503.125 48.4209 503.407 49.7956 504.182 50.4421C505.247 51.3258 505.707 50.1066 505.998 48.9446C506.289 47.8154 505.933 47.2017 505.175 46.367L504.82 46.1215Z" fill="#90AC5F"/>
<path d="M489.809 30.2876H489.446C489.172 31.8833 488.72 37.0384 491.867 35.1973C494.119 33.8717 491.036 31.2695 489.809 30.2876Z" fill="#90AC5F"/>
</g>
<g clip-path="url(#clip6_0_1)">
<path d="M152.678 22.1359C156.152 21.7236 161.861 22.2954 173.376 40.3929C185.953 60.1795 218.29 69.4807 218.29 69.4807L170.607 77.8138C170.607 77.8138 155.237 75.4059 142.954 60.11C130.67 44.814 123.781 27.1792 123.781 27.1792L152.678 22.1359Z" fill="#B3B58B"/>
<path d="M179.106 50.0725C169.432 41.0144 165.48 31.0281 160.212 26.8818C154.205 22.1459 148.311 23.8675 148.311 23.8675L147.598 24.6648C149.858 24.1985 153.228 24.5382 157.856 27.552C161.666 30.0325 170.342 45.4322 178.066 52.2968C183.58 57.1952 204.737 68.3198 204.737 68.3198L169.18 74.0322C169.18 74.0322 153.168 68.2921 143.686 55.468C140.831 51.6021 134.978 41.6635 134.978 41.6635L140.378 32.6453L132.786 41.0471C132.786 41.0471 136.577 49.9108 143.86 58.6183C155.217 72.195 169.833 75.9691 169.833 75.9691L210.748 68.9152C210.748 68.9152 189.592 59.8732 179.106 50.0725Z" fill="#839957"/>
<path d="M107.542 41.6287C107.542 41.6287 108.642 37.4773 112.093 33.5552C117.37 27.5716 123.838 26.0471 123.838 26.0471L152.678 22.136C152.678 22.136 148.588 22.6212 145.397 27.7086C141.47 33.9503 142.716 42.2374 142.716 42.2374L107.542 41.6287Z" fill="#DEE9AC"/>
<path d="M141.099 52.8571C145.242 60.4054 151.788 59.9829 158.889 58.2258C171.474 55.112 174.034 47.9003 170.363 42.5768C165.659 35.7529 159.024 37.4578 151.988 39.9037C143.584 42.8244 137.585 46.4441 141.099 52.8571Z" fill="#839957"/>
<path d="M167.079 46.6697L166.056 44.347L164.543 44.9196C162.937 41.7248 160.768 40.114 157.365 41.3045C152.799 42.8984 153.779 46.5848 153.693 48.6868C153.608 50.7888 153.843 52.1291 152.524 52.5282C151.205 52.9273 150.188 52.5951 149.392 50.8854C148.001 47.9028 150.17 47.4309 150.17 47.4309L148.912 44.5228C148.912 44.5228 144.085 46.0449 145.789 51.0663L144.382 51.5893L145.227 53.5221L146.797 53.1451C148.45 55.7435 150.854 56.4425 152.852 55.9568C157.459 54.8354 157.084 51.3131 156.916 49.3461C156.713 46.9961 156.825 45.3569 158.161 44.8628C159.914 44.2103 161.169 45.0234 161.838 47.1517C162.798 50.2306 159.753 51.0549 159.753 51.0549L160.885 53.8088C160.885 53.8088 167.227 52.5859 165.492 47.1417L167.079 46.6697Z" fill="#B3B58B"/>
<path d="M147.063 22.9102C147.063 22.9102 144.043 23.4425 140.789 28.479C139.275 30.8354 137.801 37.648 137.801 37.648L114.124 37.957C114.124 37.957 115.02 34.6844 117.939 31.5583C120.86 28.4447 127.936 25.4823 127.936 25.4823L125.404 25.8273L125.391 25.8301C125.391 25.8301 118.609 28.8959 116.266 31.2424C111.799 35.7042 110.368 39.591 110.368 39.591L139.937 39.9172C139.937 39.9172 140.494 32.6458 141.93 29.5909C144.466 24.1809 149.485 22.5899 149.485 22.5899L147.063 22.9102Z" fill="#90AC5F"/>
<path d="M175.828 62.509C176.147 63.6482 174.433 65.112 172.003 65.7987C169.57 66.473 167.357 66.1088 167.037 64.9695C166.718 63.8303 168.432 62.3665 170.862 61.6798C173.283 61.0082 175.511 61.3821 175.828 62.509Z" fill="#839957"/>
<path d="M142.306 23.5312L134.054 24.6475C134.883 25.178 136.253 25.5227 137.786 25.5053C140.155 25.4701 142.082 24.6097 142.306 23.5312Z" fill="#90AC5F"/>
<path d="M113.473 36.2016C114.938 33.622 119.111 35.8781 116.776 38.1448C116 38.8911 114.148 39.0449 113.231 38.3518C111.938 37.3652 112.996 37.1285 113.402 35.8269L113.486 36.1989L113.473 36.2016Z" fill="#90AC5F"/>
<path d="M138.29 38.853C135.996 39.6266 132.482 38.0691 135.225 35.7763C137.893 33.5525 140.371 37.4114 138.535 38.2126L138.29 38.853Z" fill="#90AC5F"/>
<path d="M166.216 73.6021C164.748 70.2723 171.664 70.5222 171.754 74.2771C170.382 75.6515 167.341 75.6286 165.972 74.2425L166.216 73.6021Z" fill="#839957"/>
<path d="M203.847 69.4825C202.243 69.2424 197.412 69.0731 200.665 66.5229C202.754 64.8843 204.927 66.9758 206.13 68.5423C205.664 68.8287 205.135 69.0641 204.543 69.1315L203.847 69.4825Z" fill="#639334"/>
</g>
<g clip-path="url(#clip7_0_1)">
<path d="M740.824 44.4567C734.073 41.2721 727.218 38.0758 721.723 35.1228L712.703 30.3284L683.672 20.0796L707.899 42.8007C707.899 42.8007 720.617 48.4636 738.324 50.386C750.5 51.7062 758.012 50.4787 758.012 50.4787C758.012 50.4787 747.252 47.4793 740.824 44.4567Z" fill="#B3B58B"/>
<path d="M733.577 48.8459C730.213 48.3827 726.481 47.7226 722.864 46.7499C714.915 44.619 708.901 42.4535 708.901 42.4535C708.901 42.4535 704.731 38.9793 702.6 37.0569C700.687 35.3314 695.976 30.5833 695.814 30.3865L697.024 29.5063C697.059 29.5527 702.058 34.0459 703.844 35.6672C705.722 37.3696 709.132 40.2184 709.834 40.7974C710.791 41.1333 716.182 43.0209 723.336 44.9433C729.58 46.6109 739.165 47.9658 743.542 48.3017C739.038 47.0278 731.02 43.4725 728.105 42.0713C721.297 38.8056 709.604 31.4866 709.489 31.4056L710.468 29.819C710.583 29.8885 722.184 37.1611 728.9 40.3805C733.727 42.6966 745.823 47.989 745.95 48.0469L750.189 49.8998L745.57 49.8303C745.489 49.8419 740.259 49.7492 733.577 48.8459Z" fill="#839957"/>
<path d="M696.794 30.3285C697.807 31.3939 701.148 33.1889 704.777 33.2699C708.406 33.3626 712.979 32.4709 711.032 31.0349C709.097 29.622 696.794 30.3285 696.794 30.3285Z" fill="#839957"/>
<path d="M630 22.4885C630 22.4885 644.02 16.1655 650.183 15.1117C668.339 12.0081 683.937 16.4203 685.538 16.6403C690.723 17.3352 721.861 35.1924 721.861 35.1924C721.861 35.1924 707.081 26.2754 685.711 33.7796C674.986 37.5433 665.229 42.0366 665.229 42.0366L630 22.4885Z" fill="#DEE9AC"/>
<path d="M711.344 29.3095C709.685 28.3946 709.132 28.0588 707.311 27.0744C703.245 26.8776 695.918 26.4607 688.407 28.2904C680.907 30.1201 668.397 35.3661 665.735 36.4895L638.375 22.419C639.919 21.7474 642.211 20.8093 644.976 19.9061C649.665 18.3658 657.084 16.3855 663.927 16.2003C674.663 15.9107 684.571 17.451 692.105 19.3849C691.875 19.1649 691.356 18.8291 689.271 17.9142C681.541 16.1192 672.21 14.5906 663.65 14.6832C656.439 14.7527 649.123 16.1424 644.239 17.7521C638.963 19.4891 635.426 21.2841 635.276 21.3536L633.295 22.3611L665.655 39.014L666.139 38.8056C666.288 38.7477 680.884 32.4826 688.948 30.5139C696.771 28.6031 703.003 28.5104 706.851 28.7652C708.74 28.8926 710.249 29.1126 711.344 29.3095Z" fill="#90AC5F"/>
<path d="M690.573 18.551C687.624 18.0878 683.949 17.9372 687.059 21.0408C691.932 25.8931 703.406 28.0355 706.39 28.2671C709.362 28.4987 710.652 28.7882 710.433 28.7535C710.203 28.7187 705.952 26.4026 701.102 23.7623C696.241 21.1335 690.573 18.551 690.573 18.551Z" fill="#90AC5F"/>
<path d="M666.542 22.4538C668.201 23.4729 669.145 24.9436 668.662 25.7427C668.178 26.5418 666.438 26.3681 664.779 25.349C663.12 24.3299 662.176 22.8591 662.66 22.0601C663.143 21.261 664.883 21.4347 666.542 22.4538Z" fill="#90AC5F"/>
<path d="M717.311 39.3385C719.143 39.9754 720.491 40.9019 720.318 41.423C720.145 41.9441 718.509 41.8515 716.677 41.2146C714.846 40.5776 713.498 39.6512 713.671 39.1301C713.843 38.6089 715.479 38.7132 717.311 39.3385Z" fill="#839957"/>
<path d="M640.126 20.3809C642.015 20.3924 646.301 22.0948 643.064 24.1677C640.702 25.6732 638.617 23.6234 636.705 22.6159C636.659 21.1683 639.17 20.7978 639.781 20.5661L640.126 20.3809Z" fill="#90AC5F"/>
<path d="M665.182 37.5782C661.68 36.3275 661.749 32.1006 666.046 32.7143C667.36 32.8996 669.203 33.7103 669.157 35.32C669.099 37.2539 666.864 37.2887 665.517 37.7751C665.159 37.6593 665.528 37.6129 665.528 37.4045L665.182 37.5782Z" fill="#90AC5F"/>
<path d="M738.612 48.8694C737.84 48.2093 736.642 47.9082 735.985 47.1786C734.591 45.6384 736.031 44.8741 737.748 45.2099C740.098 45.6731 742.701 47.3407 743.945 49.3558C741.757 49.5642 739.602 48.8462 737.367 48.881C737.137 48.6957 737.494 48.8115 737.563 48.6957L738.612 48.8694Z" fill="#839957"/>
<path d="M707.335 40.3576C708.348 37.5435 712.691 39.3848 712.138 42.06C710.526 42.7085 708.694 41.5504 707.68 40.3576H707.335Z" fill="#839957"/>
</g>
<g clip-path="url(#clip8_0_1)">
<path d="M1351 45.3298C1351 45.3298 1356.83 36.9127 1367.27 31.8534C1375.75 27.7469 1401.27 18.6152 1407.88 15.0873C1419.98 8.64398 1427.9 0 1427.9 0L1461 20.3508C1461 20.3508 1454.25 28.6318 1445.18 35.2679C1435.99 41.9834 1411.54 45.3979 1399.44 55.1422C1391.62 61.4494 1382.64 78.0113 1382.64 78.0113L1351 45.3298Z" fill="#DEE9AC"/>
<path d="M1381.39 73.5307L1355.04 45.2733L1355.43 44.638C1355.6 44.3657 1359.6 37.809 1372.79 31.6607C1376.93 29.7322 1382.9 27.3047 1389.23 24.7296C1397.59 21.3378 1406.23 17.8212 1410.94 15.3256C1417.63 11.775 1427.58 2.96086 1427.68 2.87011L1428.22 2.38232L1458.37 20.6232L1457.66 21.508C1457.59 21.5874 1455.98 23.5726 1452.86 26.3858C1450 28.9722 1445.25 32.7951 1438.93 36.2776C1433.31 39.3745 1427.34 41.1554 1421.01 43.0385C1412.17 45.6703 1403.02 48.3815 1394.98 55.063C1388.94 60.0769 1382.11 72.2261 1382.04 72.3509L1381.39 73.5307ZM1357.53 45.0577L1380.99 70.2183C1382.89 66.9739 1388.46 57.8989 1393.72 53.5429C1402.07 46.6118 1411.41 43.8326 1420.45 41.1441C1426.66 39.2951 1432.54 37.5481 1437.97 34.5534C1447.43 29.3352 1453.37 23.323 1455.36 21.1223L1428.43 4.83259C1426.22 6.76103 1417.91 13.8509 1411.85 17.0726C1407.05 19.6249 1398.37 23.1528 1389.97 26.5673C1383.66 29.131 1377.7 31.5586 1373.62 33.453C1367.04 36.5158 1362.91 39.6694 1360.59 41.7794C1359 43.2314 1358.03 44.3998 1357.53 45.0577Z" fill="#90AC5F"/>
<path d="M1395.02 23.4249C1390.84 25.4781 1388.12 30.6395 1393.94 37.5139C1399.76 44.3882 1410.87 45.7949 1415.74 44.1046C1420.6 42.4144 1422.01 33.657 1417.26 28.9153C1412.52 24.1622 1404.49 18.7739 1395.02 23.4249Z" fill="#90AC5F"/>
<path d="M1382.46 45.0238C1383.48 46.3056 1383.56 47.9278 1382.66 48.6538C1381.75 49.3798 1380.19 48.9147 1379.18 47.6329C1378.16 46.351 1378.08 44.7288 1378.99 44.0028C1379.89 43.2882 1381.45 43.7419 1382.46 45.0238Z" fill="#90AC5F"/>
<path d="M1434.79 17.6394C1435.99 18.7511 1436.32 20.3506 1435.53 21.2014C1434.73 22.0522 1433.13 21.8366 1431.94 20.7249C1430.74 19.6133 1430.41 18.0138 1431.2 17.163C1431.98 16.3009 1433.59 16.5164 1434.79 17.6394Z" fill="#90AC5F"/>
<path d="M1411.46 40.418L1413.85 39.295L1412.68 38.0926C1416 36.3229 1416.1 33.8159 1414.22 31.7287C1411.68 28.9268 1407.45 29.9477 1405.8 30.651C1404.14 31.3543 1402.64 31.7967 1401.53 31.1275C1400.61 30.5716 1401.2 28.9268 1402.61 28.076C1404.7 26.8282 1405.43 27.7924 1405.43 27.7924L1408.12 26.7261C1408.12 26.7261 1405.41 24.151 1401.92 25.8412L1400.8 24.9678L1399.09 25.8299L1400.09 26.7714C1398.03 28.1214 1397.77 31.0027 1398.71 32.3072C1400.88 35.3133 1404.71 34.1336 1406.18 33.2941C1407.95 32.2845 1409.59 32.0463 1410.3 32.6362C1412.57 34.5193 1411.39 35.6309 1409.45 36.5952C1406.84 37.8884 1405.72 36.2549 1405.72 36.2549L1401.95 38.1493C1401.95 38.1493 1403.21 41.7226 1410.45 39.1702L1411.46 40.418Z" fill="#DEE9AC"/>
</g>
<g clip-path="url(#clip9_0_1)">
<path d="M-39 103.33C-39 103.33 -33.1694 94.9127 -22.731 89.8534C-14.2511 85.7469 11.2676 76.6152 17.8794 73.0873C29.9821 66.644 37.8958 58 37.8958 58L71 78.3508C71 78.3508 64.2524 86.6318 55.1838 93.2679C45.9907 99.9834 21.5362 103.398 9.44484 113.142C1.62165 119.449 -7.35632 136.011 -7.35632 136.011L-39 103.33Z" fill="#DEE9AC"/>
<path d="M-8.61299 131.531L-34.9582 103.273L-34.5733 102.638C-34.4034 102.366 -30.3956 95.809 -17.206 89.6607C-13.0737 87.7322 -7.0959 85.3047 -0.767166 82.7296C7.58813 79.3378 16.2265 75.8212 20.9362 73.3256C27.6272 69.775 37.5789 60.9609 37.6808 60.8701L38.2242 60.3823L68.3734 78.6232L67.6602 79.508C67.5922 79.5874 65.9846 81.5726 62.8598 84.3858C59.9955 86.9722 55.2518 90.7951 48.9344 94.2776C43.3076 97.3745 37.3411 99.1554 31.0124 101.039C22.1703 103.67 13.0225 106.381 4.98417 113.063C-1.06153 118.077 -7.88841 130.226 -7.95634 130.351L-8.61299 131.531ZM-32.4675 103.058L-9.00924 128.218C-7.10722 124.974 -1.53703 115.899 3.71616 111.543C12.0714 104.612 21.4117 101.833 30.4463 99.1441C36.6618 97.2951 42.5377 95.5481 47.972 92.5534C57.4255 87.3352 63.3693 81.323 65.3619 79.1223L38.428 62.8326C36.2203 64.761 27.9103 71.8509 21.8533 75.0726C17.0529 77.6249 8.36931 81.1528 -0.0312653 84.5673C-6.33736 87.131 -12.3038 89.5586 -16.3796 91.453C-22.9574 94.5158 -27.0897 97.6694 -29.4106 99.7794C-30.9957 101.231 -31.9693 102.4 -32.4675 103.058Z" fill="#90AC5F"/>
<path d="M5.01812 81.4249C0.840479 83.4781 -1.87669 88.6395 3.94258 95.5139C9.76185 102.388 20.8683 103.795 25.7365 102.105C30.6048 100.414 32.0087 91.657 27.2649 86.9153C22.5212 82.1622 14.4942 76.7739 5.01812 81.4249Z" fill="#90AC5F"/>
<path d="M44.7907 75.6394C45.9908 76.7511 46.3191 78.3506 45.5266 79.2014C44.7341 80.0522 43.1264 79.8366 41.9377 78.7249C40.7376 77.6133 40.4092 76.0138 41.2018 75.163C41.9829 74.3009 43.5906 74.5164 44.7907 75.6394Z" fill="#90AC5F"/>
<path d="M21.457 98.418L23.8458 97.295L22.6797 96.0926C25.9969 94.3229 26.0988 91.8159 24.2194 89.7287C21.6834 86.9268 17.4492 87.9477 15.7962 88.651C14.1433 89.3543 12.6375 89.7967 11.528 89.1275C10.611 88.5716 11.1997 86.9268 12.6149 86.076C14.698 84.8282 15.4339 85.7924 15.4339 85.7924L18.1171 84.7261C18.1171 84.7261 15.4113 82.151 11.9243 83.8412L10.8034 82.9678L9.09387 83.8299L10.0902 84.7714C8.02965 86.1214 7.76925 89.0027 8.70894 90.3072C10.8827 93.3133 14.7093 92.1336 16.1811 91.2941C17.9473 90.2845 19.5889 90.0463 20.3022 90.6362C22.5665 92.5193 21.3891 93.6309 19.4531 94.5952C16.8378 95.8884 15.717 94.2549 15.717 94.2549L11.9469 96.1493C11.9469 96.1493 13.2149 99.7226 20.4494 97.1702L21.457 98.418Z" fill="#DEE9AC"/>
</g>
<defs>
<clipPath id="clip0_0_1">
<rect width="80" height="48" fill="white" transform="translate(389.145 73) rotate(15.8939)"/>
</clipPath>
<clipPath id="clip1_0_1">
<rect width="85" height="43" fill="white" transform="translate(1137.71 32.0439) rotate(15)"/>
</clipPath>
<clipPath id="clip2_0_1">
<rect width="91.4175" height="38.1187" fill="white" transform="translate(322.302 91.4805) rotate(-165)"/>
</clipPath>
<clipPath id="clip3_0_1">
<rect width="47.8551" height="75.3275" fill="white" transform="translate(1093.25 127.472) rotate(157.259)"/>
</clipPath>
<clipPath id="clip4_0_1">
<rect width="58.8118" height="92.0533" fill="white" transform="translate(933.915 22) rotate(32.0988)"/>
</clipPath>
<clipPath id="clip5_0_1">
<rect width="57" height="58" fill="white" transform="translate(486 26)"/>
</clipPath>
<clipPath id="clip6_0_1">
<rect width="102" height="63" fill="white" transform="translate(105 30.2598) rotate(-12.6056)"/>
</clipPath>
<clipPath id="clip7_0_1">
<rect width="128" height="37" fill="white" transform="translate(630 14)"/>
</clipPath>
<clipPath id="clip8_0_1">
<rect width="110" height="78" fill="white" transform="translate(1351)"/>
</clipPath>
<clipPath id="clip9_0_1">
<rect width="110" height="78" fill="white" transform="translate(-39 58)"/>
</clipPath>
</defs>
</svg>
