<svg width="1440" height="387" viewBox="0 0 1440 387" fill="none" xmlns="http://www.w3.org/2000/svg">
<g opacity="0.36">
<path d="M304.255 298.931L308.245 298.44V271.307L262.819 276.893V214.769L276.017 213.173V200.712L284.427 212.13L317.085 208.139L302.475 188.496C304.562 186.654 306.281 184.567 307.693 182.234C310.394 177.876 311.745 172.903 311.745 167.378C311.745 161.792 310.333 156.943 307.509 153.014C304.685 149.024 300.695 146.2 295.661 144.542C292.53 143.499 288.97 143.008 285.164 143.008C283.261 143.008 281.235 143.131 279.148 143.376L246.183 147.428L188.97 154.426V169.097C188.663 168.606 188.357 168.115 187.988 167.624C185.164 163.634 181.174 160.81 176.141 159.153C173.01 158.109 169.449 157.618 165.643 157.618C163.74 157.618 161.715 157.741 159.627 157.986L126.663 162.038L97.7492 165.598V202.062C97.7492 206.666 96.767 208.446 96.3373 208.999C95.5393 210.042 94.4957 210.595 92.961 210.779C92.7155 210.841 92.4699 210.841 92.2244 210.841C91.2422 210.841 90.8125 210.534 90.4442 210.227C90.3828 210.165 89.3392 209.06 89.3392 204.272V166.58L59.4437 170.264V175.42L58.3387 174.929C54.7783 173.333 50.6654 172.351 46.3069 171.921C44.4653 171.737 42.6237 171.676 40.782 171.676C38.3266 171.676 35.8097 171.86 33.3542 172.167C26.6016 172.965 20.8312 174.745 16.1658 177.385C11.3776 180.086 7.63303 183.462 5.17754 187.452C2.59929 191.504 1.31016 195.923 1.31016 200.528C1.31016 204.579 2.16958 208.017 3.82703 210.779C5.11616 212.866 6.71222 214.647 8.67661 216.058L-1.14532 239.079L3.029 241.104C6.52806 242.823 10.8252 243.928 16.0431 244.542C18.4372 244.849 20.954 244.972 23.4095 244.972C26.1105 244.972 28.873 244.788 31.6968 244.481C38.5107 243.621 44.2811 241.902 48.9465 239.201C53.7347 236.439 57.4179 233.063 59.8734 229.134C61.1012 227.231 62.022 225.205 62.6358 223.179C64.1705 226.187 66.1963 228.827 68.7132 230.975C71.1686 233.063 73.9924 234.597 77.1846 235.702L50.7267 238.956V303.289C48.5782 303.289 46.3069 303.474 44.0356 303.719L6.28251 308.385V386.162L45.2633 381.374C53.4892 380.392 60.8556 377.936 67.1785 374.13C73.6241 370.263 78.7193 365.168 82.3411 359.029C83.8758 356.389 85.1035 353.627 86.0243 350.68C86.3312 351.478 86.6382 352.276 87.0065 353.074C89.2164 357.863 92.3472 361.914 96.3373 365.106C100.327 368.298 105.054 370.631 110.395 371.982C113.71 372.841 117.27 373.209 121.015 373.209C123.163 373.209 125.373 373.087 127.583 372.78C133.599 372.043 139.247 370.386 144.403 367.807C149.56 365.229 154.103 361.914 157.909 357.863C161.715 353.811 164.723 349.207 166.871 344.112C167.362 342.946 167.792 341.779 168.16 340.551C168.467 341.411 168.774 342.27 169.142 343.068C171.352 347.856 174.422 351.908 178.412 355.1C182.341 358.292 187.067 360.564 192.347 361.914C195.6 362.712 199.161 363.142 202.783 363.142C204.87 363.142 207.08 363.019 209.29 362.712C214.692 362.037 220.278 360.564 225.925 358.292C231.634 355.96 236.791 353.013 241.272 349.453L243.114 347.979V357.003L309.35 348.839V321.706L304.133 322.319V298.931H304.255ZM275.956 169.097L278.964 168.729C279.455 168.668 279.885 168.668 280.253 168.668C281.051 168.668 281.358 168.79 281.481 168.852C281.542 168.975 281.665 169.281 281.665 169.895C281.665 171 281.358 171.553 280.99 171.86C280.499 172.412 279.332 172.781 277.798 172.965L276.017 173.21V169.097H275.956ZM54.6555 199.729C54.3486 199.545 54.0417 199.423 53.7347 199.238L59.3209 185.058V203.474C58.0318 201.939 56.4357 200.65 54.6555 199.729ZM197.81 266.15L184.366 255.776L181.42 259.889C180.069 261.73 178.657 263.204 177.123 264.247C175.772 265.168 174.299 265.721 172.58 265.966C172.089 266.027 171.598 266.027 171.168 266.027C170.432 266.027 169.756 265.966 169.142 265.782C168.344 265.536 167.669 265.168 167.117 264.677C166.503 264.125 166.012 263.326 165.643 262.344C165.214 261.239 165.029 259.95 165.029 258.416C165.029 256.881 165.275 255.408 165.705 254.118C166.134 252.829 166.748 251.786 167.546 250.865C168.283 250.005 169.142 249.269 170.186 248.778C171.291 248.225 172.457 247.857 173.869 247.673C174.299 247.611 174.729 247.611 175.158 247.611C176.263 247.611 177.184 247.796 178.044 248.164C179.394 248.778 180.683 249.76 181.85 251.11L185.349 255.039L197.994 242.209V266.15H197.81ZM226.478 219.189L234.09 218.268V236.193L226.478 237.114V219.189ZM243.605 172.719L246.122 172.412V191.749L243.605 192.056V172.719ZM156.435 183.769L159.443 183.4C159.934 183.339 160.364 183.339 160.732 183.339C161.592 183.339 161.899 183.462 161.96 183.462C162.021 183.523 162.144 183.892 162.144 184.505C162.144 185.61 161.837 186.163 161.469 186.47C160.978 187.022 159.812 187.391 158.277 187.575L156.497 187.82V183.769H156.435ZM160.671 212.682C166.871 211.945 172.335 210.165 176.939 207.526C181.665 204.763 185.41 201.203 188.05 196.906C188.295 196.476 188.541 195.985 188.786 195.555V223.855L197.749 222.75V229.379C194.986 227.047 191.856 225.266 188.234 224.1C184.919 222.995 181.174 222.443 177.245 222.443C175.404 222.443 173.439 222.565 171.475 222.811C166.441 223.425 161.776 224.837 157.479 226.924C157.111 227.108 156.742 227.292 156.313 227.538V213.235L160.671 212.682ZM109.229 272.043C109.658 271.368 110.027 270.693 110.395 269.956V285.794L104.502 277.814C106.282 276.095 107.878 274.131 109.229 272.043ZM97.8106 236.193C102.476 235.273 106.65 233.738 110.334 231.589V246.384C109.904 245.647 109.474 244.91 108.983 244.235C106.343 240.49 102.599 237.789 97.8106 236.193ZM139.001 229.932L155.637 227.906C152.077 229.871 148.946 232.326 146.184 235.211C143.114 238.465 140.72 242.148 138.94 246.199V229.932H139.001ZM118.253 225.266C122.611 220.54 125.373 214.708 126.54 207.955V229.625L110.334 231.589C113.342 229.871 115.92 227.783 118.253 225.266ZM84.1827 260.257C84.1827 261.239 83.9371 261.608 83.6302 261.915C83.446 262.099 82.8322 262.651 80.8064 262.897L79.4559 263.081V259.889L82.0342 259.582C82.4639 259.52 82.8322 259.52 83.2005 259.52C83.6916 259.52 83.9985 259.582 84.1213 259.643C84.1827 259.643 84.1827 259.889 84.1827 260.257ZM53.5506 347.427C52.5684 349.268 51.2792 350.68 49.6218 351.724C47.8416 352.829 45.6316 353.565 43.1761 353.872L39.0632 354.363V332.08L44.3425 331.405C45.0791 331.282 45.8158 331.282 46.5524 331.282C48.0257 331.282 49.3762 331.527 50.4812 331.957C51.8931 332.51 52.9367 333.369 53.7347 334.658C54.5941 336.07 55.0238 338.096 55.0238 340.551C55.0238 343.252 54.5327 345.524 53.5506 347.427ZM95.9076 306.973C92.1016 311.024 89.0937 315.628 86.9451 320.662C86.454 321.828 86.0243 322.995 85.656 324.161C84.7352 321.767 83.5688 319.496 82.1569 317.47C78.3509 312.006 73.0103 308.016 66.3191 305.622C63.925 304.763 61.4081 304.149 58.8298 303.781L79.5173 301.264V290.214L87.0065 300.343L108.246 297.765C103.52 300.22 99.4067 303.289 95.9076 306.973ZM136.362 336.193C135.809 337.789 135.011 339.201 134.029 340.367C133.047 341.534 131.88 342.454 130.591 343.191C129.302 343.928 127.89 344.357 126.356 344.542C125.865 344.603 125.373 344.603 124.944 344.603C124.023 344.603 123.163 344.48 122.427 344.235C121.322 343.928 120.34 343.375 119.48 342.577C118.621 341.779 118.007 340.797 117.454 339.508C116.902 338.096 116.595 336.316 116.595 334.29C116.595 332.203 116.902 330.3 117.454 328.642C118.007 327.046 118.805 325.634 119.787 324.468C120.769 323.302 121.936 322.381 123.225 321.644C124.514 320.908 125.926 320.478 127.461 320.294C127.952 320.232 128.443 320.232 128.872 320.232C129.793 320.232 130.591 320.355 131.389 320.601C132.494 320.908 133.477 321.46 134.336 322.258C135.195 323.056 135.809 324.038 136.362 325.327C136.914 326.739 137.221 328.52 137.221 330.545C137.221 332.632 136.914 334.535 136.362 336.193ZM191.61 286.899C186.392 289.416 181.85 292.731 178.044 296.721C174.238 300.711 171.23 305.377 169.081 310.472C168.59 311.699 168.16 312.927 167.792 314.155C167.485 313.357 167.178 312.559 166.81 311.761C164.6 307.034 161.469 302.982 157.479 299.79C153.489 296.598 148.823 294.266 143.483 292.915C142.071 292.547 140.597 292.301 139.063 292.056V274.683C140.904 278.55 143.483 281.927 146.798 284.566C150.174 287.267 154.103 289.232 158.645 290.337C161.408 291.012 164.416 291.38 167.424 291.38C169.142 291.38 170.984 291.258 172.826 291.012C178.964 290.275 184.489 288.434 189.277 285.671C192.469 283.83 195.355 281.558 197.872 278.919V284.321C195.662 285.119 193.574 285.917 191.61 286.899ZM213.525 315.014V333.369C212.175 333.86 210.824 334.167 209.474 334.351C208.798 334.413 208.185 334.474 207.571 334.474C206.527 334.474 205.606 334.351 204.747 334.106C203.519 333.737 202.476 333.185 201.616 332.387C200.757 331.589 200.081 330.545 199.59 329.256C199.038 327.844 198.731 326.125 198.731 324.222C198.731 322.135 199.038 320.294 199.59 318.636C200.143 317.04 200.941 315.628 201.984 314.462C202.967 313.296 204.194 312.375 205.668 311.638C207.202 310.901 208.921 310.349 210.886 310.103C211.561 310.042 212.175 309.981 212.789 309.981C214.262 309.981 215.612 310.226 216.84 310.656C218.559 311.331 220.216 312.436 221.751 313.971L213.525 315.014ZM226.478 282.725V262.59L234.09 261.669V282.234L243.237 281.129V292.117C239.308 288.065 234.458 285.119 228.688 283.339C227.951 283.093 227.215 282.909 226.478 282.725ZM230.468 312.927L243.237 300.097V311.331L230.468 312.927Z" stroke="#090909" stroke-opacity="0.2" stroke-miterlimit="10"/>
<path d="M38.2655 221.952C38.7566 221.4 39.0022 220.786 39.0022 220.111C39.0022 219.006 38.3883 218.269 37.2219 217.778C36.0556 217.287 34.4595 216.98 32.4951 216.796C30.5307 216.612 28.3822 216.428 26.0495 216.243C23.7168 216.059 21.3841 215.691 19.0514 215.2C16.7186 214.709 14.5701 213.911 12.6057 212.867C10.6413 211.824 9.10664 210.289 7.8789 208.325C6.71255 206.36 6.09868 203.782 6.09868 200.59C6.09868 196.907 7.14226 193.407 9.22942 190.154C11.3166 186.839 14.3859 184.077 18.4989 181.744C22.6118 179.411 27.7069 177.877 33.8456 177.14C37.8972 176.649 41.826 176.587 45.7547 176.956C49.6835 177.324 53.1826 178.183 56.3133 179.595L50.2974 194.881C47.3508 193.776 44.527 193.039 41.7646 192.609C39.0022 192.241 36.3625 192.18 33.7229 192.487C31.8199 192.732 30.2852 193.101 29.1188 193.53C28.0139 194.021 27.1544 194.574 26.7247 195.188C26.2336 195.802 25.9881 196.477 25.9881 197.152C25.9881 198.196 26.602 198.932 27.7683 199.362C28.9347 199.792 30.5307 200.099 32.4951 200.283C34.4595 200.467 36.6081 200.59 38.9408 200.774C41.2735 200.958 43.6062 201.265 45.9389 201.756C48.2716 202.247 50.4202 203.045 52.3845 204.089C54.3489 205.132 55.8836 206.667 57.1113 208.631C58.2777 210.596 58.8916 213.113 58.8916 216.243C58.8916 219.865 57.848 223.303 55.7608 226.618C53.6737 229.933 50.6043 232.695 46.5528 235.089C42.5012 237.422 37.3447 238.957 31.1446 239.755C26.1723 240.369 21.3227 240.369 16.7186 239.816C12.0532 239.264 8.24722 238.22 5.23926 236.808L11.6849 221.4C14.5087 222.689 17.7008 223.61 21.1385 224.162C24.6376 224.715 28.0139 224.776 31.3288 224.408C33.2318 224.162 34.7664 223.855 35.8714 223.487C36.915 222.935 37.713 222.505 38.2655 221.952ZM71.9056 227.232C77.0008 231.529 84.1217 233.125 93.2683 232.02C102.415 230.915 109.536 227.539 114.631 222.014C119.726 216.428 122.304 209.245 122.304 200.344V167.625L102.599 170.019V202.186C102.599 206.728 101.801 210.043 100.205 212.131C98.609 214.218 96.3377 215.445 93.5139 215.814C90.7515 216.182 88.5415 215.507 86.8841 213.788C85.2266 212.069 84.4286 209 84.4286 204.457V172.29L64.355 174.746V207.465C64.2936 216.305 66.8105 222.873 71.9056 227.232ZM151.525 223.487L131.451 225.943V166.397L160.119 162.898C165.644 162.223 170.493 162.53 174.545 163.819C178.596 165.108 181.727 167.318 183.937 170.449C186.147 173.579 187.252 177.385 187.252 181.989C187.252 186.594 186.147 190.706 183.937 194.328C181.727 197.95 178.596 200.897 174.545 203.291C170.493 205.624 165.705 207.158 160.119 207.833L151.525 208.877V223.487ZM158.83 178.552L151.525 179.473V193.407L158.83 192.487C161.592 192.118 163.679 191.259 164.968 189.847C166.319 188.435 166.994 186.655 166.994 184.506C166.994 182.358 166.319 180.762 164.968 179.657C163.679 178.552 161.592 178.183 158.83 178.552ZM243.237 197.091L213.464 200.774V192.978L238.633 189.908V175.482L213.464 178.552V171.554L242.132 168.055V152.892L193.759 158.847V218.392L243.237 212.315V197.091V197.091ZM271.045 208.816L250.972 211.271V151.726L279.64 148.227C285.164 147.551 290.014 147.858 294.065 149.147C298.117 150.437 301.248 152.646 303.458 155.777C305.668 158.908 306.773 162.714 306.773 167.318C306.773 171.922 305.668 175.974 303.458 179.595C301.555 182.726 298.915 185.366 295.539 187.453L308 204.212L286.576 206.851L276.509 193.101L271.045 193.837V208.816ZM278.35 163.88L271.045 164.801V178.736L278.35 177.815C281.113 177.447 283.2 176.587 284.489 175.176C285.84 173.764 286.515 171.983 286.515 169.835C286.515 167.686 285.84 166.09 284.489 164.985C283.2 163.88 281.174 163.512 278.35 163.88ZM97.5654 276.833L109.29 292.609L89.1554 295.064L79.6404 282.173L74.4839 282.787V296.845L55.638 299.177V243.192L82.587 239.877C87.8049 239.264 92.3475 239.509 96.1535 240.798C99.9595 242.026 102.906 244.113 104.993 246.998C107.08 249.945 108.124 253.505 108.124 257.864C108.124 262.222 107.08 266.028 104.993 269.405C103.213 272.413 100.696 274.868 97.5654 276.833ZM81.4206 254.672L74.5453 255.531V268.668L81.4206 267.809C84.0603 267.502 85.9633 266.642 87.191 265.353C88.4188 264.003 89.094 262.345 89.094 260.319C89.094 258.294 88.4801 256.759 87.191 255.777C85.9633 254.672 84.0603 254.303 81.4206 254.672ZM115.245 291.872L134.091 289.54V233.555L115.245 235.887V291.872ZM186.761 281.498C190.997 279.042 194.496 275.85 197.258 271.922L185.349 262.775C183.691 265.046 181.85 266.888 179.886 268.3C177.86 269.712 175.65 270.51 173.133 270.878C171.169 271.124 169.388 271.001 167.792 270.571C166.196 270.141 164.846 269.343 163.679 268.3C162.513 267.195 161.654 265.844 160.978 264.187C160.364 262.529 159.996 260.626 159.996 258.539C159.996 256.391 160.303 254.426 160.978 252.646C161.592 250.866 162.513 249.27 163.679 247.858C164.846 246.507 166.196 245.402 167.792 244.543C169.388 243.683 171.169 243.192 173.133 242.947C175.65 242.64 177.86 242.947 179.886 243.806C181.911 244.727 183.691 246.078 185.349 247.981L197.258 235.887C194.496 232.634 190.997 230.24 186.761 228.889C182.525 227.477 177.676 227.109 172.151 227.784C167.669 228.337 163.557 229.564 159.751 231.406C155.945 233.309 152.63 235.703 149.867 238.65C147.043 241.596 144.895 244.973 143.36 248.717C141.826 252.462 141.027 256.513 141.027 260.81C141.027 265.108 141.826 268.975 143.36 272.351C144.895 275.728 147.105 278.551 149.867 280.823C152.691 283.094 155.945 284.69 159.751 285.611C163.557 286.532 167.731 286.777 172.151 286.225C177.676 285.549 182.525 283.953 186.761 281.498ZM257.847 274.377V218.392L239.001 220.725V240.553L221.567 242.701V222.873L202.722 225.206V281.191L221.567 278.858V258.232L239.001 256.084V276.71L257.847 274.377ZM78.1671 320.295C81.4206 324.96 83.0167 330.73 83.0167 337.729C83.0167 344.788 81.4206 351.049 78.1671 356.513C74.9136 361.976 70.4323 366.458 64.662 369.895C58.8916 373.333 52.2618 375.543 44.7112 376.464L11.2552 380.577V312.683L44.7112 308.57C52.2618 307.649 58.953 308.201 64.662 310.227C70.4323 312.314 74.9136 315.629 78.1671 320.295ZM59.9351 340.552C59.9351 337.115 59.2599 334.291 57.9094 332.081C56.5589 329.871 54.6559 328.275 52.2618 327.354C49.8677 326.433 46.9825 326.126 43.7903 326.556L34.214 327.722V359.889L43.7903 358.723C47.0439 358.355 49.8677 357.372 52.2618 355.838C54.7172 354.303 56.5589 352.277 57.9094 349.638C59.2599 347.121 59.9351 344.051 59.9351 340.552ZM162.329 313.849C164.232 317.9 165.214 322.504 165.214 327.722C165.214 332.818 164.232 337.667 162.329 342.21C160.426 346.752 157.725 350.865 154.348 354.487C150.911 358.109 146.859 361.056 142.255 363.388C137.59 365.721 132.495 367.194 127.031 367.87C121.445 368.545 116.35 368.299 111.684 367.133C107.019 365.967 102.967 364.002 99.5298 361.178C96.0921 358.416 93.4525 354.978 91.5495 350.865C89.6465 346.752 88.6643 342.148 88.6643 337.053C88.6643 331.897 89.6465 327.047 91.5495 322.504C93.4525 317.962 96.0921 313.91 99.5298 310.288C102.967 306.667 107.019 303.72 111.684 301.387C116.35 299.055 121.445 297.581 126.97 296.906C132.556 296.231 137.651 296.476 142.317 297.643C146.982 298.809 151.034 300.773 154.41 303.597C157.786 306.421 160.426 309.797 162.329 313.849ZM142.132 330.546C142.132 327.907 141.764 325.574 140.966 323.548C140.168 321.522 139.124 319.926 137.713 318.637C136.301 317.348 134.705 316.427 132.863 315.875C131.021 315.322 129.057 315.199 126.908 315.445C124.76 315.691 122.796 316.366 120.954 317.348C119.112 318.33 117.516 319.681 116.104 321.277C114.692 322.873 113.649 324.837 112.851 326.986C112.053 329.196 111.684 331.59 111.684 334.229C111.684 336.869 112.053 339.202 112.851 341.228C113.649 343.253 114.692 344.849 116.104 346.139C117.516 347.428 119.112 348.348 120.954 348.901C122.796 349.453 124.76 349.576 126.908 349.331C129.057 349.085 131.021 348.41 132.863 347.428C134.705 346.445 136.301 345.095 137.713 343.499C139.124 341.903 140.168 339.938 140.966 337.79C141.764 335.641 142.132 333.247 142.132 330.546ZM198.363 311.271C199.775 309.613 201.494 308.263 203.581 307.219C205.607 306.176 207.878 305.5 210.395 305.193C213.403 304.825 216.227 305.132 218.682 306.053C221.199 307.035 223.47 308.57 225.619 310.78L240.29 296.108C236.853 292.302 232.494 289.601 227.276 288.005C221.997 286.409 215.981 285.979 209.29 286.839C203.642 287.514 198.486 289.049 193.82 291.32C189.155 293.591 185.103 296.538 181.666 300.16C178.228 303.72 175.588 307.833 173.685 312.376C171.782 316.918 170.862 321.829 170.862 327.047C170.862 332.265 171.782 336.93 173.685 341.043C175.588 345.156 178.167 348.594 181.604 351.295C184.981 354.057 189.032 356.022 193.636 357.127C198.24 358.293 203.335 358.477 208.799 357.863C213.771 357.25 218.928 355.899 224.207 353.751C229.486 351.602 234.213 348.901 238.387 345.586V316.857L218.498 319.312V336.501C218.252 336.624 218.007 336.746 217.7 336.869C215.244 338.035 212.728 338.772 210.149 339.079C207.694 339.386 205.484 339.263 203.52 338.711C201.555 338.158 199.836 337.237 198.424 335.887C197.013 334.598 195.908 332.94 195.109 330.915C194.311 328.889 193.943 326.617 193.943 324.101C193.943 321.461 194.311 319.067 195.109 316.857C195.846 314.831 196.951 312.928 198.363 311.271ZM270.616 322.566L299.345 319.067V302.554L270.616 306.053V298.072L303.274 294.082V276.833L248.087 283.585V351.479L304.501 344.542V327.293L270.554 331.467V322.566H270.616Z" stroke="#090909" stroke-opacity="0.2" stroke-miterlimit="10"/>
</g>
<g opacity="0.36">
<path d="M670.736 254.118L674.726 253.627V226.494L629.3 232.08V169.956L642.498 168.36V155.898L650.908 167.316L683.566 163.326L668.956 143.682C671.043 141.841 672.762 139.754 674.174 137.421C676.875 133.062 678.225 128.09 678.225 122.565C678.225 116.979 676.814 112.129 673.99 108.201C671.166 104.211 667.176 101.387 662.142 99.7293C659.011 98.6857 655.451 98.1946 651.645 98.1946C649.742 98.1946 647.716 98.3173 645.629 98.5629L612.664 102.614L555.451 109.613V124.284C555.144 123.793 554.837 123.302 554.469 122.811C551.645 118.821 547.655 115.997 542.621 114.339C539.491 113.296 535.93 112.805 532.124 112.805C530.221 112.805 528.195 112.927 526.108 113.173L493.143 117.225L464.23 120.785V157.249C464.23 161.853 463.248 163.633 462.818 164.186C462.02 165.229 460.977 165.782 459.442 165.966C459.196 166.027 458.951 166.027 458.705 166.027C457.723 166.027 457.293 165.72 456.925 165.413C456.864 165.352 455.82 164.247 455.82 159.459V121.767L425.925 125.45V130.607L424.82 130.116C421.259 128.52 417.146 127.538 412.788 127.108C410.946 126.924 409.105 126.862 407.263 126.862C404.807 126.862 402.291 127.047 399.835 127.353C393.082 128.151 387.312 129.932 382.647 132.571C377.858 135.272 374.114 138.649 371.658 142.639C369.08 146.69 367.791 151.11 367.791 155.714C367.791 159.766 368.65 163.203 370.308 165.966C371.597 168.053 373.193 169.833 375.157 171.245L365.52 194.327L369.694 196.352C373.193 198.071 377.49 199.176 382.708 199.79C385.102 200.097 387.619 200.22 390.075 200.22C392.776 200.22 395.538 200.036 398.362 199.729C405.176 198.869 410.946 197.151 415.612 194.45C420.4 191.687 424.083 188.311 426.538 184.382C427.766 182.479 428.687 180.453 429.301 178.427C430.836 181.435 432.861 184.075 435.378 186.224C437.834 188.311 440.657 189.845 443.85 190.95L417.392 194.204V258.538C415.243 258.538 412.972 258.722 410.701 258.967L372.948 263.633V341.41L411.928 336.622C420.154 335.64 427.521 333.184 433.843 329.378C440.289 325.511 445.384 320.416 449.006 314.277C450.541 311.637 451.769 308.875 452.689 305.928C452.996 306.726 453.303 307.524 453.671 308.323C455.881 313.111 459.012 317.162 463.002 320.354C466.992 323.547 471.719 325.879 477.06 327.23C480.375 328.089 483.935 328.457 487.68 328.457C489.828 328.457 492.038 328.335 494.248 328.028C500.264 327.291 505.912 325.634 511.068 323.055C516.225 320.477 520.768 317.162 524.574 313.111C528.38 309.059 531.388 304.455 533.536 299.36C534.027 298.194 534.457 297.027 534.825 295.8C535.132 296.659 535.439 297.518 535.807 298.316C538.017 303.105 541.087 307.156 545.077 310.348C549.006 313.54 553.732 315.812 559.012 317.162C562.265 317.96 565.826 318.39 569.447 318.39C571.535 318.39 573.745 318.267 575.955 317.96C581.357 317.285 586.943 315.812 592.59 313.54C598.299 311.208 603.456 308.261 607.937 304.701L609.779 303.227V312.251L676.015 304.087V276.954L670.798 277.568V254.118H670.736ZM642.437 124.284L645.445 123.916C645.936 123.854 646.366 123.854 646.734 123.854C647.532 123.854 647.839 123.977 647.962 124.039C648.023 124.161 648.146 124.468 648.146 125.082C648.146 126.187 647.839 126.74 647.47 127.047C646.979 127.599 645.813 127.967 644.278 128.151L642.498 128.397V124.284H642.437ZM421.136 154.916C420.829 154.732 420.522 154.609 420.216 154.425L425.802 140.245V158.661C424.513 157.126 422.917 155.837 421.136 154.916ZM564.291 221.337L550.847 210.963L547.901 215.076C546.55 216.917 545.138 218.39 543.604 219.434C542.253 220.355 540.78 220.907 539.061 221.153C538.57 221.214 538.079 221.214 537.649 221.214C536.912 221.214 536.237 221.153 535.623 220.969C534.825 220.723 534.15 220.355 533.597 219.864C532.984 219.311 532.492 218.513 532.124 217.531C531.694 216.426 531.51 215.137 531.51 213.602C531.51 212.068 531.756 210.594 532.186 209.305C532.615 208.016 533.229 206.972 534.027 206.052C534.764 205.192 535.623 204.456 536.667 203.965C537.772 203.412 538.938 203.044 540.35 202.86C540.78 202.798 541.209 202.798 541.639 202.798C542.744 202.798 543.665 202.982 544.524 203.351C545.875 203.965 547.164 204.947 548.33 206.297L551.829 210.226L564.475 197.396V221.337H564.291ZM592.959 174.376L600.571 173.455V191.38L592.959 192.301V174.376ZM610.086 127.906L612.603 127.599V146.936L610.086 147.243V127.906ZM522.916 138.956L525.924 138.587C526.415 138.526 526.845 138.526 527.213 138.526C528.073 138.526 528.38 138.649 528.441 138.649C528.502 138.71 528.625 139.078 528.625 139.692C528.625 140.797 528.318 141.35 527.95 141.657C527.459 142.209 526.292 142.577 524.758 142.762L522.978 143.007V138.956H522.916ZM527.152 167.869C533.352 167.132 538.815 165.352 543.419 162.712C548.146 159.95 551.891 156.39 554.53 152.092C554.776 151.663 555.022 151.172 555.267 150.742V179.041L564.23 177.936V184.566C561.467 182.233 558.336 180.453 554.715 179.287C551.4 178.182 547.655 177.629 543.726 177.629C541.885 177.629 539.92 177.752 537.956 177.998C532.922 178.612 528.257 180.024 523.96 182.111C523.591 182.295 523.223 182.479 522.793 182.725V168.421L527.152 167.869ZM475.709 227.23C476.139 226.555 476.507 225.88 476.876 225.143V240.981L470.983 233.001C472.763 231.282 474.359 229.317 475.709 227.23ZM464.291 191.38C468.957 190.459 473.131 188.925 476.814 186.776V201.57C476.385 200.834 475.955 200.097 475.464 199.422C472.824 195.677 469.08 192.976 464.291 191.38ZM505.482 185.119L522.118 183.093C518.558 185.057 515.427 187.513 512.664 190.398C509.595 193.651 507.201 197.335 505.421 201.386V185.119H505.482ZM484.733 180.453C489.092 175.726 491.854 169.895 493.021 163.142V184.812L476.814 186.776C479.822 185.057 482.401 182.97 484.733 180.453ZM450.664 215.444C450.664 216.426 450.418 216.794 450.111 217.101C449.927 217.286 449.313 217.838 447.287 218.084L445.937 218.268V215.076L448.515 214.769C448.945 214.707 449.313 214.707 449.681 214.707C450.172 214.707 450.479 214.769 450.602 214.83C450.664 214.83 450.664 215.076 450.664 215.444ZM420.031 302.614C419.049 304.455 417.76 305.867 416.103 306.911C414.322 308.016 412.112 308.752 409.657 309.059L405.544 309.55V287.267L410.823 286.591C411.56 286.469 412.297 286.469 413.033 286.469C414.507 286.469 415.857 286.714 416.962 287.144C418.374 287.696 419.418 288.556 420.216 289.845C421.075 291.257 421.505 293.283 421.505 295.738C421.505 298.439 421.014 300.711 420.031 302.614ZM462.388 262.159C458.582 266.211 455.574 270.815 453.426 275.849C452.935 277.015 452.505 278.181 452.137 279.348C451.216 276.954 450.05 274.682 448.638 272.657C444.832 267.193 439.491 263.203 432.8 260.809C430.406 259.949 427.889 259.336 425.311 258.967L445.998 256.45V245.401L453.487 255.53L474.727 252.951C470 255.407 465.888 258.476 462.388 262.159ZM502.843 291.38C502.29 292.976 501.492 294.388 500.51 295.554C499.528 296.72 498.361 297.641 497.072 298.378C495.783 299.114 494.371 299.544 492.836 299.728C492.345 299.79 491.854 299.79 491.425 299.79C490.504 299.79 489.644 299.667 488.908 299.421C487.803 299.114 486.821 298.562 485.961 297.764C485.102 296.966 484.488 295.984 483.935 294.695C483.383 293.283 483.076 291.502 483.076 289.477C483.076 287.39 483.383 285.487 483.935 283.829C484.488 282.233 485.286 280.821 486.268 279.655C487.25 278.488 488.417 277.568 489.706 276.831C490.995 276.094 492.407 275.665 493.941 275.48C494.432 275.419 494.924 275.419 495.353 275.419C496.274 275.419 497.072 275.542 497.87 275.787C498.975 276.094 499.957 276.647 500.817 277.445C501.676 278.243 502.29 279.225 502.843 280.514C503.395 281.926 503.702 283.706 503.702 285.732C503.702 287.819 503.395 289.722 502.843 291.38ZM558.091 242.086C552.873 244.603 548.33 247.918 544.524 251.908C540.718 255.898 537.71 260.563 535.562 265.659C535.071 266.886 534.641 268.114 534.273 269.342C533.966 268.544 533.659 267.746 533.291 266.948C531.081 262.221 527.95 258.169 523.96 254.977C519.97 251.785 515.304 249.452 509.963 248.102C508.552 247.733 507.078 247.488 505.544 247.242V229.87C507.385 233.737 509.963 237.114 513.278 239.753C516.655 242.454 520.583 244.419 525.126 245.524C527.888 246.199 530.896 246.567 533.904 246.567C535.623 246.567 537.465 246.444 539.306 246.199C545.445 245.462 550.97 243.621 555.758 240.858C558.95 239.017 561.836 236.745 564.352 234.106V239.508C562.142 240.306 560.055 241.104 558.091 242.086ZM580.006 270.201V288.556C578.656 289.047 577.305 289.354 575.955 289.538C575.279 289.599 574.665 289.661 574.052 289.661C573.008 289.661 572.087 289.538 571.228 289.293C570 288.924 568.956 288.372 568.097 287.574C567.238 286.776 566.562 285.732 566.071 284.443C565.519 283.031 565.212 281.312 565.212 279.409C565.212 277.322 565.519 275.48 566.071 273.823C566.624 272.227 567.422 270.815 568.465 269.649C569.448 268.482 570.675 267.562 572.149 266.825C573.683 266.088 575.402 265.536 577.366 265.29C578.042 265.229 578.656 265.167 579.269 265.167C580.743 265.167 582.093 265.413 583.321 265.843C585.04 266.518 586.697 267.623 588.232 269.158L580.006 270.201ZM592.959 237.912V217.777L600.571 216.856V237.42L609.717 236.315V247.304C605.789 243.252 600.939 240.306 595.169 238.525C594.432 238.28 593.695 238.096 592.959 237.912ZM596.949 268.114L609.717 255.284V266.518L596.949 268.114Z" stroke="#090909" stroke-opacity="0.2" stroke-miterlimit="10"/>
<path d="M404.746 177.138C405.237 176.586 405.482 175.972 405.482 175.297C405.482 174.192 404.868 173.455 403.702 172.964C402.536 172.473 400.94 172.166 398.975 171.982C397.011 171.798 394.862 171.613 392.53 171.429C390.197 171.245 387.864 170.877 385.532 170.386C383.199 169.895 381.05 169.097 379.086 168.053C377.121 167.009 375.587 165.475 374.359 163.51C373.193 161.546 372.579 158.968 372.579 155.776C372.579 152.092 373.622 148.593 375.71 145.34C377.797 142.025 380.866 139.262 384.979 136.93C389.092 134.597 394.187 133.062 400.326 132.326C404.377 131.835 408.306 131.773 412.235 132.142C416.164 132.51 419.663 133.369 422.793 134.781L416.778 150.067C413.831 148.962 411.007 148.225 408.245 147.795C405.482 147.427 402.843 147.366 400.203 147.672C398.3 147.918 396.765 148.286 395.599 148.716C394.494 149.207 393.635 149.76 393.205 150.373C392.714 150.987 392.468 151.663 392.468 152.338C392.468 153.381 393.082 154.118 394.248 154.548C395.415 154.978 397.011 155.284 398.975 155.469C400.94 155.653 403.088 155.776 405.421 155.96C407.754 156.144 410.086 156.451 412.419 156.942C414.752 157.433 416.9 158.231 418.865 159.275C420.829 160.318 422.364 161.853 423.591 163.817C424.758 165.782 425.372 168.299 425.372 171.429C425.372 175.051 424.328 178.489 422.241 181.804C420.154 185.119 417.084 187.881 413.033 190.275C408.981 192.608 403.825 194.142 397.625 194.94C392.652 195.554 387.803 195.554 383.199 195.002C378.533 194.449 374.727 193.406 371.719 191.994L378.165 176.586C380.989 177.875 384.181 178.796 387.619 179.348C391.118 179.901 394.494 179.962 397.809 179.594C399.712 179.348 401.247 179.041 402.352 178.673C403.395 178.12 404.193 177.691 404.746 177.138ZM438.386 182.418C443.481 186.715 450.602 188.311 459.749 187.206C468.895 186.101 476.016 182.724 481.111 177.2C486.206 171.613 488.785 164.431 488.785 155.53V122.811L469.079 125.205V157.372C469.079 161.914 468.281 165.229 466.685 167.316C465.089 169.403 462.818 170.631 459.994 171C457.232 171.368 455.022 170.693 453.364 168.974C451.707 167.255 450.909 164.186 450.909 159.643V127.476L430.835 129.932V162.651C430.774 171.491 433.291 178.059 438.386 182.418ZM518.005 178.673L497.931 181.128V121.583L526.599 118.084C532.124 117.409 536.973 117.716 541.025 119.005C545.077 120.294 548.207 122.504 550.417 125.635C552.627 128.765 553.732 132.571 553.732 137.175C553.732 141.779 552.627 145.892 550.417 149.514C548.207 153.136 545.077 156.083 541.025 158.477C536.973 160.809 532.185 162.344 526.599 163.019L518.005 164.063V178.673ZM525.31 133.738L518.005 134.658V148.593L525.31 147.672C528.072 147.304 530.159 146.445 531.449 145.033C532.799 143.621 533.474 141.841 533.474 139.692C533.474 137.544 532.799 135.948 531.449 134.843C530.159 133.738 528.072 133.369 525.31 133.738ZM609.717 152.276L579.944 155.96V148.164L605.113 145.094V130.668L579.944 133.738V126.739L608.612 123.24V108.078L560.239 114.032V173.578L609.717 167.5V152.276V152.276ZM637.525 164.001L617.452 166.457V106.911L646.12 103.412C651.644 102.737 656.494 103.044 660.546 104.333C664.597 105.622 667.728 107.832 669.938 110.963C672.148 114.094 673.253 117.9 673.253 122.504C673.253 127.108 672.148 131.159 669.938 134.781C668.035 137.912 665.395 140.552 662.019 142.639L674.48 159.397L653.056 162.037L642.989 148.286L637.525 148.962V164.001V164.001ZM644.831 119.066L637.525 119.987V133.922L644.831 133.001C647.593 132.633 649.68 131.773 650.969 130.361C652.32 128.949 652.995 127.169 652.995 125.021C652.995 122.872 652.32 121.276 650.969 120.171C649.68 119.066 647.654 118.698 644.831 119.066ZM464.046 232.018L475.771 247.795L455.636 250.25L446.121 237.359L440.964 237.973V252.03L422.118 254.363V198.378L449.067 195.063C454.285 194.449 458.828 194.695 462.634 195.984C466.44 197.212 469.386 199.299 471.473 202.184C473.561 205.131 474.604 208.691 474.604 213.05C474.604 217.408 473.561 221.214 471.473 224.59C469.693 227.598 467.176 230.054 464.046 232.018ZM447.901 209.858L441.025 210.717V223.854L447.901 222.994C450.54 222.687 452.443 221.828 453.671 220.539C454.899 219.188 455.574 217.531 455.574 215.505C455.574 213.479 454.96 211.945 453.671 210.963C452.443 209.858 450.54 209.489 447.901 209.858ZM481.725 247.058L500.571 244.725V188.74L481.725 191.073V247.058ZM553.241 236.684C557.477 234.228 560.976 231.036 563.738 227.107L551.829 217.961C550.172 220.232 548.33 222.074 546.366 223.485C544.34 224.897 542.13 225.695 539.613 226.064C537.649 226.309 535.868 226.187 534.272 225.757C532.676 225.327 531.326 224.529 530.159 223.485C528.993 222.381 528.134 221.03 527.458 219.373C526.845 217.715 526.476 215.812 526.476 213.725C526.476 211.576 526.783 209.612 527.458 207.832C528.072 206.052 528.993 204.456 530.159 203.044C531.326 201.693 532.676 200.588 534.272 199.729C535.868 198.869 537.649 198.378 539.613 198.133C542.13 197.826 544.34 198.133 546.366 198.992C548.391 199.913 550.172 201.263 551.829 203.166L563.738 191.073C560.976 187.82 557.477 185.425 553.241 184.075C549.005 182.663 544.156 182.295 538.631 182.97C534.15 183.523 530.037 184.75 526.231 186.592C522.425 188.495 519.11 190.889 516.347 193.836C513.524 196.782 511.375 200.158 509.84 203.903C508.306 207.648 507.508 211.699 507.508 215.996C507.508 220.293 508.306 224.161 509.84 227.537C511.375 230.913 513.585 233.737 516.347 236.008C519.171 238.28 522.425 239.876 526.231 240.797C530.037 241.717 534.211 241.963 538.631 241.411C544.156 240.735 549.005 239.139 553.241 236.684ZM624.327 229.563V173.578L605.481 175.911V195.739L588.047 197.887V178.059L569.202 180.392V236.377L588.047 234.044V213.418L605.481 211.269V231.896L624.327 229.563ZM444.647 275.48C447.901 280.146 449.497 285.916 449.497 292.914C449.497 299.974 447.901 306.235 444.647 311.699C441.394 317.162 436.912 321.643 431.142 325.081C425.372 328.519 418.742 330.729 411.191 331.65L377.735 335.762V267.868L411.191 263.755C418.742 262.835 425.433 263.387 431.142 265.413C436.912 267.5 441.394 270.815 444.647 275.48ZM426.415 295.738C426.415 292.3 425.74 289.477 424.39 287.267C423.039 285.057 421.136 283.461 418.742 282.54C416.348 281.619 413.463 281.312 410.27 281.742L400.694 282.908V315.075L410.27 313.909C413.524 313.54 416.348 312.558 418.742 311.023C421.197 309.489 423.039 307.463 424.39 304.823C425.74 302.307 426.415 299.237 426.415 295.738ZM528.809 269.035C530.712 273.086 531.694 277.69 531.694 282.908C531.694 288.003 530.712 292.853 528.809 297.396C526.906 301.938 524.205 306.051 520.829 309.673C517.391 313.295 513.339 316.241 508.735 318.574C504.07 320.907 498.975 322.38 493.511 323.055C487.925 323.731 482.83 323.485 478.165 322.319C473.499 321.152 469.448 319.188 466.01 316.364C462.572 313.602 459.933 310.164 458.03 306.051C456.127 301.938 455.144 297.334 455.144 292.239C455.144 287.083 456.127 282.233 458.03 277.69C459.933 273.148 462.572 269.096 466.01 265.474C469.448 261.852 473.499 258.906 478.165 256.573C482.83 254.24 487.925 252.767 493.45 252.092C499.036 251.417 504.131 251.662 508.797 252.829C513.462 253.995 517.514 255.959 520.89 258.783C524.266 261.607 526.906 264.983 528.809 269.035ZM508.613 285.732C508.613 283.092 508.244 280.76 507.446 278.734C506.648 276.708 505.605 275.112 504.193 273.823C502.781 272.534 501.185 271.613 499.343 271.06C497.502 270.508 495.537 270.385 493.389 270.631C491.24 270.876 489.276 271.552 487.434 272.534C485.592 273.516 483.996 274.866 482.584 276.463C481.173 278.059 480.129 280.023 479.331 282.172C478.533 284.381 478.165 286.776 478.165 289.415C478.165 292.055 478.533 294.388 479.331 296.413C480.129 298.439 481.173 300.035 482.584 301.324C483.996 302.613 485.592 303.534 487.434 304.087C489.276 304.639 491.24 304.762 493.389 304.516C495.537 304.271 497.502 303.596 499.343 302.613C501.185 301.631 502.781 300.281 504.193 298.685C505.605 297.089 506.648 295.124 507.446 292.976C508.244 290.827 508.613 288.433 508.613 285.732ZM564.843 266.456C566.255 264.799 567.974 263.448 570.061 262.405C572.087 261.361 574.358 260.686 576.875 260.379C579.883 260.011 582.707 260.318 585.162 261.239C587.679 262.221 589.95 263.755 592.099 265.965L606.771 251.294C603.333 247.488 598.974 244.787 593.756 243.191C588.477 241.595 582.461 241.165 575.77 242.024C570.122 242.7 564.966 244.234 560.301 246.506C555.635 248.777 551.584 251.724 548.146 255.345C544.708 258.906 542.069 263.019 540.166 267.561C538.263 272.104 537.342 277.015 537.342 282.233C537.342 287.451 538.263 292.116 540.166 296.229C542.069 300.342 544.647 303.78 548.084 306.481C551.461 309.243 555.512 311.208 560.116 312.313C564.72 313.479 569.815 313.663 575.279 313.049C580.251 312.435 585.408 311.085 590.687 308.936C595.966 306.788 600.693 304.087 604.868 300.772V272.043L584.978 274.498V291.687C584.733 291.809 584.487 291.932 584.18 292.055C581.725 293.221 579.208 293.958 576.629 294.265C574.174 294.572 571.964 294.449 570 293.896C568.035 293.344 566.316 292.423 564.905 291.073C563.493 289.784 562.388 288.126 561.59 286.1C560.792 284.075 560.423 281.803 560.423 279.286C560.423 276.647 560.792 274.253 561.59 272.043C562.326 270.017 563.431 268.114 564.843 266.456ZM637.096 277.752L665.825 274.253V257.739L637.096 261.239V253.258L669.754 249.268V232.018L614.567 238.771V306.665L670.981 299.728V282.478L637.034 286.653V277.752H637.096Z" stroke="#090909" stroke-opacity="0.2" stroke-miterlimit="10"/>
</g>
<g opacity="0.36">
<path d="M1030.46 209.306L1034.45 208.815V181.682L989.028 187.268V125.144L1002.23 123.548V111.086L1010.64 122.504L1043.29 118.514L1028.68 98.8704C1030.77 97.0288 1032.49 94.9416 1033.9 92.6089C1036.6 88.2504 1037.95 83.2781 1037.95 77.7532C1037.95 72.167 1036.54 67.3174 1033.72 63.3887C1030.89 59.3985 1026.9 56.5747 1021.87 54.9172C1018.74 53.8737 1015.18 53.3826 1011.37 53.3826C1009.47 53.3826 1007.44 53.5053 1005.36 53.7509L972.392 57.8024L915.18 64.8005V79.4721C914.873 78.981 914.566 78.4899 914.197 77.9988C911.373 74.0086 907.383 71.1848 902.35 69.5274C899.219 68.4838 895.658 67.9927 891.852 67.9927C889.949 67.9927 887.924 68.1154 885.836 68.361L852.872 72.4126L823.958 75.973V112.437C823.958 117.041 822.976 118.821 822.546 119.374C821.748 120.417 820.705 120.97 819.17 121.154C818.925 121.215 818.679 121.215 818.433 121.215C817.451 121.215 817.022 120.908 816.653 120.601C816.592 120.54 815.548 119.435 815.548 114.647V76.9552L785.653 80.6384V85.7949L784.548 85.3038C780.987 83.7078 776.874 82.7256 772.516 82.2959C770.674 82.1117 768.833 82.0503 766.991 82.0503C764.536 82.0503 762.019 82.2345 759.563 82.5414C752.811 83.3395 747.04 85.1197 742.375 87.7593C737.587 90.4604 733.842 93.8366 731.387 97.8268C728.808 101.878 727.519 106.298 727.519 110.902C727.519 114.954 728.379 118.391 730.036 121.154C731.325 123.241 732.921 125.021 734.886 126.433L725.248 149.515L729.422 151.54C732.921 153.259 737.218 154.364 742.436 154.978C744.83 155.285 747.347 155.408 749.803 155.408C752.504 155.408 755.266 155.224 758.09 154.917C764.904 154.057 770.674 152.339 775.34 149.637C780.128 146.875 783.811 143.499 786.267 139.57C787.494 137.667 788.415 135.641 789.029 133.615C790.564 136.623 792.589 139.263 795.106 141.412C797.562 143.499 800.386 145.033 803.578 146.138L777.12 149.392V213.726C774.971 213.726 772.7 213.91 770.429 214.155L732.676 218.821V296.598L771.657 291.81C779.882 290.828 787.249 288.372 793.572 284.566C800.017 280.699 805.113 275.604 808.734 269.465C810.269 266.825 811.497 264.063 812.418 261.116C812.724 261.914 813.031 262.712 813.4 263.511C815.61 268.299 818.74 272.35 822.731 275.542C826.721 278.734 831.448 281.067 836.788 282.418C840.103 283.277 843.664 283.645 847.408 283.645C849.557 283.645 851.767 283.523 853.977 283.216C859.993 282.479 865.64 280.822 870.797 278.243C875.953 275.665 880.496 272.35 884.302 268.299C888.108 264.247 891.116 259.643 893.264 254.548C893.755 253.382 894.185 252.215 894.553 250.988C894.86 251.847 895.167 252.706 895.536 253.504C897.746 258.293 900.815 262.344 904.805 265.536C908.734 268.728 913.461 271 918.74 272.35C921.993 273.148 925.554 273.578 929.176 273.578C931.263 273.578 933.473 273.455 935.683 273.148C941.085 272.473 946.671 271 952.319 268.728C958.028 266.396 963.184 263.449 967.665 259.889L969.507 258.415V267.439L1035.74 259.275V232.142L1030.53 232.756V209.306H1030.46ZM1002.16 79.4721L1005.17 79.1037C1005.66 79.0423 1006.09 79.0424 1006.46 79.0424C1007.26 79.0424 1007.57 79.1651 1007.69 79.2265C1007.75 79.3493 1007.87 79.6562 1007.87 80.2701C1007.87 81.3751 1007.57 81.9276 1007.2 82.2345C1006.71 82.787 1005.54 83.1553 1004.01 83.3395L1002.23 83.585V79.4721H1002.16ZM780.865 110.104C780.558 109.92 780.251 109.797 779.944 109.613L785.53 95.4327V113.849C784.241 112.314 782.645 111.025 780.865 110.104ZM924.019 176.525L910.575 166.151L907.629 170.264C906.278 172.105 904.866 173.578 903.332 174.622C901.981 175.543 900.508 176.095 898.789 176.341C898.298 176.402 897.807 176.402 897.377 176.402C896.641 176.402 895.965 176.341 895.351 176.157C894.553 175.911 893.878 175.543 893.326 175.052C892.712 174.499 892.221 173.701 891.852 172.719C891.423 171.614 891.239 170.325 891.239 168.79C891.239 167.256 891.484 165.782 891.914 164.493C892.344 163.204 892.957 162.16 893.755 161.24C894.492 160.38 895.351 159.644 896.395 159.152C897.5 158.6 898.666 158.232 900.078 158.048C900.508 157.986 900.938 157.986 901.367 157.986C902.472 157.986 903.393 158.17 904.253 158.539C905.603 159.152 906.892 160.135 908.059 161.485L911.558 165.414L924.203 152.584V176.525H924.019ZM952.687 129.564L960.299 128.643V146.568L952.687 147.489V129.564ZM969.814 83.0939L972.331 82.787V102.124L969.814 102.431V83.0939ZM882.644 94.1436L885.652 93.7753C886.143 93.7139 886.573 93.7139 886.941 93.7139C887.801 93.7139 888.108 93.8366 888.169 93.8366C888.231 93.898 888.353 94.2663 888.353 94.8802C888.353 95.9852 888.046 96.5377 887.678 96.8446C887.187 97.3971 886.021 97.7654 884.486 97.9496L882.706 98.1951V94.1436H882.644ZM886.88 123.057C893.08 122.32 898.544 120.54 903.148 117.9C907.874 115.138 911.619 111.578 914.259 107.28C914.504 106.851 914.75 106.36 914.995 105.93V134.229L923.958 133.124V139.754C921.195 137.421 918.065 135.641 914.443 134.475C911.128 133.37 907.383 132.817 903.455 132.817C901.613 132.817 899.649 132.94 897.684 133.186C892.65 133.8 887.985 135.212 883.688 137.299C883.32 137.483 882.951 137.667 882.522 137.913V123.609L886.88 123.057ZM835.438 182.418C835.867 181.743 836.236 181.068 836.604 180.331V196.169L830.711 188.189C832.491 186.47 834.087 184.505 835.438 182.418ZM824.02 146.568C828.685 145.647 832.859 144.113 836.543 141.964V156.758C836.113 156.022 835.683 155.285 835.192 154.61C832.553 150.865 828.808 148.164 824.02 146.568ZM865.21 140.307L881.846 138.281C878.286 140.245 875.155 142.701 872.393 145.586C869.323 148.839 866.929 152.523 865.149 156.574V140.307H865.21ZM844.462 135.641C848.82 130.914 851.582 125.083 852.749 118.33V140L836.543 141.964C839.551 140.245 842.129 138.158 844.462 135.641ZM810.392 170.632C810.392 171.614 810.146 171.982 809.839 172.289C809.655 172.473 809.041 173.026 807.015 173.272L805.665 173.456V170.264L808.243 169.957C808.673 169.895 809.041 169.895 809.41 169.895C809.901 169.895 810.208 169.957 810.33 170.018C810.392 170.018 810.392 170.264 810.392 170.632ZM779.76 257.802C778.777 259.643 777.488 261.055 775.831 262.099C774.051 263.204 771.841 263.94 769.385 264.247L765.272 264.738V242.455L770.552 241.779C771.288 241.657 772.025 241.657 772.762 241.657C774.235 241.657 775.585 241.902 776.69 242.332C778.102 242.884 779.146 243.744 779.944 245.033C780.803 246.445 781.233 248.471 781.233 250.926C781.233 253.627 780.742 255.899 779.76 257.802ZM822.117 217.347C818.311 221.399 815.303 226.003 813.154 231.037C812.663 232.203 812.233 233.369 811.865 234.536C810.944 232.142 809.778 229.87 808.366 227.845C804.56 222.381 799.219 218.391 792.528 215.997C790.134 215.137 787.617 214.524 785.039 214.155L805.726 211.638V200.589L813.216 210.718L834.456 208.139C829.729 210.595 825.616 213.664 822.117 217.347ZM862.571 246.568C862.018 248.164 861.22 249.576 860.238 250.742C859.256 251.908 858.089 252.829 856.8 253.566C855.511 254.302 854.099 254.732 852.565 254.916C852.074 254.978 851.582 254.978 851.153 254.978C850.232 254.978 849.373 254.855 848.636 254.609C847.531 254.302 846.549 253.75 845.689 252.952C844.83 252.154 844.216 251.172 843.664 249.883C843.111 248.471 842.804 246.69 842.804 244.665C842.804 242.578 843.111 240.675 843.664 239.017C844.216 237.421 845.014 236.009 845.996 234.843C846.978 233.676 848.145 232.756 849.434 232.019C850.723 231.282 852.135 230.853 853.67 230.668C854.161 230.607 854.652 230.607 855.082 230.607C856.002 230.607 856.8 230.73 857.598 230.975C858.703 231.282 859.686 231.835 860.545 232.633C861.404 233.431 862.018 234.413 862.571 235.702C863.123 237.114 863.43 238.894 863.43 240.92C863.43 243.007 863.123 244.91 862.571 246.568ZM917.819 197.274C912.601 199.791 908.059 203.106 904.253 207.096C900.447 211.086 897.439 215.751 895.29 220.846C894.799 222.074 894.369 223.302 894.001 224.53C893.694 223.732 893.387 222.934 893.019 222.136C890.809 217.409 887.678 213.357 883.688 210.165C879.698 206.973 875.032 204.64 869.692 203.29C868.28 202.921 866.806 202.676 865.272 202.43V185.058C867.113 188.925 869.692 192.302 873.007 194.941C876.383 197.642 880.312 199.607 884.854 200.712C887.617 201.387 890.625 201.755 893.633 201.755C895.351 201.755 897.193 201.632 899.035 201.387C905.173 200.65 910.698 198.809 915.486 196.046C918.679 194.204 921.564 191.933 924.081 189.294V194.696C921.871 195.494 919.784 196.292 917.819 197.274ZM939.734 225.389V243.744C938.384 244.235 937.033 244.542 935.683 244.726C935.007 244.787 934.394 244.849 933.78 244.849C932.736 244.849 931.815 244.726 930.956 244.481C929.728 244.112 928.685 243.56 927.825 242.762C926.966 241.964 926.291 240.92 925.799 239.631C925.247 238.219 924.94 236.5 924.94 234.597C924.94 232.51 925.247 230.668 925.799 229.011C926.352 227.415 927.15 226.003 928.194 224.837C929.176 223.67 930.403 222.75 931.877 222.013C933.411 221.276 935.13 220.724 937.095 220.478C937.77 220.417 938.384 220.355 938.998 220.355C940.471 220.355 941.821 220.601 943.049 221.031C944.768 221.706 946.425 222.811 947.96 224.346L939.734 225.389ZM952.687 193.1V172.965L960.299 172.044V192.608L969.446 191.503V202.492C965.517 198.44 960.667 195.494 954.897 193.713C954.16 193.468 953.424 193.284 952.687 193.1ZM956.677 223.302L969.446 210.472V221.706L956.677 223.302Z" stroke="#090909" stroke-opacity="0.2" stroke-miterlimit="10"/>
<path d="M764.474 132.326C764.965 131.774 765.211 131.16 765.211 130.485C765.211 129.38 764.597 128.643 763.43 128.152C762.264 127.661 760.668 127.354 758.704 127.17C756.739 126.986 754.591 126.801 752.258 126.617C749.925 126.433 747.593 126.065 745.26 125.574C742.927 125.083 740.779 124.285 738.814 123.241C736.85 122.197 735.315 120.663 734.087 118.698C732.921 116.734 732.307 114.156 732.307 110.964C732.307 107.28 733.351 103.781 735.438 100.528C737.525 97.2128 740.594 94.4504 744.707 92.1177C748.82 89.785 753.915 88.2503 760.054 87.5137C764.106 87.0226 768.035 86.9612 771.963 87.3295C775.892 87.6978 779.391 88.5573 782.522 89.9692L776.506 105.255C773.559 104.15 770.736 103.413 767.973 102.983C765.211 102.615 762.571 102.554 759.931 102.86C758.028 103.106 756.494 103.474 755.327 103.904C754.222 104.395 753.363 104.948 752.933 105.561C752.442 106.175 752.197 106.851 752.197 107.526C752.197 108.569 752.81 109.306 753.977 109.736C755.143 110.166 756.739 110.472 758.704 110.657C760.668 110.841 762.817 110.964 765.149 111.148C767.482 111.332 769.815 111.639 772.147 112.13C774.48 112.621 776.629 113.419 778.593 114.463C780.558 115.506 782.092 117.041 783.32 119.005C784.486 120.97 785.1 123.487 785.1 126.617C785.1 130.239 784.057 133.677 781.969 136.992C779.882 140.307 776.813 143.069 772.761 145.463C768.71 147.796 763.553 149.33 757.353 150.128C752.381 150.742 747.531 150.742 742.927 150.19C738.262 149.637 734.456 148.594 731.448 147.182L737.893 131.774C740.717 133.063 743.909 133.984 747.347 134.536C750.846 135.089 754.222 135.15 757.537 134.782C759.44 134.536 760.975 134.229 762.08 133.861C763.124 133.308 763.922 132.879 764.474 132.326ZM798.114 137.606C803.209 141.903 810.33 143.499 819.477 142.394C828.624 141.289 835.744 137.912 840.84 132.388C845.935 126.801 848.513 119.619 848.513 110.718V77.9987L828.808 80.3928V112.56C828.808 117.102 828.01 120.417 826.414 122.504C824.818 124.591 822.546 125.819 819.722 126.188C816.96 126.556 814.75 125.881 813.093 124.162C811.435 122.443 810.637 119.374 810.637 114.831V82.6641L790.564 85.1196V117.839C790.502 126.679 793.019 133.247 798.114 137.606ZM877.733 133.861L857.66 136.316V76.7709L886.327 73.2719C891.852 72.5966 896.702 72.9035 900.753 74.1927C904.805 75.4818 907.936 77.6918 910.146 80.8225C912.356 83.9532 913.46 87.7592 913.46 92.3633C913.46 96.9673 912.356 101.08 910.146 104.702C907.936 108.324 904.805 111.27 900.753 113.665C896.702 115.997 891.914 117.532 886.327 118.207L877.733 119.251V133.861ZM885.038 88.9256L877.733 89.8464V103.781L885.038 102.86C887.801 102.492 889.888 101.633 891.177 100.221C892.527 98.8089 893.203 97.0287 893.203 94.8801C893.203 92.7316 892.527 91.1355 891.177 90.0306C889.888 88.9256 887.801 88.5572 885.038 88.9256ZM969.445 107.464L939.673 111.148V103.352L964.841 100.282V85.8562L939.673 88.9256V81.9275L968.341 78.4284V63.2658L919.968 69.2203V128.766L969.445 122.688V107.464ZM997.254 119.189L977.18 121.645V62.0994L1005.85 58.6004C1011.37 57.9251 1016.22 58.2321 1020.27 59.5212C1024.33 60.8103 1027.46 63.0202 1029.67 66.151C1031.88 69.2817 1032.98 73.0877 1032.98 77.6917C1032.98 82.2958 1031.88 86.3473 1029.67 89.9692C1027.76 93.0999 1025.12 95.7395 1021.75 97.8267L1034.21 114.585L1012.78 117.225L1002.72 103.474L997.254 104.15V119.189V119.189ZM1004.56 74.2541L997.254 75.1749V89.1098L1004.56 88.189C1007.32 87.8206 1009.41 86.9612 1010.7 85.5493C1012.05 84.1374 1012.72 82.3572 1012.72 80.2086C1012.72 78.0601 1012.05 76.464 1010.7 75.359C1009.41 74.2541 1007.38 73.8858 1004.56 74.2541ZM823.774 187.206L835.499 202.983L815.364 205.438L805.849 192.547L800.692 193.161V207.218L781.847 209.551V153.566L808.796 150.251C814.013 149.637 818.556 149.883 822.362 151.172C826.168 152.4 829.115 154.487 831.202 157.372C833.289 160.319 834.333 163.879 834.333 168.238C834.333 172.596 833.289 176.402 831.202 179.778C829.422 182.786 826.905 185.242 823.774 187.206ZM807.629 165.046L800.754 165.905V179.042L807.629 178.182C810.269 177.875 812.172 177.016 813.4 175.727C814.627 174.376 815.303 172.719 815.303 170.693C815.303 168.667 814.689 167.133 813.4 166.151C812.172 165.046 810.269 164.677 807.629 165.046ZM841.453 202.246L860.299 199.913V143.928L841.453 146.261V202.246ZM912.969 191.872C917.205 189.416 920.704 186.224 923.467 182.295L911.558 173.149C909.9 175.42 908.058 177.262 906.094 178.673C904.068 180.085 901.858 180.883 899.341 181.252C897.377 181.497 895.597 181.375 894.001 180.945C892.405 180.515 891.054 179.717 889.888 178.673C888.721 177.569 887.862 176.218 887.187 174.561C886.573 172.903 886.205 171 886.205 168.913C886.205 166.764 886.512 164.8 887.187 163.02C887.801 161.24 888.721 159.643 889.888 158.232C891.054 156.881 892.405 155.776 894.001 154.917C895.597 154.057 897.377 153.566 899.341 153.321C901.858 153.014 904.068 153.321 906.094 154.18C908.12 155.101 909.9 156.451 911.558 158.354L923.467 146.261C920.704 143.008 917.205 140.613 912.969 139.263C908.734 137.851 903.884 137.483 898.359 138.158C893.878 138.71 889.765 139.938 885.959 141.78C882.153 143.683 878.838 146.077 876.076 149.024C873.252 151.97 871.103 155.346 869.569 159.091C868.034 162.836 867.236 166.887 867.236 171.184C867.236 175.481 868.034 179.349 869.569 182.725C871.103 186.101 873.313 188.925 876.076 191.196C878.9 193.468 882.153 195.064 885.959 195.985C889.765 196.905 893.939 197.151 898.359 196.599C903.884 195.923 908.734 194.327 912.969 191.872ZM984.056 184.751V128.766L965.21 131.098V150.927L947.776 153.075V133.247L928.93 135.58V191.565L947.776 189.232V168.606L965.21 166.457V187.084L984.056 184.751ZM804.376 230.668C807.629 235.334 809.225 241.104 809.225 248.102C809.225 255.162 807.629 261.423 804.376 266.887C801.122 272.35 796.641 276.831 790.871 280.269C785.1 283.707 778.47 285.917 770.92 286.838L737.464 290.95V223.056L770.92 218.943C778.47 218.023 785.162 218.575 790.871 220.601C796.641 222.688 801.122 226.003 804.376 230.668ZM786.144 250.926C786.144 247.488 785.468 244.665 784.118 242.455C782.767 240.245 780.864 238.649 778.47 237.728C776.076 236.807 773.191 236.5 769.999 236.93L760.422 238.096V270.263L769.999 269.097C773.252 268.728 776.076 267.746 778.47 266.211C780.926 264.677 782.767 262.651 784.118 260.011C785.468 257.494 786.144 254.425 786.144 250.926ZM888.537 224.223C890.44 228.274 891.423 232.878 891.423 238.096C891.423 243.191 890.44 248.041 888.537 252.584C886.634 257.126 883.933 261.239 880.557 264.861C877.119 268.483 873.068 271.429 868.464 273.762C863.798 276.095 858.703 277.568 853.24 278.243C847.654 278.919 842.558 278.673 837.893 277.507C833.228 276.34 829.176 274.376 825.738 271.552C822.301 268.79 819.661 265.352 817.758 261.239C815.855 257.126 814.873 252.522 814.873 247.427C814.873 242.27 815.855 237.421 817.758 232.878C819.661 228.336 822.301 224.284 825.738 220.662C829.176 217.04 833.228 214.094 837.893 211.761C842.558 209.428 847.654 207.955 853.178 207.28C858.765 206.605 863.86 206.85 868.525 208.016C873.191 209.183 877.242 211.147 880.618 213.971C883.995 216.795 886.634 220.171 888.537 224.223ZM868.341 240.92C868.341 238.28 867.973 235.948 867.175 233.922C866.377 231.896 865.333 230.3 863.921 229.011C862.509 227.722 860.913 226.801 859.072 226.248C857.23 225.696 855.266 225.573 853.117 225.819C850.968 226.064 849.004 226.74 847.162 227.722C845.321 228.704 843.725 230.054 842.313 231.651C840.901 233.247 839.857 235.211 839.059 237.36C838.261 239.569 837.893 241.964 837.893 244.603C837.893 247.243 838.261 249.576 839.059 251.601C839.857 253.627 840.901 255.223 842.313 256.512C843.725 257.801 845.321 258.722 847.162 259.275C849.004 259.827 850.968 259.95 853.117 259.704C855.266 259.459 857.23 258.784 859.072 257.801C860.913 256.819 862.509 255.469 863.921 253.873C865.333 252.277 866.377 250.312 867.175 248.164C867.973 246.015 868.341 243.621 868.341 240.92ZM924.572 221.644C925.983 219.987 927.702 218.636 929.789 217.593C931.815 216.549 934.087 215.874 936.603 215.567C939.611 215.199 942.435 215.506 944.891 216.427C947.408 217.409 949.679 218.943 951.827 221.153L966.499 206.482C963.061 202.676 958.703 199.975 953.485 198.379C948.206 196.783 942.19 196.353 935.498 197.212C929.851 197.888 924.694 199.422 920.029 201.694C915.363 203.965 911.312 206.912 907.874 210.533C904.437 214.094 901.797 218.207 899.894 222.749C897.991 227.292 897.07 232.203 897.07 237.421C897.07 242.639 897.991 247.304 899.894 251.417C901.797 255.53 904.375 258.968 907.813 261.669C911.189 264.431 915.241 266.396 919.845 267.501C924.449 268.667 929.544 268.851 935.007 268.237C939.98 267.623 945.136 266.273 950.415 264.124C955.695 261.976 960.422 259.275 964.596 255.96V227.231L944.707 229.686V246.875C944.461 246.997 944.215 247.12 943.908 247.243C941.453 248.409 938.936 249.146 936.358 249.453C933.902 249.76 931.692 249.637 929.728 249.084C927.764 248.532 926.045 247.611 924.633 246.261C923.221 244.972 922.116 243.314 921.318 241.288C920.52 239.263 920.152 236.991 920.152 234.474C920.152 231.835 920.52 229.441 921.318 227.231C922.055 225.205 923.16 223.302 924.572 221.644ZM996.824 232.94L1025.55 229.441V212.927L996.824 216.427V208.446L1029.48 204.456V187.206L974.295 193.959V261.853L1030.71 254.916V237.666L996.763 241.841V232.94H996.824Z" stroke="#090909" stroke-opacity="0.2" stroke-miterlimit="10"/>
</g>
<g opacity="0.36">
<path d="M1427.02 157.127L1431.02 156.636V129.503L1385.59 135.089V72.9651L1398.79 71.369V58.9075L1407.2 70.3254L1439.85 66.3353L1425.24 46.6914C1427.33 44.8498 1429.05 42.7626 1430.46 40.4299C1433.16 36.0714 1434.51 31.0991 1434.51 25.5743C1434.51 19.9881 1433.1 15.1385 1430.28 11.2097C1427.45 7.21954 1423.46 4.39574 1418.43 2.73829C1415.3 1.69471 1411.74 1.20361 1407.93 1.20361C1406.03 1.20361 1404 1.32637 1401.92 1.57192L1368.95 5.62347L1311.74 12.6216V27.2931C1311.43 26.802 1311.13 26.3109 1310.76 25.8198C1307.93 21.8297 1303.94 19.0059 1298.91 17.3484C1295.78 16.3048 1292.22 15.8137 1288.41 15.8137C1286.51 15.8137 1284.48 15.9365 1282.4 16.1821L1249.43 20.2336L1220.52 23.794V60.258C1220.52 64.862 1219.54 66.6422 1219.11 67.1947C1218.31 68.2383 1217.27 68.7908 1215.73 68.9749C1215.49 69.0363 1215.24 69.0363 1214.99 69.0363C1214.01 69.0363 1213.58 68.7294 1213.21 68.4225C1213.15 68.3611 1212.11 67.2561 1212.11 62.4679V24.7762L1182.21 28.4595V33.616L1181.11 33.1249C1177.55 31.5288 1173.43 30.5466 1169.08 30.1169C1167.23 29.9327 1165.39 29.8714 1163.55 29.8714C1161.1 29.8714 1158.58 30.0555 1156.12 30.3625C1149.37 31.1605 1143.6 32.9407 1138.94 35.5804C1134.15 38.2814 1130.4 41.6577 1127.95 45.6478C1125.37 49.6994 1124.08 54.1193 1124.08 58.7233C1124.08 62.7749 1124.94 66.2125 1126.6 68.9749C1127.89 71.0621 1129.48 72.8423 1131.45 74.2542L1121.81 97.3358L1125.98 99.3615C1129.48 101.08 1133.78 102.185 1139 102.799C1141.39 103.106 1143.91 103.229 1146.36 103.229C1149.06 103.229 1151.83 103.045 1154.65 102.738C1161.46 101.878 1167.23 100.16 1171.9 97.4585C1176.69 94.6961 1180.37 91.3198 1182.83 87.391C1184.05 85.488 1184.98 83.4623 1185.59 81.4365C1187.12 84.4445 1189.15 87.0841 1191.67 89.2327C1194.12 91.3198 1196.95 92.8545 1200.14 93.9595L1173.68 97.213V161.547C1171.53 161.547 1169.26 161.731 1166.99 161.976L1129.24 166.642V244.419L1168.22 239.631C1176.44 238.649 1183.81 236.193 1190.13 232.387C1196.58 228.52 1201.67 223.425 1205.29 217.286C1206.83 214.646 1208.06 211.884 1208.98 208.937C1209.28 209.735 1209.59 210.534 1209.96 211.332C1212.17 216.12 1215.3 220.171 1219.29 223.363C1223.28 226.556 1228.01 228.888 1233.35 230.239C1236.66 231.098 1240.22 231.467 1243.97 231.467C1246.12 231.467 1248.33 231.344 1250.54 231.037C1256.55 230.3 1262.2 228.643 1267.36 226.064C1272.51 223.486 1277.06 220.171 1280.86 216.12C1284.67 212.068 1287.68 207.464 1289.82 202.369C1290.32 201.203 1290.75 200.036 1291.11 198.809C1291.42 199.668 1291.73 200.527 1292.1 201.325C1294.31 206.114 1297.38 210.165 1301.37 213.357C1305.29 216.549 1310.02 218.821 1315.3 220.171C1318.55 220.969 1322.11 221.399 1325.74 221.399C1327.82 221.399 1330.03 221.276 1332.24 220.969C1337.65 220.294 1343.23 218.821 1348.88 216.549C1354.59 214.217 1359.74 211.27 1364.23 207.71L1366.07 206.236V215.26L1432.3 207.096V179.963L1427.09 180.577V157.127H1427.02ZM1398.73 27.2931L1401.73 26.9248C1402.22 26.8634 1402.65 26.8634 1403.02 26.8634C1403.82 26.8634 1404.13 26.9862 1404.25 27.0476C1404.31 27.1703 1404.43 27.4773 1404.43 28.0911C1404.43 29.1961 1404.13 29.7486 1403.76 30.0555C1403.27 30.608 1402.1 30.9763 1400.57 31.1605L1398.79 31.4061V27.2931H1398.73ZM1177.43 57.9252C1177.12 57.7411 1176.81 57.6183 1176.5 57.4342L1182.09 43.2538V61.6699C1180.8 60.1352 1179.21 58.8461 1177.43 57.9252ZM1320.58 124.346L1307.14 113.972L1304.19 118.085C1302.84 119.926 1301.43 121.4 1299.89 122.443C1298.54 123.364 1297.07 123.916 1295.35 124.162C1294.86 124.223 1294.37 124.223 1293.94 124.223C1293.2 124.223 1292.53 124.162 1291.91 123.978C1291.11 123.732 1290.44 123.364 1289.89 122.873C1289.27 122.32 1288.78 121.522 1288.41 120.54C1287.98 119.435 1287.8 118.146 1287.8 116.611C1287.8 115.077 1288.04 113.603 1288.47 112.314C1288.9 111.025 1289.52 109.982 1290.32 109.061C1291.05 108.201 1291.91 107.465 1292.96 106.974C1294.06 106.421 1295.23 106.053 1296.64 105.869C1297.07 105.807 1297.5 105.807 1297.93 105.807C1299.03 105.807 1299.95 105.991 1300.81 106.36C1302.16 106.974 1303.45 107.956 1304.62 109.306L1308.12 113.235L1320.76 100.405V124.346H1320.58ZM1349.25 77.385L1356.86 76.4642V94.3892L1349.25 95.31V77.385ZM1366.37 30.9149L1368.89 30.608V49.9449L1366.37 50.2519V30.9149ZM1279.2 41.9646L1282.21 41.5963C1282.7 41.5349 1283.13 41.5349 1283.5 41.5349C1284.36 41.5349 1284.67 41.6577 1284.73 41.6577C1284.79 41.7191 1284.91 42.0874 1284.91 42.7013C1284.91 43.8062 1284.61 44.3587 1284.24 44.6657C1283.75 45.2181 1282.58 45.5865 1281.05 45.7706L1279.27 46.0162V41.9646H1279.2ZM1283.44 70.8779C1289.64 70.1413 1295.1 68.3611 1299.71 65.7214C1304.43 62.959 1308.18 59.3986 1310.82 55.1015C1311.06 54.6717 1311.31 54.1806 1311.56 53.7509V82.0504L1320.52 80.9454V87.5752C1317.76 85.2425 1314.63 83.4623 1311 82.2959C1307.69 81.191 1303.94 80.6385 1300.02 80.6385C1298.17 80.6385 1296.21 80.7613 1294.24 81.0068C1289.21 81.6207 1284.55 83.0326 1280.25 85.1198C1279.88 85.3039 1279.51 85.4881 1279.08 85.7336V71.4304L1283.44 70.8779ZM1232 130.239C1232.43 129.564 1232.8 128.889 1233.16 128.152V143.99L1227.27 136.01C1229.05 134.291 1230.65 132.326 1232 130.239ZM1220.58 94.3892C1225.25 93.4684 1229.42 91.9337 1233.1 89.7852V104.579C1232.67 103.843 1232.24 103.106 1231.75 102.431C1229.11 98.6863 1225.37 95.9852 1220.58 94.3892ZM1261.77 88.1277L1278.41 86.1019C1274.85 88.0663 1271.72 90.5218 1268.95 93.407C1265.88 96.6605 1263.49 100.344 1261.71 104.395V88.1277H1261.77ZM1241.02 83.4623C1245.38 78.7355 1248.14 72.9037 1249.31 66.1511V87.8208L1233.1 89.7852C1236.11 88.0663 1238.69 85.9792 1241.02 83.4623ZM1206.95 118.453C1206.95 119.435 1206.71 119.803 1206.4 120.11C1206.22 120.295 1205.6 120.847 1203.58 121.093L1202.23 121.277V118.085L1204.8 117.778C1205.23 117.716 1205.6 117.716 1205.97 117.716C1206.46 117.716 1206.77 117.778 1206.89 117.839C1206.95 117.839 1206.95 118.085 1206.95 118.453ZM1176.32 205.623C1175.34 207.464 1174.05 208.876 1172.39 209.92C1170.61 211.025 1168.4 211.761 1165.95 212.068L1161.83 212.559V190.276L1167.11 189.601C1167.85 189.478 1168.59 189.478 1169.32 189.478C1170.8 189.478 1172.15 189.723 1173.25 190.153C1174.66 190.706 1175.71 191.565 1176.5 192.854C1177.36 194.266 1177.79 196.292 1177.79 198.747C1177.79 201.448 1177.3 203.72 1176.32 205.623ZM1218.68 165.168C1214.87 169.22 1211.86 173.824 1209.71 178.858C1209.22 180.024 1208.79 181.19 1208.43 182.357C1207.5 179.963 1206.34 177.691 1204.93 175.666C1201.12 170.202 1195.78 166.212 1189.09 163.818C1186.69 162.959 1184.18 162.345 1181.6 161.976L1202.29 159.459V148.41L1209.78 158.539L1231.02 155.96C1226.29 158.416 1222.18 161.485 1218.68 165.168ZM1259.13 194.389C1258.58 195.985 1257.78 197.397 1256.8 198.563C1255.82 199.729 1254.65 200.65 1253.36 201.387C1252.07 202.123 1250.66 202.553 1249.13 202.737C1248.63 202.799 1248.14 202.799 1247.71 202.799C1246.79 202.799 1245.93 202.676 1245.2 202.43C1244.09 202.123 1243.11 201.571 1242.25 200.773C1241.39 199.975 1240.78 198.993 1240.22 197.704C1239.67 196.292 1239.36 194.511 1239.36 192.486C1239.36 190.399 1239.67 188.496 1240.22 186.838C1240.78 185.242 1241.57 183.83 1242.56 182.664C1243.54 181.497 1244.71 180.577 1245.99 179.84C1247.28 179.103 1248.7 178.674 1250.23 178.489C1250.72 178.428 1251.21 178.428 1251.64 178.428C1252.56 178.428 1253.36 178.551 1254.16 178.796C1255.26 179.103 1256.25 179.656 1257.11 180.454C1257.96 181.252 1258.58 182.234 1259.13 183.523C1259.68 184.935 1259.99 186.715 1259.99 188.741C1259.99 190.828 1259.68 192.731 1259.13 194.389ZM1314.38 145.095C1309.16 147.612 1304.62 150.927 1300.81 154.917C1297.01 158.907 1294 163.572 1291.85 168.668C1291.36 169.895 1290.93 171.123 1290.56 172.351C1290.25 171.553 1289.95 170.755 1289.58 169.957C1287.37 165.23 1284.24 161.178 1280.25 157.986C1276.26 154.794 1271.59 152.461 1266.25 151.111C1264.84 150.743 1263.37 150.497 1261.83 150.251V132.879C1263.67 136.746 1266.25 140.123 1269.57 142.762C1272.94 145.463 1276.87 147.428 1281.41 148.533C1284.18 149.208 1287.19 149.576 1290.19 149.576C1291.91 149.576 1293.75 149.453 1295.6 149.208C1301.73 148.471 1307.26 146.63 1312.05 143.867C1315.24 142.026 1318.12 139.754 1320.64 137.115V142.517C1318.43 143.315 1316.34 144.113 1314.38 145.095ZM1336.29 173.21V191.565C1334.94 192.056 1333.59 192.363 1332.24 192.547C1331.57 192.609 1330.95 192.67 1330.34 192.67C1329.3 192.67 1328.38 192.547 1327.52 192.302C1326.29 191.933 1325.25 191.381 1324.39 190.583C1323.53 189.785 1322.85 188.741 1322.36 187.452C1321.81 186.04 1321.5 184.321 1321.5 182.418C1321.5 180.331 1321.81 178.489 1322.36 176.832C1322.91 175.236 1323.71 173.824 1324.75 172.658C1325.74 171.491 1326.96 170.571 1328.44 169.834C1329.97 169.097 1331.69 168.545 1333.66 168.299C1334.33 168.238 1334.94 168.176 1335.56 168.176C1337.03 168.176 1338.38 168.422 1339.61 168.852C1341.33 169.527 1342.99 170.632 1344.52 172.167L1336.29 173.21ZM1349.25 140.921V120.786L1356.86 119.865V140.429L1366.01 139.325V150.313C1362.08 146.261 1357.23 143.315 1351.46 141.534C1350.72 141.289 1349.98 141.105 1349.25 140.921ZM1353.24 171.123L1366.01 158.293V169.527L1353.24 171.123Z" stroke="#090909" stroke-opacity="0.2" stroke-miterlimit="10"/>
<path d="M1161.03 80.148C1161.53 79.5955 1161.77 78.9817 1161.77 78.3064C1161.77 77.2014 1161.16 76.4648 1159.99 75.9737C1158.82 75.4826 1157.23 75.1757 1155.26 74.9915C1153.3 74.8074 1151.15 74.6232 1148.82 74.439C1146.49 74.2549 1144.15 73.8865 1141.82 73.3954C1139.49 72.9043 1137.34 72.1063 1135.37 71.0627C1133.41 70.0192 1131.88 68.4845 1130.65 66.5201C1129.48 64.5557 1128.87 61.9774 1128.87 58.7853C1128.87 55.1021 1129.91 51.603 1132 48.3495C1134.09 45.0346 1137.16 42.2722 1141.27 39.9395C1145.38 37.6068 1150.48 36.0721 1156.61 35.3355C1160.67 34.8444 1164.6 34.783 1168.52 35.1513C1172.45 35.5196 1175.95 36.379 1179.08 37.7909L1173.07 53.0763C1170.12 51.9714 1167.3 51.2347 1164.53 50.805C1161.77 50.4367 1159.13 50.3753 1156.49 50.6822C1154.59 50.9278 1153.05 51.2961 1151.89 51.7258C1150.78 52.2169 1149.92 52.7694 1149.49 53.3833C1149 53.9971 1148.76 54.6724 1148.76 55.3477C1148.76 56.3912 1149.37 57.1279 1150.54 57.5576C1151.7 57.9873 1153.3 58.2942 1155.26 58.4784C1157.23 58.6625 1159.38 58.7853 1161.71 58.9695C1164.04 59.1536 1166.38 59.4606 1168.71 59.9517C1171.04 60.4428 1173.19 61.2408 1175.15 62.2844C1177.12 63.328 1178.65 64.8626 1179.88 66.827C1181.05 68.7914 1181.66 71.3083 1181.66 74.439C1181.66 78.0609 1180.62 81.4986 1178.53 84.8135C1176.44 88.1284 1173.37 90.8908 1169.32 93.2849C1165.27 95.6176 1160.11 97.1522 1153.91 97.9503C1148.94 98.5641 1144.09 98.5642 1139.49 98.0117C1134.82 97.4592 1131.02 96.4156 1128.01 95.0037L1134.45 79.5956C1137.28 80.8847 1140.47 81.8055 1143.91 82.358C1147.41 82.9105 1150.78 82.9718 1154.1 82.6035C1156 82.3579 1157.54 82.051 1158.64 81.6827C1159.68 81.1302 1160.48 80.7005 1161.03 80.148ZM1194.67 85.4273C1199.77 89.7244 1206.89 91.3205 1216.04 90.2155C1225.18 89.1105 1232.31 85.7343 1237.4 80.2094C1242.5 74.6232 1245.07 67.4409 1245.07 58.5398V25.8205L1225.37 28.2146V60.3814C1225.37 64.924 1224.57 68.2389 1222.97 70.3261C1221.38 72.4132 1219.11 73.641 1216.28 74.0093C1213.52 74.3776 1211.31 73.7024 1209.65 71.9835C1208 70.2647 1207.2 67.1953 1207.2 62.6527V30.4859L1187.12 32.9414V65.6607C1187.06 74.5004 1189.58 81.0688 1194.67 85.4273ZM1274.29 81.6827L1254.22 84.1382V24.5927L1282.89 21.0936C1288.41 20.4184 1293.26 20.7253 1297.31 22.0144C1301.37 23.3036 1304.5 25.5135 1306.71 28.6443C1308.92 31.775 1310.02 35.581 1310.02 40.185C1310.02 44.7891 1308.92 48.902 1306.71 52.5238C1304.5 56.1457 1301.37 59.0923 1297.31 61.4864C1293.26 63.8191 1288.47 65.3537 1282.89 66.029L1274.29 67.0726V81.6827ZM1281.6 36.7473L1274.29 37.6682V51.603L1281.6 50.6822C1284.36 50.3139 1286.45 49.4545 1287.74 48.0426C1289.09 46.6307 1289.76 44.8504 1289.76 42.7019C1289.76 40.5534 1289.09 38.9573 1287.74 37.8523C1286.45 36.7474 1284.36 36.379 1281.6 36.7473ZM1366.01 55.2862L1336.23 58.9695V51.1733L1361.4 48.104V33.678L1336.23 36.7473V29.7492L1364.9 26.2502V11.0876L1316.53 17.0421V76.5876L1366.01 70.5102V55.2862V55.2862ZM1393.81 67.0112L1373.74 69.4667V9.92121L1402.41 6.42215C1407.93 5.7469 1412.78 6.05383 1416.83 7.34296C1420.89 8.63209 1424.02 10.842 1426.23 13.9728C1428.44 17.1035 1429.54 20.9095 1429.54 25.5135C1429.54 30.1176 1428.44 34.1691 1426.23 37.7909C1424.32 40.9217 1421.68 43.5613 1418.31 45.6485L1430.77 62.4072L1409.35 65.0468L1399.28 51.2961L1393.81 51.9714V67.0112ZM1401.12 22.0759L1393.81 22.9967V36.9315L1401.12 36.0107C1403.88 35.6424 1405.97 34.783 1407.26 33.3711C1408.61 31.9592 1409.28 30.179 1409.28 28.0304C1409.28 25.8819 1408.61 24.2858 1407.26 23.1808C1405.97 22.0759 1403.94 21.7075 1401.12 22.0759ZM1220.33 135.028L1232.06 150.805L1211.92 153.26L1202.41 140.369L1197.25 140.983V155.04L1178.41 157.373V101.388L1205.36 98.073C1210.57 97.4592 1215.12 97.7047 1218.92 98.9939C1222.73 100.222 1225.68 102.309 1227.76 105.194C1229.85 108.141 1230.89 111.701 1230.89 116.059C1230.89 120.418 1229.85 124.224 1227.76 127.6C1225.98 130.608 1223.47 133.064 1220.33 135.028ZM1204.19 112.867L1197.31 113.727V126.864L1204.19 126.004C1206.83 125.697 1208.73 124.838 1209.96 123.549C1211.19 122.198 1211.86 120.541 1211.86 118.515C1211.86 116.489 1211.25 114.955 1209.96 113.972C1208.73 112.867 1206.83 112.499 1204.19 112.867ZM1238.01 150.068L1256.86 147.735V91.7502L1238.01 94.0829V150.068ZM1309.53 139.693C1313.77 137.238 1317.26 134.046 1320.03 130.117L1308.12 120.97C1306.46 123.242 1304.62 125.083 1302.65 126.495C1300.63 127.907 1298.42 128.705 1295.9 129.074C1293.94 129.319 1292.16 129.196 1290.56 128.767C1288.97 128.337 1287.61 127.539 1286.45 126.495C1285.28 125.39 1284.42 124.04 1283.75 122.382C1283.13 120.725 1282.77 118.822 1282.77 116.735C1282.77 114.586 1283.07 112.622 1283.75 110.842C1284.36 109.061 1285.28 107.465 1286.45 106.053C1287.61 104.703 1288.97 103.598 1290.56 102.738C1292.16 101.879 1293.94 101.388 1295.9 101.142C1298.42 100.835 1300.63 101.142 1302.65 102.002C1304.68 102.923 1306.46 104.273 1308.12 106.176L1320.03 94.0829C1317.26 90.8294 1313.77 88.4353 1309.53 87.0847C1305.29 85.6728 1300.44 85.3045 1294.92 85.9798C1290.44 86.5323 1286.33 87.76 1282.52 89.6016C1278.71 91.5046 1275.4 93.8987 1272.64 96.8453C1269.81 99.7919 1267.66 103.168 1266.13 106.913C1264.59 110.657 1263.8 114.709 1263.8 119.006C1263.8 123.303 1264.59 127.171 1266.13 130.547C1267.66 133.923 1269.87 136.747 1272.64 139.018C1275.46 141.29 1278.71 142.886 1282.52 143.806C1286.33 144.727 1290.5 144.973 1294.92 144.42C1300.44 143.745 1305.29 142.149 1309.53 139.693ZM1380.62 132.573V76.5876L1361.77 78.9203V98.7483L1344.34 100.897V81.0688L1325.49 83.4015V139.387L1344.34 137.054V116.428L1361.77 114.279V134.905L1380.62 132.573ZM1200.94 178.49C1204.19 183.156 1205.79 188.926 1205.79 195.924C1205.79 202.984 1204.19 209.245 1200.94 214.708C1197.68 220.172 1193.2 224.653 1187.43 228.091C1181.66 231.529 1175.03 233.738 1167.48 234.659L1134.02 238.772V170.878L1167.48 166.765C1175.03 165.844 1181.72 166.397 1187.43 168.423C1193.2 170.51 1197.68 173.825 1200.94 178.49ZM1182.7 198.748C1182.7 195.31 1182.03 192.486 1180.68 190.276C1179.33 188.067 1177.42 186.47 1175.03 185.55C1172.64 184.629 1169.75 184.322 1166.56 184.752L1156.98 185.918V218.085L1166.56 216.918C1169.81 216.55 1172.64 215.568 1175.03 214.033C1177.49 212.499 1179.33 210.473 1180.68 207.833C1182.03 205.316 1182.7 202.247 1182.7 198.748ZM1285.1 172.044C1287 176.096 1287.98 180.7 1287.98 185.918C1287.98 191.013 1287 195.863 1285.1 200.405C1283.19 204.948 1280.49 209.061 1277.12 212.683C1273.68 216.305 1269.63 219.251 1265.02 221.584C1260.36 223.917 1255.26 225.39 1249.8 226.065C1244.21 226.74 1239.12 226.495 1234.45 225.328C1229.79 224.162 1225.74 222.198 1222.3 219.374C1218.86 216.611 1216.22 213.174 1214.32 209.061C1212.42 204.948 1211.43 200.344 1211.43 195.249C1211.43 190.092 1212.42 185.243 1214.32 180.7C1216.22 176.157 1218.86 172.106 1222.3 168.484C1225.74 164.862 1229.79 161.916 1234.45 159.583C1239.12 157.25 1244.21 155.777 1249.74 155.102C1255.33 154.426 1260.42 154.672 1265.09 155.838C1269.75 157.005 1273.8 158.969 1277.18 161.793C1280.56 164.617 1283.19 167.993 1285.1 172.044ZM1264.9 188.742C1264.9 186.102 1264.53 183.769 1263.74 181.744C1262.94 179.718 1261.89 178.122 1260.48 176.833C1259.07 175.544 1257.47 174.623 1255.63 174.07C1253.79 173.518 1251.83 173.395 1249.68 173.641C1247.53 173.886 1245.56 174.561 1243.72 175.544C1241.88 176.526 1240.29 177.876 1238.87 179.472C1237.46 181.068 1236.42 183.033 1235.62 185.181C1234.82 187.391 1234.45 189.785 1234.45 192.425C1234.45 195.065 1234.82 197.397 1235.62 199.423C1236.42 201.449 1237.46 203.045 1238.87 204.334C1240.29 205.623 1241.88 206.544 1243.72 207.096C1245.56 207.649 1247.53 207.772 1249.68 207.526C1251.83 207.281 1253.79 206.605 1255.63 205.623C1257.47 204.641 1259.07 203.29 1260.48 201.694C1261.89 200.098 1262.94 198.134 1263.74 195.985C1264.53 193.837 1264.9 191.443 1264.9 188.742ZM1321.13 169.466C1322.54 167.809 1324.26 166.458 1326.35 165.415C1328.38 164.371 1330.65 163.696 1333.16 163.389C1336.17 163.021 1339 163.328 1341.45 164.248C1343.97 165.231 1346.24 166.765 1348.39 168.975L1363.06 154.304C1359.62 150.498 1355.26 147.797 1350.05 146.201C1344.77 144.604 1338.75 144.175 1332.06 145.034C1326.41 145.709 1321.25 147.244 1316.59 149.515C1311.92 151.787 1307.87 154.733 1304.43 158.355C1301 161.916 1298.36 166.029 1296.45 170.571C1294.55 175.114 1293.63 180.025 1293.63 185.243C1293.63 190.461 1294.55 195.126 1296.45 199.239C1298.36 203.352 1300.94 206.79 1304.37 209.491C1307.75 212.253 1311.8 214.217 1316.41 215.322C1321.01 216.489 1326.1 216.673 1331.57 216.059C1336.54 215.445 1341.7 214.095 1346.98 211.946C1352.26 209.798 1356.98 207.097 1361.16 203.782V175.052L1341.27 177.508V194.696C1341.02 194.819 1340.78 194.942 1340.47 195.065C1338.01 196.231 1335.5 196.968 1332.92 197.275C1330.46 197.581 1328.25 197.459 1326.29 196.906C1324.32 196.354 1322.61 195.433 1321.19 194.082C1319.78 192.793 1318.68 191.136 1317.88 189.11C1317.08 187.084 1316.71 184.813 1316.71 182.296C1316.71 179.656 1317.08 177.262 1317.88 175.052C1318.62 173.027 1319.72 171.124 1321.13 169.466ZM1393.38 180.761L1422.11 177.262V160.749L1393.38 164.248V156.268L1426.04 152.278V135.028L1370.86 141.781V209.675L1427.27 202.738V185.488L1393.32 189.663V180.761H1393.38Z" stroke="#090909" stroke-opacity="0.2" stroke-miterlimit="10"/>
</g>
</svg>
