<svg width="60" height="60" viewBox="0 0 60 60" fill="none" xmlns="http://www.w3.org/2000/svg">
<path fill-rule="evenodd" clip-rule="evenodd" d="M55 30C55 43.8071 43.8071 55 30 55C16.1929 55 5 43.8071 5 30C5 16.1929 16.1929 5 30 5C43.8071 5 55 16.1929 55 30ZM30.8958 23.4561C28.4642 24.4675 23.6044 26.5609 16.3164 29.7361C15.1329 30.2067 14.513 30.6672 14.4566 31.1173C14.3612 31.8782 15.3139 32.1777 16.6114 32.5857C16.7878 32.6412 16.9707 32.6987 17.1582 32.7596C18.4346 33.1746 20.1517 33.66 21.0443 33.6793C21.854 33.6968 22.7577 33.363 23.7555 32.6778C30.5649 28.0813 34.0799 25.758 34.3006 25.7079C34.4563 25.6725 34.672 25.6281 34.8182 25.758C34.9644 25.888 34.95 26.134 34.9345 26.2C34.8402 26.6024 31.1002 30.0794 29.1648 31.8787C28.5614 32.4397 28.1334 32.8376 28.0459 32.9284C27.85 33.132 27.6502 33.3246 27.4582 33.5096C26.2724 34.6528 25.3831 35.5101 27.5075 36.91C28.5283 37.5828 29.3453 38.1391 30.1602 38.6941C31.0503 39.3002 31.938 39.9048 33.0866 40.6577C33.3793 40.8495 33.6588 41.0488 33.931 41.2428C34.9668 41.9812 35.8973 42.6447 37.047 42.5389C37.715 42.4774 38.4051 41.8492 38.7555 39.9758C39.5837 35.5483 41.2117 25.9551 41.5879 22.0021C41.6209 21.6557 41.5794 21.2125 41.5461 21.0179C41.5128 20.8233 41.4432 20.5461 41.1903 20.3409C40.8908 20.0978 40.4284 20.0466 40.2215 20.0502C39.2812 20.0668 37.8386 20.5684 30.8958 23.4561Z" fill="white"/>
</svg>
