<svg width="60" height="60" viewBox="0 0 60 60" fill="none" xmlns="http://www.w3.org/2000/svg">
<path d="M49.8812 19.8002C49.9116 20.241 49.9116 20.6818 49.9116 21.1266C49.9116 34.6814 39.5927 50.3141 20.7242 50.3141V50.306C15.1503 50.3141 9.69226 48.7175 5 45.7071C5.81048 45.8047 6.62503 45.8534 7.4416 45.8554C12.0607 45.8595 16.5478 44.3096 20.1818 41.4557C15.7922 41.3724 11.9429 38.5103 10.5982 34.332C12.1359 34.6285 13.7203 34.5676 15.2295 34.1553C10.4438 33.1884 7.00081 28.9836 7.00081 24.1004C7.00081 24.0557 7.00081 24.0131 7.00081 23.9704C8.42677 24.7646 10.0234 25.2054 11.6565 25.2542C7.1491 22.2418 5.7597 16.2454 8.48162 11.5572C13.6898 17.9659 21.3742 21.8619 29.6232 22.2743C28.7965 18.7114 29.9259 14.9779 32.5909 12.4733C36.7225 8.58954 43.2206 8.7886 47.1044 12.9182C49.4018 12.4652 51.6037 11.6222 53.6187 10.4278C52.8529 12.8024 51.2503 14.8195 49.1093 16.1012C51.1426 15.8615 53.1292 15.3171 55 14.4863C53.6228 16.5501 51.8881 18.3478 49.8812 19.8002Z" fill="white"/>
</svg>
