<svg width="60" height="60" viewBox="0 0 60 60" fill="none" xmlns="http://www.w3.org/2000/svg">
<path fill-rule="evenodd" clip-rule="evenodd" d="M49.4801 13.5368C51.6303 14.1144 53.3312 15.8153 53.9089 17.9655C54.9679 21.8808 55 30.0002 55 30.0002C55 30.0002 55 38.1517 53.9409 42.0348C53.3633 44.185 51.6624 45.8859 49.5122 46.4636C45.629 47.5227 30 47.5227 30 47.5227C30 47.5227 14.371 47.5227 10.4878 46.4636C8.33761 45.8859 6.63672 44.185 6.05905 42.0348C5 38.1196 5 30.0002 5 30.0002C5 30.0002 5 21.8808 6.02696 17.9976C6.60462 15.8474 8.30552 14.1465 10.4557 13.5689C14.3389 12.5098 29.9679 12.4777 29.9679 12.4777C29.9679 12.4777 45.5969 12.4777 49.4801 13.5368ZM37.9589 30.0002L24.9936 37.5098V22.4906L37.9589 30.0002Z" fill="white"/>
</svg>
